<mxfile host="app.diagrams.net" modified="2020-12-08T11:37:32.668Z" agent="5.0 (Windows NT 10.0; Win64; x64) AppleWebKit/537.36 (KHTML, like Gecko) Chrome/87.0.4280.88 Safari/537.36" etag="iWiu0JVB0gLgzpSrRICe" version="13.11.0" type="github">
  <diagram id="93Pd-9jX-z3yuA0c7CfS" name="Page-1">
    <mxGraphModel dx="1422" dy="762" grid="1" gridSize="10" guides="1" tooltips="1" connect="1" arrows="1" fold="1" page="1" pageScale="1" pageWidth="827" pageHeight="1169" math="0" shadow="0">
      <root>
        <mxCell id="0" />
        <mxCell id="1" parent="0" />
        <mxCell id="SuCCwU2PgJYkHePNsg9u-1" value="Kubernetes" style="rounded=1;whiteSpace=wrap;html=1;verticalAlign=top;" vertex="1" parent="1">
          <mxGeometry x="80" y="40" width="570" height="240" as="geometry" />
        </mxCell>
        <mxCell id="SuCCwU2PgJYkHePNsg9u-2" value="" style="aspect=fixed;html=1;points=[];align=center;image;fontSize=12;image=img/lib/mscae/Kubernetes.svg;" vertex="1" parent="1">
          <mxGeometry x="350" y="70" width="30" height="28.8" as="geometry" />
        </mxCell>
        <mxCell id="SuCCwU2PgJYkHePNsg9u-3" value="Pod" style="rounded=1;whiteSpace=wrap;html=1;verticalAlign=top;" vertex="1" parent="1">
          <mxGeometry x="90" y="120" width="380" height="150" as="geometry" />
        </mxCell>
        <mxCell id="SuCCwU2PgJYkHePNsg9u-4" value="" style="html=1;dashed=0;whitespace=wrap;fillColor=#2875E2;strokeColor=#ffffff;points=[[0.005,0.63,0],[0.1,0.2,0],[0.9,0.2,0],[0.5,0,0],[0.995,0.63,0],[0.72,0.99,0],[0.5,1,0],[0.28,0.99,0]];shape=mxgraph.kubernetes.icon;prIcon=pod;aspect=fixed;" vertex="1" parent="1">
          <mxGeometry x="265" y="145.6" width="30" height="28.8" as="geometry" />
        </mxCell>
        <mxCell id="SuCCwU2PgJYkHePNsg9u-6" value="Application container" style="rounded=1;whiteSpace=wrap;html=1;verticalAlign=middle;" vertex="1" parent="1">
          <mxGeometry x="130" y="190" width="120" height="60" as="geometry" />
        </mxCell>
        <mxCell id="SuCCwU2PgJYkHePNsg9u-10" style="edgeStyle=orthogonalEdgeStyle;curved=1;rounded=0;orthogonalLoop=1;jettySize=auto;html=1;startArrow=classic;startFill=1;" edge="1" parent="1" source="SuCCwU2PgJYkHePNsg9u-7" target="SuCCwU2PgJYkHePNsg9u-6">
          <mxGeometry relative="1" as="geometry" />
        </mxCell>
        <mxCell id="SuCCwU2PgJYkHePNsg9u-7" value="Linkerd sidecar container" style="rounded=1;whiteSpace=wrap;html=1;verticalAlign=middle;" vertex="1" parent="1">
          <mxGeometry x="320" y="190" width="120" height="60" as="geometry" />
        </mxCell>
        <mxCell id="SuCCwU2PgJYkHePNsg9u-8" value="" style="endArrow=classic;html=1;edgeStyle=orthogonalEdgeStyle;curved=1;entryX=1;entryY=0.5;entryDx=0;entryDy=0;startArrow=classic;startFill=1;exitX=0;exitY=0.5;exitDx=0;exitDy=0;" edge="1" parent="1" source="SuCCwU2PgJYkHePNsg9u-9" target="SuCCwU2PgJYkHePNsg9u-7">
          <mxGeometry width="50" height="50" relative="1" as="geometry">
            <mxPoint x="540" y="220" as="sourcePoint" />
            <mxPoint x="720" y="270" as="targetPoint" />
          </mxGeometry>
        </mxCell>
        <mxCell id="SuCCwU2PgJYkHePNsg9u-9" value="Other Kubernetes resources" style="rounded=1;whiteSpace=wrap;html=1;" vertex="1" parent="1">
          <mxGeometry x="510" y="190" width="120" height="60" as="geometry" />
        </mxCell>
        <mxCell id="SuCCwU2PgJYkHePNsg9u-11" value="FFC Helm Library" style="rounded=1;whiteSpace=wrap;html=1;verticalAlign=top;" vertex="1" parent="1">
          <mxGeometry x="235.28" y="490" width="270" height="150" as="geometry" />
        </mxCell>
        <mxCell id="SuCCwU2PgJYkHePNsg9u-12" value="" style="shape=image;html=1;verticalAlign=top;verticalLabelPosition=bottom;labelBackgroundColor=#ffffff;imageAspect=0;aspect=fixed;image=https://cdn3.iconfinder.com/data/icons/travelling-icon-set/800/helm-128.png" vertex="1" parent="1">
          <mxGeometry x="350.28" y="520" width="30" height="30" as="geometry" />
        </mxCell>
        <mxCell id="SuCCwU2PgJYkHePNsg9u-13" value="Deployment template" style="rounded=1;whiteSpace=wrap;html=1;" vertex="1" parent="1">
          <mxGeometry x="245.28" y="570" width="120" height="60" as="geometry" />
        </mxCell>
        <mxCell id="SuCCwU2PgJYkHePNsg9u-14" value="Ingress template" style="rounded=1;whiteSpace=wrap;html=1;" vertex="1" parent="1">
          <mxGeometry x="375.28" y="570" width="120" height="60" as="geometry" />
        </mxCell>
        <mxCell id="SuCCwU2PgJYkHePNsg9u-15" value="Microservice repository" style="rounded=1;whiteSpace=wrap;html=1;verticalAlign=top;" vertex="1" parent="1">
          <mxGeometry x="565.28" y="495" width="170" height="110" as="geometry" />
        </mxCell>
        <mxCell id="SuCCwU2PgJYkHePNsg9u-16" value="Helm chart" style="rounded=1;whiteSpace=wrap;html=1;" vertex="1" parent="1">
          <mxGeometry x="590.28" y="535" width="120" height="60" as="geometry" />
        </mxCell>
        <mxCell id="SuCCwU2PgJYkHePNsg9u-17" style="edgeStyle=orthogonalEdgeStyle;curved=1;rounded=0;orthogonalLoop=1;jettySize=auto;html=1;entryX=0;entryY=0.5;entryDx=0;entryDy=0;startArrow=none;startFill=0;" edge="1" parent="1" source="SuCCwU2PgJYkHePNsg9u-11" target="SuCCwU2PgJYkHePNsg9u-16">
          <mxGeometry relative="1" as="geometry" />
        </mxCell>
        <mxCell id="SuCCwU2PgJYkHePNsg9u-20" style="edgeStyle=orthogonalEdgeStyle;curved=1;rounded=0;orthogonalLoop=1;jettySize=auto;html=1;entryX=0;entryY=0.5;entryDx=0;entryDy=0;startArrow=none;startFill=0;" edge="1" parent="1" source="SuCCwU2PgJYkHePNsg9u-19" target="SuCCwU2PgJYkHePNsg9u-13">
          <mxGeometry relative="1" as="geometry" />
        </mxCell>
        <mxCell id="SuCCwU2PgJYkHePNsg9u-19" value="" style="shape=image;verticalLabelPosition=bottom;labelBackgroundColor=#ffffff;verticalAlign=top;aspect=fixed;imageAspect=0;image=data:image/png,iVBORw0KGgoAAAANSUhEUgAAAloAAABZCAYAAADmUIptAAAa1ElEQVR4Ae1d74saydbef70ZDM0gwSCLBMMacGaDH+Ksw50Q950luayJIUjkzrITriwShpWLH2SHQQgJhPNSard1yuquqrbLac0zMDijdnXVc55z6ulTv34g/AABIAAEgAAQAAJAAAh4QeAHL6WiUCAABIAAEAACQAAIAAGC0AIJgAAQAAJAAAgAASDgCQEILU/AolggAASAABAAAkAACEBogQNAAAgAASAABIAAEPCEAISWJ2BRLBAAAkAACAABIAAEILTAASAABIAAEAACQAAIeEIAQssTsCgWCAABIAAEgAAQAAIQWuAAEAACQAAIAAEgAAQ8IQCh5QlYFAsEgAAQAAJAAAgAAQgtcAAIAAEgAASAABAAAp4QgNDyBCyKBQJAAAgAASAABIAAhBY4AASAABAAAkAACAABTwhAaHkCFsUCASAABIAAEAACQABCCxwAAkAACAABIAAEgIAnBHITWt++faMvX77Q58+faT6f4xcYgAPgADgADoAD4MDeckDoGaFrhL7Z5mdroSUqAHEFYQlxDQ6AA+AAOAAOHCoHhM7JKri2Elpfv37dW6V6qGRAuxDowAFwABwAB8ABPxwQusf1J7PQEuk0GNKPIYErcAUHwAFwABwAB4rJAaF/XH4yCS1ksoppfDgl7AIOgAPgADgADvjngEtmy1loiTFKGNG/EYExMAYHwAFwABwAB4rLAds5W85CCxPfi2t0OCRsAw6AA+AAOAAO7IYDQg/Z/DgJLWSzdmM8OAlwBgfAAXAAHAAHis8Bm6yWk9DCBPjiGx2OCRuBA+AAOAAOgAO74YDNxHgnoYVhw90YDg4CnMEBcAAcAAfAgeJzwGb40ElowejFNzpsBBuBA+AAOAAOgAO744BpnhaEFo5HwCpScAAcAAfAAXAAHMjIAQitjMDhaWB3TwPAGliDA+AAOAAO7CsHILQgtPCUAg6AA+AAOAAOgAOeOACh5QnYfVXeqDeeGsEBcAAcAAfAgfw4AKEFoYWnGHAAHAAHwAFwABzwxAEILU/A4mkgv6cBYAkswQFwABwAB/aVAx6F1pg6lYCCIO23Qp2/ciLPpx41H5WW9yvXqTvKqdxchFifGhIOjbdFqlvB6/JXhyoxdjnyJQe73rxpUqW05Hf5SZdGdwXHMqXNg59XvhMEVD67dn+yLbT/Wdjl02tqlJe2LJUb9PqTxTUpeO5rh4B6f69299tH9Z+m6YDlZ/vcL7L2Pe1vxM8DEVoaURee0rAwHZ9fEh90cCyq0GL1WgaK8Nlww8H2wjaz11Q/igJhlbo3rp1N0f3P1J5raq9EVvxgWG7TNYTUfvIZdstgN799FBMi8YNzFHMgtLbYR2tC/bMmNU+U358qVIqBzitDwUmyDJZ5lW0K0jaf8/rts3LfuXBggqZANn3b2MzWVjo03sMgf/Oyum7Lk9c0c24D53fx/M/gozddqsYxKQr+WQSn4T7OuPou75am/x1S96xBtYclaiLTnkGg+LbRrsrnPpx3H3X9f4oOWOiCGpUlv8v7nrvsq5iQ3G1GK4EgXjrOoj9R+yXxLgm183t54UsCN106QlavZee8nxktOZtTotNBFmyK7n+mNskYrITWd5HRQlzaeTxziTE7/e59cOE+7mmKBdk+/06E1pzmhZ4jcjiE2nlgYoKmQBmt+ZwOYo7W4HSdYd5GXBTa/yyCpzxH61GTet/FHC3EpZ3Hs52KJwvex/W5Dy7cxz1dMLH/7vcjtGLC2IOzOyc7HELtDrOVHQsstHaORe4cn9HrJ9FQWUDVlzff8dBJEeOG7zohLu2/D+fFkfvgwn3cMy+8eDkQWrl3ThxgO0c9HELZtTcLRgnXQGj5Ez/y3KSjOr2eJdigED6EuuXve4hL+WO6rzy9Dy7cxz392AdCqxCdxOEQaueBCULLm9C6PivHk+BLPw+83WfnnCmEz/sJ6PliibiUL577YPOkOt4HF+7jnknt3+79wxRauhVf0uqFxaonzcz/dKeSjd6gfhSs7yZ0/VuLag9DKkVL4I9KFFYb1Hk3ptvoe6mvctkBpa+umFL/JIw7QNGW8MlrurHZqmJR1zbVq1JdBS4PQqrW23T5ceLQmcoTnPncqNu/r+iyVaNyuN57KXhQplrrkq4njoS9m9HoXYeatTKFD9bDWKLdpeMy1R77WKXqWMf5nJgjqVxb/Z9uV4t7Tq6pd97kXIvt16LOuxHNbHiQysVVPe4GdBrjXab2R4v6ReXum/8xsc45tlwhufle5Xzs4CsRpiJW5OV/GnvMRjR8qSlfxCPhKycd6v0x0cckG5sl8HqNkRQXIy6YXqdX1HmyEvSlCjXfFHh4Osf4KccLOS5MPl5SS8S61f57izgXVqlx3qfxPxqba/FdrhbtvWxTs16l8FiJ91HsPOlQfzSz5HFSH3VL4yg+y3V+WKPW77b9X1K7ku6Z9H3D+znaT9UKiz7vrE5VFetSSGG1TjV5exiN9vC4j1YCKCzo8Q5cbVzi/zZBQ9PYxPIWZJaNvgwotx+7VDveDMLrwBNQ+LRPU60zyO2Xy04TWhqR9bRHE4vOdfqfjrGuot7h4w5dTeW6Jf2tEVp3ExqeSVsB6ALzUZUuLDeLnbxvUSUSr7qyNt7LyBejfZIwWL8vB07Z/vLfckBN59q63MX37iY0aFWYuJbLZX8f16j78dYyeCr3kXDYakuHffM/FnPS/TnC2lVo5e9/ku2E353XKLTylQQfsbHZhr+pWLkKrTFdPFLLCOn0g9Q2iZNOPpPzdXnbT44Xi7jwzzV1H/MH6Ihr8WvYoL5NbHa0ZfjYZjNlTR81GVDLtOl49WKLjZo198xo17ztF3PRxm6q32i0x34KrUFroeKFkpd/44yTaLimsTF4WmPKRq9Q67zJA9viqTHcyLoIJ6m8MD39ymUnCS2NyDqxEXFzmr5tUCgb+6hE5VpjuYfZ0xqVpSeRhVMfNy0cWhZaATXejOiiqgRNoeZVhS/qETZpYJjvM3qhEWwRxsKuap0X7UvoRLT2zDeYD1qca0veSRm9IMmuhnrcaXAVbX2wup+cNYxsfBRS8+10C7Elb2eQYUuHffO/T+KBSWc//p4cP1yElh//W/EmiR+yrzCOJPiI1macvzHnErFq0cDF1z5dSKc6SLHjpFjD1D7sJwutSqtDTeWBvRQK7in4C/9+dGHei08jtEqyzXSx88cu3aTaTu6jytQZ9qkRSjYTWbKEOtslG3RxUL5nxvg599X/zWk+7W/YTfSfSxwS7CdsqNEe+ym0Eggjk1vXWHuhJRMspNr5kGWVbseXVJdJ+OCUhgl1Wt7TRKhNkVV+NrDIlM1pPuqwrJDIWA03hu9uafxbgwnH0k89Q/lcaAXy03SlST2Wkr6l6194Rqb6a/Iw5ex9kwtDUd5/p5tDHrMbunpRX28/ECR0IqnY6xw8r/dMdjXdZ0YDdZj4p+7m8OtsRP2zGsdMTF63efrVYZPXlg5K2cX1P5MdxOec79ZCy5v/iTpNqf9UyYIc16jz4UYzhHxL0/EV9c47DltTbMtfA64T3UawAZWKdIKCJ/sxX4gekFYjCiw+/zOmyyeyjUvmjN+gQ/WzLvU+jGgy1We3b/8eUodl0EwPVDIXShRK/Vv5pEcj+cF5MqQ2y1RmzVLK98wotDzZT8QDlo09WuqAGxmHRfwTw7h9OpUzfxBaaYGBG32R+Tkq0+lAnzmY/bsuDfWUqZM6XMbL5kNMW4is+Q11f5RE4aNOahp3+orXOX1eDu94FniIc/CeDZjoXIvXG+rKGa+fevqMy92QTiUnDgx1nrNhnwMTWh9OmXiq/HK9KTYlMaM+eWfbINXflg6sc9EEmzVXdH7IfSRf/9PdT32P891OaPn0vzlxfxXD/jZDQGq70v7nmPO4lHad7WcaoXhUoYu8zreVfCOdW0n19Wc/5gsroZX48MyOwAqo/MtIHztd23snZ64DClIziZwLy3gfUuNNwgPztEeNeI5nQEEOJ0q488+f/W5+lUdcQmoYRhCYvTWxDxmtmLwq0QzgCueQnlTSScLLXn93U2RVnl8ZMk1S0PjYlo4wMD2xiOu444XP0w4P5h2PcDyTELh+Lj2ZJRxHwwWqxTEnByu0uOAJEvDiHYhyzYNTGljM32NleNzSwRRsWD1iv4v4zH0kCPL0v+geaa+c71ZCy6v/cV8NvJzdyjFfx6U0nBw/E/PLXjYWk4jLtRb1xvoMTDo3HO+5wa2E6z3aj/mCyGSlzuWd0eu69MCs6aiz4sNi8qOLlOFDzgWj/83nJK9aDo6absPKCxvxezrzz5v9uO/ZrMhm9tbYD0Irdkpu9IrxqWIordoKKG2obD7nZS8JpRFZhoyG6mzMiY7tDsFl16Q6Hu94wtYwNdsi6jY+l4YPE4QDI2Td4ly9QxVad31qSMOx6fyROgp52C8Iqf2n9FnM5eT35OBoE0BUzqX9z2yrCTZp16o+kq//JeOxrhPnu43QYr6Ut//92WbZzvorfWZ9XX+bNqrf0cUl9TuH+79P+zFfqKSPNAgbDp9J87V+7NLEwpdtbG8Tk5flcC6Y/W9O8w/SqRKZpnXwe7oKLW/2Y32OXYxl9tbEPgitmNCuRncJzGrZmyKr+sI1XTzhw4apaeF1sJywlGjaKiKX9q3LT3f+a2pLk0IrLyyWejPSH9DQIetIHdp116OGlEmtv7Jdvj2n+TZbOsR+kmxrU7BJ54bqI8n3WZaTNz9dy/PrfzcvpIeWwNdmsq6Ym2yyT5/7tZ+rL9gLIgXj2ZRGH3p0ed5aLn5aHNa8PsC58UgScAkPvzqhZSV6lDl4VtewOLIN//zZbyZPsbHM1JnsDaEVG97V6C6BmZcdltcbRYohufJZ2hCe4lhxfUfUebhON5cerVYZKo7WVP+vyffetdDiOFg55qEKLbZyKM0Oqv0Vseqw3xMbtq2aViGp9zX/bwo2hyW0/Pofy3A87NAo9nuzHdJxlq/P4I9e6iHXaVd/+7Wfqy+4Cq3bcY+asoiSHr6W86vWfUP8f95CSztS42K/bfjnz36uthD+ZrI3hFYcOFyNnl1oNX5Tls6GDeptrBQ0EZbXN3YmG4eLv5PWwbu0z1TX1edZnoAgtJSJsVntwhcr1P/tkAmLfSTdzqZgky4AOJ/NIjwrDkltcC2P1zdv/2NYpnaQSe2xeZ+3wYy5TZn78h3edq/20wwlqb7g0rlP3ypbD8XxXCOu5M9SecTxsONClmtkfmxzPb82T/uxh5xUzNZtYf6qsTeEVtyJcMOZieYSmDVlK8tSA9vN6uL6ckWfJ9GWQcClfWvCqQGE/a8Me5kxntPBrjrcdUZLnjiaZRJ9zLtkW5uCDePCRnkaH9n4jnzvvPnpWp5f/2NYWgb7dHxl7KK/XTGPrjuE1x3aT9PxqrayFlp/XbDtfIKjCjVfDmn0P/2Dk3W5mbJT2/Jnm+v92W/0izTqY+l7zF819obQioO5q9FdArO+bHW5vtjq4Nr6GAaX+2cJjD7K5zhYzS861IzW+6a0PUiFLj5Z2shpteu6zMHP67ka2Yaq12WpnUT0vynYRN/Tv3JumEV43vx0Lc/1+2b8ZFxYsLecJyJfb/e3K+ZubbCrw32V6dd+rr5gK4hkPxYiK31bIbsFSks7ZeACi82mLY50ds5wz7i/9mc/ZgvLRS4me0NoxYZzNbqLoZPLHskr9USa17SvVFzfOQ1OpFRx0r5V0vfdAp9L+3ROpHuPzy9K315CXK/uw+MwaVxq92w0pN7vPRrqNkWVvueGj6hfsl2NZSm7ZluJTlFXlgmrUtdmyJnt02OxpUZGTEzBJh0TVyzz5qd7eT79j03IzbC6NB3ryDddMY+uO4xXn/Zz9QXWuSdmUXj8tNmU267cbLGMcfSoQX3XrWa2iZ9zf/0fa5fNQhR1dAoZrbQA4Rp0XAJzWtlTunourzAy7bmybgMjxDY7hWs7Vpf2retkCvC9nyRxaJiQvSFCnZcQT2nwTEoDL3ZmznPTxzS7mjDhe7UEBiyWuE75fjtW18xpq3MNtdzQt821c+FcccUyb366l+fV/5T5jOaTHPQ24Rir3+Edd24bZcqcKfA+Wj7t5+oLdoKI+4hxC5K7G7qsrzPZ6Xv18bLNGWU+59NG9G1y0fWenL/e7Dfq2O9POVXmW4tkCYQWNxQ3vKvRXQKzqWw1c2Mptlimwi0bxtuuw8Wlfbrr9e8x5wiSj264eVVn+wgt56A5ZrTYnlNrgVf91WJbCbmzSPzbZFc9BhH2TACJDWHP07f4uHlZk4YbA7Kb0C4LOptNbdPrHNVd9+raufAyXLHMm58ZyvPqf8rmtBb84Hja2FFZIl9u07VzViLtPptHTInhrsLsDO/Rfq6+YCe0uDAO0vYhnAzoVFqVvoifiZkyYUM3/5u+aUhHo5Wd9/NbctXtnhv89mY/BeekcyKnV8pRRKs+BkIrLSi4Gt0lMFuUfTeiDjs/ytzxCuKN2X47AQXHNWq/G9E0Ya7X7H9junrXpXa9Y9jJ16V9abgqn836/OiGsEbdP6WJnLMR9U6kLNSjinQwrZvQYhvayatvNI6w4cSJ4kpuj4Vd08pRjyMSnal6rpi4foEJz3oGSc6v3k8Wm6IjVT/P8X/XzoVj7opl3vzMVp4//xMLQZSJz4uMbJv67JzRiI9ZzjpUsp3RWXx/q7u3L89z6zztGGJGVJfVq5KVixbsFOmsQ1/2c/UFO6GlbCMQhFT/bcw2kr6djqjXqrJzbSPcXTJa1X+NNOdpir34JjQ85+euZjsKTHDE1ecVfnns/5g9FkfP9WkS96m3NPnQoVp8lFxIlUfSqSia/sXfHC3tafEhheykefkkbHEadvSbdkr8DXUfR9/jryVpp+1APt0+LjekWmI2w9XoLoHZsmxNGtKU5dicx7TO3AQPJHwU3IMgbWsHQWiX9m06AO9E+efqGW6LQLCoq5TmFsLouEn9qby6xE1o8U0fJVwsN3eN2/CpSzWJQ2ueKvWV8Y6/X6Nu2kR3dXw/EoRRWRt2Cyh4eEoDqwOleVak+jKPTN4++h/nX2xXJjKz8n0zGx13bJENBRc27Gjyv2WdE5fyy/GNle3mI/PZgJpxhyH5SCmKHTLH7eoc46vMQ4xxcfU/ZicbW7p8x4/9fAmt+Z/ysWsre0VckM8eXMWRyhNpZMAhoxXZqnRcpfpqL8ZGrUysj7WdiuEzfm7M45U4vI3/qedECjwjnEvSPYKAxGbjt28a69GGnQotNmmXVywyYvJrmkPzgJhchv6eyePalmIodnpej+RyhdM7lL3R8RrOfBP1iZ4yZKEZddhJr8aVTC7tcwls4ru3dH0uH9qpsVW1TVcLMSHXw7ETEef6bWCSPFwZdxCxjVftYqtrNHVNwnjxvkWdP/WoKZ/+nlKeyHiN4ycrA+7yuYa5bekg28MVC5GlHSv7gkVtcPCRhX14PZLLjco3vW5Rnhf/W9f39qMQ+rZYW/BN5fen19SwKj8tLq/ru/ajMV0oWXpxht7pB9137/E9D/bzJrTmcxr9yjNK2j7wqEKt9xO+PU6q0LqidtmWY0J0hFQ7H9LEZqjZd/z0YL8Fhyc9aqb5xVFIjVerh1dZ70Bo3Vegd+tEpv9p871STAfsRoFzNqLhyzbVqyGFiupeZLeqdWqedan/x40+LRyV46Uj2wykYnfjlvyUJJ4Yqg3qvJPT4XIH6N6JiE6qXl49lZdr1BbBh7Vzs14bn/sOFIv63NLkj0tq16sb2Y/FU+XZJV1tDOmk1/36+XoINr8tHWR7OATmlXhMFkRuPpJ/xpW3K7meKZjn6n/qfVb8eFqj8rGcZVo9aT+sUeOsm31l7d2Ern/TxI7FU3yV6qLsLAdCT6+o82TFw1KFmm/yyKqq2OT0f4728ym0RHy6Hfepc1KjspzFOipRudakzu/XawEkx65UobXEUAw9ij6kKeLQccgzWIv4XKfWeZ9GMwfM5TqkPERqBaPLAqgc7Rf3AULEiUPRpaxxKSxTrXVJ1/KK73sTWq6dGb7vLgCAGTBL4gCbKOpvS4c4ICXVY2/el4eo0x7IHDqYvWk72nQ4PIYti2hLf3O0EGQgAsCBe+MAW9H45DXNYIt0W6inFrxBh1XEDgt1Ai/3kQMQWuiA0jsg4LOH+OxuS4d9DHraOsurM12GK+Afe+gfECtaHwCXvXEZQgvk8kYuOPM9BXRZNHje0uEgbKxurWK5EexBtB3xD/EPHPDOAQgtkMw7ydAh3ZPgArdpPr+i7kmHen+MaaqZwHv795DaVXlSf0jN99K+bsAQ8QEcAAe25ACE1pYAQkRARIADReYAX80Y74Uj9raSV2ytVkOFJ32aIiagYwUHwIEcOQChlSOY6HCL3OGibt8nPxWhlbS8fLEv0BVEFuIhBAY4kDsHchVanz9/zr2C32fnAFEAu4MDeXFgdnNFvfPW5v5yYl+ghzVquu4LhI4IcR4cAAcsOSB0kennB9MX5M+/fPkC8C3Bz6sTQTkQJOAAOAAOgAPgQDE5IHSR6cdJaH379g1CC0ILHAAHwAFwABwAB8CB+ZyELjL9OAktURiGD4upqvG0A7uAA+AAOAAOgAO744DNsKHQTc5CC1mt3RkRDgOswQFwABwAB8CBYnLAJpuVSWiJi75+/YqUIdLG4AA4AA6AA+AAOPBdckDoINsf54xWVDAmxhdTYePJB3YBB8ABcAAcAAf8ccBmAnyklcRrZqElLkZmy58h4STAFhwAB8ABcAAcKBYHXDJZkdjaSmiJQsQYJSbIF4sIcEzYAxwAB8ABcAAcyI8DQufYzsmKBFb0urXQigoSFRDpNIiu/AwLJwGW4AA4AA6AA+DA/XBA6Bmha7IKrEgf5Sa0ogLxCgSAABAAAkAACAABILBEAEILTAACQAAIAAEgAASAgCcEILQ8AYtigQAQAAJAAAgAASAAoQUOAAEgAASAABAAAkDAEwIQWp6ARbFAAAgAASAABIAAEIDQAgeAABAAAkAACAABIOAJAQgtT8CiWCAABIAAEAACQAAIQGiBA0AACAABIAAEgAAQ8IQAhJYnYFEsEAACQAAIAAEgAAQgtMABIAAEgAAQAAJAAAh4QgBCyxOwKBYIAAEgAASAABAAAhBa4AAQAAJAAAgAASAABDwhAKHlCVgUCwSAABAAAkAACACB/wf9Vggosob5QgAAAABJRU5ErkJggg==;" vertex="1" parent="1">
          <mxGeometry x="24.72" y="700" width="270.56" height="40" as="geometry" />
        </mxCell>
        <mxCell id="SuCCwU2PgJYkHePNsg9u-22" style="edgeStyle=orthogonalEdgeStyle;curved=1;rounded=0;orthogonalLoop=1;jettySize=auto;html=1;entryX=0.5;entryY=1;entryDx=0;entryDy=0;startArrow=none;startFill=0;" edge="1" parent="1" source="SuCCwU2PgJYkHePNsg9u-21" target="SuCCwU2PgJYkHePNsg9u-14">
          <mxGeometry relative="1" as="geometry" />
        </mxCell>
        <mxCell id="SuCCwU2PgJYkHePNsg9u-21" value="" style="shape=image;verticalLabelPosition=bottom;labelBackgroundColor=#ffffff;verticalAlign=top;aspect=fixed;imageAspect=0;image=data:image/png,iVBORw0KGgoAAAANSUhEUgAABxEAAAC3CAYAAADdE6CKAAAgAElEQVR4Aey967N1RXXvn//ivM+LvDinTlUqValc6lTOKRNPQijNiQlRoigqJUGOog8IiCAXw0XuiMgdERFBbhLyIIKIPBwBEUTuyMP9IndUlPhy/uqz8hvL7+qne/aca/Xae+29v7tq15xrXvoy+tOju8fo7vl7v3n7t53/LQMzYAbMgBkwA2bADJgBM2AGzIAZMANmwAyYATNgBsyAGTADZsAMmAEzsHUZ6JK/3zMMWxcGl73L3gyYATNgBsyAGTADZsAMmAEzYAbMgBkwA2bADJgBM2AGzIAZMANmAAbSPzsRvRLTK1HNgBkwA2bADJgBM2AGzIAZMANmwAyYATNgBsyAGTADZsAMmAEzYAa2OAN2Im5xADybwLMJzIAZMANmwAyYATNgBsyAGTADZsAMmAEzYAbMgBkwA2bADJgBM2AGUgbsRLQT0TMJzIAZMANmwAyYATNgBsyAGTADZsAMmAEzYAbMgBkwA2bADJgBM2AGzMAMA3YiGogZIFIvs3975oEZMANmwAyYATNgBsyAGTADZsAMmAEzYAbMgBkwA2bADJgBM2AGth4DdiLaiWgnohkwA2bADJgBM2AGzIAZMANmwAyYATNgBsyAGTADZsAMmAEzYAbMgBmYYcBORAMxA4RnEmy9mQQuc5e5GTADZsAMmAEzYAbMgBkwA2bADJgBM2AGzIAZMANmwAyYATOQMmAnop2IdiKaATNgBsyAGTADZsAMmAEzYAbMgBkwA2bADJgBM2AGzIAZMANmwAyYgRkG7EQ0EDNApF5m//bMAzNgBsyAGTADZsAMmAEzYAbMgBkwA2bADJgBM2AGzIAZMANmwAxsPQbsRLQT0U5EM2AGzIAZMANmwAyYATNgBsyAGTADZsAMmAEzYAbMgBkwA2bADJgBMzDDgJ2IBmIGCM8k2HozCVzmLnMzYAbMgBkwA2bADJgBM2AGzIAZMANmwAyYATNgBsyAGTADZiBlwE5EOxHtRDQDZsAMmAEzYAbMgBkwA2bADJgBM2AGzIAZMANmwAyYATNgBsyAGTADMwzYiWggZoBIvcz+7ZkHZsAMmAEzYAbMgBkwA2bADJgBM2AGzIAZMANmwAyYATNgBsyAGdh6DNiJaCeinYhmwAyYATNgBsyAGTADZsAMmAEzYAbMgBkwA2bADJgBM2AGzIAZMANmYIYBOxENxAwQnkmw9WYSuMxd5mbADJgBM2AGzIAZMANmwAyYATNgBsyAGTADZsAMmAEzYAbMQMqAnYh2ItqJaAbMgBkwA2bADJgBM2AGzIAZMANmwAyYATNgBsyAGTADZsAMmAEzYAZmGLAT0UDMAJF6mf3bMw/MgBkwA2bADJgBM2AGzIAZMANmwAyYATNgBsyAGTADZsAMmAEzsPUYsBPRTkQ7Ec2AGTADZsAMmAEzYAbMgBkwA2bADJgBM2AGzIAZMANmwAyYATNgBszADAN2IhqIGSA8k2DrzSRwmbvMzYAZMANmwAyYATNgBszAxmDghZ+/1u3x0SO6//Lf3tV9+ogvda+/8SuP5zymNwNmwAyYATNgBsyAGTADZmBpDNiJaLiWBpcNERvDEOFycjmZATNgBsyAGTADZsAMmIGNwYCdiBujnFyfXE5mwAyYATNgBsyAGTADm4UBOxHtRLQT0QyYATNgBsyAGTADZsAMmAEzYAY2AAN2ItoYtVmMUc6HWTYDZsAMmAEzYAbMwMZgwE7Et3/b/fo3/9Hd//DO7kvnX9XdeOuPujd/8ZYH0JUBtGW2MSq4FbHLyQyYgWDg1dd/0V153a3duV/7dvf4k8+7nau0cyG3rXDEIP21K74z+ed8K+R5s+bxrV//R7fjrvsnfVqO/N6sed0K+XLddBue49xORHOR48LXzIUZMANmwAyYATNgBszAshiwE/Ht33a33fHT7o/+6iOT70rwbYkvX3jVxLG4LKFvhnAtMyul1hzzPRe+60Id5Dsvq2LIVkPNKqWrtfwd3uau09Svg44+a9rO/e0/H9Q9tvO5lXYuXPTN7ZP0/vf/uVf3w7sfXOm0rlf9YdITk58+fsgp3Z/utu+0fOnTvOfDh3UnnnVZ9+prv+iV3XMvvNJ9cP9jpu/ufcCx3Ysvv977znrl1/HW9dTl197S/f4f/9OkPDlee8MOl+UGnTDgulnnfavqBO2b+puI5mSr1gPn2+ybATNgBsyAGTADZmDtGLAT8e3fdsd/6dKp8QwHxvs+dqQNaBWDi2W2dpV0qyhEOxHN1FZhfT3y+cCjT3b/6/98Yqatu+Lbt6yscwEnVji2cJCxinI95LbKcT706FPdnvseNVOm9GH0f8jEByYF6Ts4nm6/6wHLu9IPWkU2tB2NMt125Je7N978lctzA5an66b7RSU9Yyei2Six4etmwwyYATNgBsyAGTADZmAZDNiJ+PZvu1jtEAaXg48521uaVowtlpkVUmuFpMbPIYbv1vGXwlNDzSqlq5TezX79Jw/8rPvKRdd0rJayo2O4Hnrq2ZcmK9OinVv11X03/eDu6Wqqq//9NjtAkjY5XaH0B3+2Z/cvB53UnXL25ZP/w48/v/u7Dx46mRSFDuvTC/c9+Hj357vvN3Uk/vV7P909uvPZ3nf6wvO94fWytT771Vtvd/966sXTsqS+n3Held5dI6k/G4VR183hdQn2WbF+6jlXdPtsO6FjksVGKed50ql9U69EHM7JPLL2O5avGTADZsAMmAEzYAbMgBn4bepD7H5vKwqFFQ7HnX5JhxGOlQ+bfeDZoowtMyvQFhxpGHYiminloXSuq6BZpVF6ztd35Qmn6+4fOHiyffd5X/+37pdv/WYl5ccWnUzmwQHClpw4QF2es+WpE3k+8PFjuieeeXFuGfGN42u27+j+4t37T/4555plPivzZchjGfoMB/MBnzu9+6//4/2TI7+XkXaHuXw+XDeHy1j7kKy6Z/X9ZmbUTsThbGxmDpw3c2AGzIAZMANmwAyYATOwVgykXsQt6URcK2E7HldsM1BmQA1Aq7TiTw01q5SurcrSMozuW1WWq5pvXX3jVVS76szX3vhl98nDTp84WVd9RemqMrYq6bI+25XvVSkbp2NjlY32Ie1E3Fhl57rm8jIDZsAMmAEzYAbMgBkwA6vPgJ2IG3SLI1eu1a9cLqNxZaQGoFVy1tmJOK4cl829je6rVR6ty5uVNzgOWYXIFps4FFvHsdHDs07aPHXA+mzzlOVG1ysbPf3ah7QT0fVqo/Ps9JthM2AGzIAZMANmwAyYgVVjwE5EOxFtoDUDK8GAGoDsRHRjWWosbXTf3Gzotxv9feJ8WbNNH0ZyHK2sSGRlYqm++HpehqsiF+uz1S6fVeHE6ahzon1IOxHr8jJTlpEZMANmwAyYATNgBsyAGTADYxhYihNRB3L/ctBJ3SuvvTn5vs4jjz/THXbcud2f7rbvxPjFNwj3PuDY7ns77une+vWw7+8wA//8S6/v9tjniO73//ifJuFgSCv9Y6BJBfKNq28qPk84uXfSMPitqwGOOunC7ldvvT3Jx133PtJ94rOnTb47RXh/9Fcfmfz+8U8fzX5niO9SnXL25dM0/fV7P93d//DOXdIdaWClxpcvvGr6PN9Deub5l4vPx3uLHFdNZmlekAky+8IpF3fveM9/GldLTMT13PfUwqCnTiy+/3jZNTfPMPeuvQ7pzv7qtd1Lr7xelTts/+SBn03Yj7TB7t/vfVh36jlXdI8/+Xw1DM0vz/MeaaQORX7gjO+HHX78+R3fPtN3SudRn96/39FTXgmPcP/ug4d22478cnf9TT8cFFYpjqHXVW+o/NP3+V7aSWddNs039QX56nOUbcilVp+Vbc41HM61nke64O2xnc91J5x56ZQ3ZLb/oad2pXqehsvvl199Y8LWnvseNS1L9OPHDzmlu/HWH3XkNfeeXmvFrMqMuImDMrnyultn2Ifhk7/yzW7Md7aefeGVSX2B+dDbhIOTaMdd9xf1v5ZNlOfQY5SVyio9R/eSbxwx2i5RHrQzlH36Tuk39Zy8kKe/ed+2KX+kl7zutf8xk3r79HNr830/5TYns3mNrOjDy6+9pfvwAcdNdcYi+iyV59X/fttEdoR50w/uHiz/CIc6laaP/FMmlA3lPeRbkKFnlVl0LPkmfOQQceaOwe6f7Pax7p77H5s8S9rOveS6jvYjyoRzrtXC0zjUifjpI740qad6v3au70c69Dik7qRxtGiDQ2akJaeLNc7QezxLmeq9OI/wlHV06vbv3Tnpe0b7Sf1Elz/5zM+z4UR4L778eved7981+Yb2ez925JR/0hB6m/vozXhHj5EelfXQ874yUVnkwqvJUtMY58iJdoC2KHQjYVOP6GfR36LM4/n0qPpnkf5xGm7r35pPOFD5kdePfvr47pyLr+1efS1f31u3m63qpvanPvTJY6d9VfQarEcbhZ6lbaqNw4Jdtk++696HJ+UefWPtv9AfG6PPFukf17jXskzPh+pNGL/5th9379zjU5P6vkrfEtY6NjQ/reuPw7PRyQyYATNgBsyAGTADZsAMbB0Glu5ExPCBYYZBeBhs0sEcg9jTzr2i17DHQO7q7bfNGDPScHK/GWSmQMdgOPc813LvpGHwOx3A4cg7+qSLpkbyNHzyj/ExZ3hhMI7DJt7hvGRUvPOeh6fGK4ya37/93l3ymEvvItdWUWaRH+SEUQuOQn5DjjnDYxgl4Pb5F1/tdtz504nxoBTeP37k8A7neKQlPb740mvd4ced15suuLjkWzf28k+4GIUw/gzJZ81oiBGdOEt1UvM7tD6keR/7W41eJYMpBr+aA5F41bBXS7+ynZOb1nPSRT3HSFaSHeWDg7nPUYEOwEESq4lU3nr+wf2P6X72xHNFvshrK2ZVZsjhgUee6DAOanr0/G//+aAOg2dfOSMDHPDoKX03PUffUVfSsLRs0ndqv0sMRRw7n3qh22fbCb3pwniOwyGnsyMcjpQRZVVLkzoz9P1lnCu3uXSNTQsyQBbqUMiFC/+nn3dl0ZHSl1d0OU4LwkWeOG36ntd7sPbNa75XTR9h53R/hDVUzyI/6nCJDWWX+GptCROqhk4GUkfDPMZjfT9XhrW6E7KKY6s2WGXGeYSfO4be6yvPCC9Yr+k0nrvjxw9l463VJ5Uj/YKHHn1ql3AiPfrs0PO+MlFZ5MKryTKVLxPh0O+5sPQafZuc3iY8lReMLtI/TtPX6vfQfPbJvnW72apupv2pWr+FcmX8Uhp3KLvkmYlqONaUBz0v1QEtu0X7xzXuNT3p+VC9qd/nJQzat2tv2LFL3dZ8rdV5Wsco87WK2/FsHUORy9plbQbMgBkwA2bADJgBMxAMLN2JiFFmv4NPng40/+Ld+3fHnPzVieF79w8cPL3O7NZbb/9JcQCEo0wN0RjccCpixGMVnxo2iYPVM7fcfk92RR+DX97R/30PPHGaFgamIaC+ow7gMDKwIjAGquSNcMgr6YnrYczKhcvMbmbxxrOXXn3TLgZKjKrkPQazGOhLRsxcHPNeW1WZYTjWVZw4djCEMIOeFXTbjjhzxumG0wBmYAMnYSqPMEqw+uRL5181dRQRLqtqiQvjgzqQPnfcudkVY/Ch7GNwwflE3LDL6qdwCHLsK0tWueJoDzZ4ntW4pDc4xhEDd9yrGQ1xZkfchMlqGFiNsFjNyEpE8jm0PqSyHPs7NXohPw0jdSD2ObHUsFdLvxrHcnLTeo5MDvnC2dNyQO8gK+JI9Rmz1zX9en7N9h1TfUY5wCm8wuaZF1w9Y5yrrTQmbspwUWZVZjhy0FWhZ6g3Ofb7DHEwC+/BmdZN6udxZ3x9Rm/nJk7k9A4rgKIeHHT0WVNmg904TlZDvJZfPYLjHyNnhIP+/vpV353UTeph6Fju1yZqsCJTHYg8T72PdJx41mWT1SyscunT/8pHi3NWziCDSAfH406/ZPKdQfI1Ji20McglypL3yQ/sEy5HbYO5z/U+R3oujz+8+8GOvgDvX/TN7cX6k76btgO8n5YDTMdKI1hPw+A3BnQ45H3+ya/qWdoA1f19bKhe+dThZ0zrO+9Tb5AP9UplygQJ6o2mDb3As/p/xAnnT+WEHmRyid7Xc+qQhsc5q2HRM/qchtnnNEnDSmWv9XxsG6wyy+lijTv0HuVUKs8Ijz4YEzuCUWTO6ivqJo4wyjHKnLqfc15rO0A4vE8akCHh8J6ygU5IV2svS5/lGFE9WZOlyjXta5NX6gT5pI+gfVRkltPbhKfyatE/1jS2OMfJq3nRfJJXypYy5npffWjdbraqm9qfom/CKuxgHN63ff7MCbfpRKHcuAN5R10iDCbtRZ3RupT2jQ/43OlFpyR8LNo/TrlHD4bzm3YEnaY6Ts+ZcPLmL3+9i25M2dJ8h/xgI31uPX5rHevri61H2hynDU1mwAyYATNgBsyAGTADZmDzMbB0J2IMuhhofuWia2acLTgF1BAUWx6loGHQCSMt4TDITbc/feKZF2eceGOMJsSnA8WhA0QdwEU+GVjjwNT0sZ0rDqN4hu1w0jzGbzXgYOTVbU0x5Oo2phjQ13Pm6SrITI3OGITSbS2RGc6cMHjUDOfKY5QXRsbUGHjvAz+bOll22/PAXVaLpU4/DDZwEOXMkbRhgCJNxPXnu+/XMetZn4lzVjoRD8/l8hnPccSo+8ab5RnJbMHK9laEhVyQD2nRMOIcjtfqe1tq9EqNdqkDsTbLXQ17tfqsHOf0Rq6eYyxmdTXpClmlacRpkZvVr8bLkvxh5cgTL5zqjH899eJdnAsRbytmVWbBPnJm9U7ExVHZ160a9RnOCS/qXYlZDKY4ZiK+IY4jzS9xpPHWfsMZujPixHGj5cj7cI8ej/SzTTDf6suF/e3v3D4NK1fP9R3q5VjHmr6/6LmyXNOFGle6+p02OJUZvy++/IapI4W2mq0dNZy+c3QmnFMu8PLozmcHv6uTIoj3tPO+la176Dm2Ic5tW8k9bV9hn5VKqW6kLVBHIxML6H+keVO9EqzBum5nS9jfvfVHU4fgu/c6dJe0Ke8RzphjTqelaeW3roBK9W/u+bjWsg1WmdXSrXIp6QENL2SG4xYGIv0cdz79Qve+/39ygm7XqM/glGeiG3UoZSKeY3JChEN86Ia4VzoOyUfp3b7rGm5NlhEOcgknTKkeoRtx3uBcC5le8I3rd5GJ6pp4Dn26SP840tniyCSxSFeuDdA46ANpn17vtW43New4n6duan8q8kmZMslO+6LkC33OPZ4rtXW5uoQDMu0f0AdHfxMWYTIxKvIRx9b94whX8zymfYv3c0fVbyFHJiTknl3ra1rH7ETcfAaatebJ8ZkhM2AGzIAZMANmwAyYgRoDa+JEZCCZc/yROL4VhCGawZl+t0MTzuztGOAymzY1XsazDFbjuc8ee86gWabxrg6QMb7E9b6jDuBIf8khQBisvIkBaF/a0ln9+33m5Ml30whDDbm11Ul96W51bxVkpltb8i2tXN7UOE0Z9Bn21PCGo4jVNznjETOYKcco09SIqVsgYVRUw3GaRpXjGedduYsxjufVUMUs8Fya0nBLv9UgxTf8co6u0rvLvK4GIDViU9+1nGsORNKo8qrVZ5U/52kec/V8+813ZMtJJzzkjNEpi+jFkkGa7wjyrUoY63OqtGJWZUac6Jicc4Q8MOEj2M/VJ5iKbSmRQ9+qTOVxyBaWmt+03qVll/ut7UTfSgnyqdyV9Iumh+9K5eJclWvK8lAjK/VPV7H0MQvLOBSCjZIjPScPnIZhfO5zmqfv4tzF8E2ctP99K7rTd/W3xo9sdAKPPsc53zakbY585pzfqld4ruRgxqAfjvSczlC+Ir4xx5xOS/PDb62Hqn9zz+q1IXUk1Xs5nUGYKrNaulUuJT2g4cEG3xIu9R/VqVSLW/OfnmtfjzSm99PfQ/KRvjPkt4Y7JD/UXfofwRaruvomPDBBIPrbOceT6hrCbNE/HpLvIc9oX6Nv8taQsFq2m6X45qmbmkfkT1mhp3Jlmur4XP3UukR4tJ2lrWzju7Y8lxvvtO4fh9w0z0Pbt3i3dEReOA2DdSaQlPJdCmNZ17WO2Ylog8+yOHO4ZssMmAEzYAbMgBkwA2YgGFgTJyJbyOQGriRCB0Elw5UOXi+58saiUUZXa2GU09m2keHSUeMYYvhJ084As894qUaA2mAv3VINo6xuY4oxpmQ0K+VvGdfXW2ZqMGC7snRGtOYZowgGDf77VoKq4e2q639QdPAQtj6blgdxDImPcJTbkiP9rnsfnq5WwSnJygnN35hzjQ9DCyvLxry/rGe1PEMXoDfQHyFL8k76a2lQw16tPivHnKdhq46q1XPeVWP0Fd++ZSY8VkCx2oj85FYdpXFrWDnDHs8rh4swqzLDmdPnRKnJTCeH1HSxOuRzTpRUJprftN6lz6a/UwcoBv/0Gf2t9S5nDOVZLSPSVnJSaLjrda4sDzWyats1xMmrTr2hcSAPDNzUCxhg9cdQGanButa29oWpTJcmc+j76ozOxavh1Sb9jGVayyQXt6Zz6LmGGfq39q7q7BZtsMqM8774h8hMw6OelvqhxKPP1uLuS5fKEYdD364AhDMkH33xle5puEPyw/bubN1LHeybtBLx6UQR2sVUF6uuqbWbKrNWPEc6c0dtc8gv34eed2JWy3Yzl1auqXzmqZvksW8cRhzaR2ZiQJoWrR81faZ9TPps6fbArfvHkVbVR2Panni/78hKZHbxKE366nt3Wfe0jq1FvVlWPhyujVJmwAyYATNgBsyAGTADZmBjMLB0J2JtIKeDoNLgWAevfU7Ehx97uvvLfzhgYgSpGa5TQDUOjC/p/dzvIWmP99QIMGSwp99HxGkYK5JqxpiIby2O6y0zNRjUDJg4czCk8D/UiZgaxYbKFKNhbHc3xCmiK1HgF47TuNKVL+QXw1dqnEnfy/3GkMqWViEP+Dr9vCsnqyXX00Ci5YkueOb5l2cciKWVcbk8qmGvVp+VY87T8MbUc95VY1wat66qLjmlNH5d1ZIz7PGsGovnZZZwWspM6xvGe81T7lyNiqnjNX1+kfxSXzBqwn5uG+I0LnX65oyhPI/DlNUsUZ9wtLHt4ZDvLaXxLfu3slxrmyMtyiCrk2o6InXU9n3rOOKgXGLL8jGrF9O4So72iKd01HByDpHce8oGK7HSLa9rekXDHMv02P6ExlU61zBLfbH0XdXZLdrg1jIbE16at77f1AEcCnff9+jkO6p85zj+iTN21xjS1xtb9n3p0nsaLmnSe7lznfgxJN2EoXo77ZurrqnxpOz1xZ37zqt+5y7O+d5n3+4PpF1XUlLn2ZWBCVV9juac3Fq2m7nwuabyqckywtC6OUTX64SZXBmMqUu6ZX4a9zL6x/PmOd7bqEetY7ky26j5cro3hgHJ5eRyMgNmwAyYATNgBszA1mNgQzgRGaQzyMdI27edqRoFSt9XLEGuA2SML6Xn9LoO4GoDezUCDB3s6fcRw0D9uePOXZmVLustMwx5GLVDNqXtBlOnWd/qIzW8zeuQUUcFxkTkFAbG3BFu99r/mEk+UoOL8gZD8b2iyDP1gtUD515yXbfzqReqBv4IDwfd3gf853cRIyyO79rrkMmWbzix552ZH3GMParRa/cPHDyzhSIOnJpRUONradgbU89JQ1/c6lxjO7AcD3qNco3yKemlFszW0q2y5VzrPufpfd3i8LjTL6nmk2cin7nwNPxF8qsTTVhtc92Nt/emjfuxxWZJx6OH+CYf2x9HHjjinN/v4JMn3w9jEoDmYb3OleU+XaPpq5W1PhvnujqzVp68o6v6Sno8wtajTsCoObH0vfRcdc9QufQZygl/jNzGMj1PfyLNc/pbwyyxnr7Tug1uLbMx4aV5y/1m9R2Td2BN63rpfEhfb2zZ59KVu6bhDqmDfe1WLnyu9U2YUV1T40nZ65OZhlmSOdeH1GH6haede8V0bBHh8a1Hxhm0w+iFUt7j+hi5zcujyqcmy0jXWJ2mceTKYEza++JeVv+YfPfFG3LZTEetD7ky20x5dV62noHKZe4yNwNmwAyYATNgBszA6jGwIZyI+m0wnCa5bUP5dhcrlTAE8AxGyTHA6QAZ48uQd3UAVxvY1wboufgYEPMdpTBuvOM9n+geevSpQWnLhdf62irIjFUurPZDRrktGDFy8j02DPo8k/t2j8pFDW8Yh/Te0HPlIspu6LFm/MJwzarByE8aLqt5dtx1/yBnInz1GURx5PHtv7Ez84fKKX1ODUDUpyuvu3WaT/KLUz19p/S7pWFPy7NWz0lPX9xaZ9Kyq/0u6aUWzNbSncpZ88F5el/TVMtXej8XnoavYY+to6qH03hrv2tlT9isZokJLxoeDsbPf/GCjtVrmpe1PleWa7om0qYO4VrZxDs1PuI5jvo9rpp+1vc4nyc/aRj8VsP2ULmovsq9M0YGY5lWjlsZjzXMGusqw5ZtcGuZjQlP85Q7L0280Xqeng8pm7Fln0tb7pqGixxyz+g1neDCu3qvdN7X1mndrPGk7PXJTMNMZa2/c/Uxlwf6h/SXYhW0hsE5/Q76W/S7cu9zrU8G6Tvz8qjyqcky4qzpp3gujhpHrgzGpL0v7qFlmJYFv2vl2hdv5HMzHVWWuTLbTHl1XlbPgOQycZmYATNgBsyAGTADZmDrMbAhnIiAiSMonEUYaffZdkJ39fbbJs5CtjBi9nAMOg86+qxBM4gVeB0gDzWg6ACuNrCvDdA1LZxj3MBZmhqkvRJxtpLi4NLViBh9jjn5qx2rDa+/6YfdtiPOnMoQWbJiKJW1/lbD21gHRYSjXASTQ481I0nEgbGEmfJHnnjh1NEWcZBPZtgPdf7x3B0/fmiyLWZuhcUhXzi7YwVGxL2soxqAqE98o0nrAE5ittwaEn9Lw56WZ62ek7a+uFXPRHkNPZb0Ugtma+lOZa754Dy9r2kamr94LlufP/IAACAASURBVBeehq9hj62jqocjvqHHIWVPOpn0gp6hjUr1N+3UkO09Nb8tz5XlobqmVta59OlKxNr2tPc9+Ph0O9gh3yLU+OZx/un7ca66Z6hcdCVibhvqMXIby7Ry3Mp4rGEOZR35tWyDW8tsTHjBQu6Io5u+V+iKd+7xqUn/IudcUjkOKZuxZZ9LX+6ahosccs/otb52S5/Tc12JmG63rbqmxtNYmWkaWpzT32YnB7Zn3XPfo6blHOXNDhCkMRfXGLnNy6PKpybLSONYnaZx5Lgdk/a+uJWLkO/QY00398UbctlMR5Vlrsw2U16dl9mxr+VheZgBM2AGzIAZMANmwAysBwMbwomIkQpH4ZCB5meO+UrHFmdjhakDZIwvQ97XAVxtYF8boKfxsZ0kA2byzJEVGpxjlM6txEzfX4vfqyAzVgfECtQ+PlgJhNxqW3Sq4W2sgyJk/tobv+w+edjp07IrGZ/i+UWP1A++5bPfZ06e1hEc7j+8+8FBHGv8yOeRx5/pDj/uvBkHyJgtBjW8MedqAIr6lNb93GrTXBwtDXtj6jlp4dtQwWL6nSgcSHFvqJ7J5U+vtWCW8FrKTGWAntD0Lnq+SH75bl3o0mBs0fT0vY/znckMOB2i3Fn1gvOr771l3VOWawbZSIOuUEodBfGMHvkWJN/7JL+0V3wHVO/rOcZ7HIc8y3clcSjq/dq56gzCmNdBq9/pqqU50vSzJ56bfFeTeHPfy9T2sVYHxjI9tj8Rae47aphj6kbLNri1zMaEN1Q21Bv6Z6XnVY5DDPtjy74Ub3pdw63xx7v6vV6+6UydSMNMf/dNFlBdU+NprMzSdLT+jX6++PIbZiYnlj6l0LLdLOVD5VOTZYShunGIrte+CduLo5sjLI5j6pK2s7S3+r3YZfaPx+ZZ87cRz7WODdE1GzGPTrONY2bADJgBM2AGzIAZMANmYHUY2BBORP3W4VcuuqY7/9LrJ9+Bi1UebPPJAP+uex+pOolK8OkAGeNL6Tm9rgO42sBejQC1wZ4a5cgj+cdoFd/mGru1Y6QZgzZbRGL4YUVXzaEW75WO6y0zHExHn3TRxACNkYSVqV845eIOHsKA/fd7HzbZjuqpZ18aVKZqeJvXiYjxJVZHUn7zhlOSe+k68oh4yT/lXHq2dp08XHr1TRM5EhZOAZwDtfe4Py9nagDS+sQqEN1S8R8/cnh1W1/4jpXLfd9HJa0YTMkj/zlj65h6rlszEn+6cnKMHhgia55pwSzhtDSGElboZ5hMDZJD85Z7TvM71mmkjA0xrObin+ca3/PE0QRjOS5KYSI3dD91mdWNsFh6dsh1ZXlo/rUuDXGA7nz6hY6tkMnru/c6tHcLV/RyOHVLRvpavlQ3/OupF3e/euvtuWSkDpEhKyLZ6jn0Rk7HaPuY0yuaL2V6SHuxDD2iYar+1XSm563bYF3ZxqqwNL74rX0kyqAkszFlEGHnjqoba/03lWPtWeLSsh+rz3JpjWsabo0/3lGnOH3NR3c+W5Q/z7MK82MHfnFSB/j28z33PzbzvOqaGk9jZRZ5XPZRJ/PttueBExmlcSobyDy9r7/n5VHlU5NlxDemraOdickc1CfqYYQTxzFpZwJb9L/SviNxRT+1df9Y87zIN3Ijz3p89bVfTJhv2ZfR8Oc51zo2RNfME4ffWR2DjcvCZWEGzIAZMANmwAyYATOw3gysvBNRVzWkM1pbCk8HyDVDQMSrA7jawF6NAH2DvdSpwQpMDHXEee0NO6aG+aErsiKtzKwOgw9GAgbvi65oXG+ZqdErN3M68j7mqIa3kmFySHh8kzOcKAd87vQ12Q6UdM1TJqX8qHGsj1l9fxHO1ACU1qe0XrD6FEOyxq3nWt9Kjg/CDCd0OAOQn4bD+Zh6fuc9D0+3l/34IafsUu7EyXXiw8jGNs1pfGN/t2JWy7umA5WznMzUOYSzqm/lztj86irHIc6eNPyLvrl96vzBmBn6NX2u5W9lm7Ifqluuu/H2jlXUwWeN+1qaleWhTkTqdHwzrNZuIEvdNaDm1GOFM3kj3LHfMY68qsF63gk2hKXh1NpXdWKV0l6rI5F+jmPrsOq3obpZ48uda5ip/s09z7XWbbDqoJJTmVVN/3LQSdM60VefxpRBKY9c13T1yZvJApq2vmcjvkX1WYSTHpWpnI5On9cJMMhU+57pszhSdKvxXFunuqbGk7I3RGZpepb1W/NQ0pfKxqLtZikfKp+aLCMMbXNKaY9nH9v5XMeWrZQ7R37HvTgOrUu69S+6kXFLhBHHZfWP4ZKxAPngv8UOGrRp515y3bQdPvCos7qfv/LGLnmKvK3lUflcpXqzljJwXDakmQEzYAbMgBkwA2bADJiBtWNg5Z2I6UCYbRuXAYgOkGuGgIhfB3C1gb0aAUqDPQbAF3zj+ukAODUYM5iNGbwMkDHs6jZBka7cUWf4xwC7tkokF45eW2+ZqUzZPnSebWw1P5yr4W2ooT8Ng98Y3vc+4NhpWX7q8DO6x598vsguznKM2Bhlc+E9+czPJ2Xdt3oUFnBYRvnmZpNP0vbSax2rhfqcJzi71BgzdFXjIpxpXc/VJzXck0eMtSX+9XtlOccH7+kKxJBZztg6tJ4/8MgTHaskCYs4WUGcK0udDMA38lhBi+Et9yw6AcP0D354X3ElaCtmWxpDSfeXL7xqyiKGSVbZlPjlOuwPqXM8g3yRM04jHLHEp/KDbVbGwJRe51wNpoRz7Glf613hR13YcedPs6yx6o3tf1mlkMYTv0kb3xyNleSlFS3xfByV4eCTY98KrXi3dFSWa4ZlDYNVkCpzVrSnZQnDOGjjOfL70KNPFeWiDvWSo1/TUDpXvYF8yBd1L6ffKAvKH32ahkc4fE85ZE1dpk6nz6V6tvQNZm0fc3pFwx1bh7XtK/UnNPwh5xpmTv/mwtB3WrTB6pTMOYSpa+HQjnLiWNIbY8ogl7+4hi5htR1xse3ujrvun+EC9qkTsKfpGlI2i+qzSGN6VKZq/MW7pAW5kwfqMTt/pG0T9Z4tmuM5jjn5q66p8aQcDZFZpHfeI3mCpVz7EGGm+fzQJ4+drESL+3Ek71HmyDyu547z8qjyqcky4lW92KfrU8c3Y5C0PSXMIWlHrjATbQBb7L/86q4Ot9b948hzmk7aoJ9kxozIhutDdtfQySVRzrRzGud6nWsdW4t6s175dLxrZxSyrC1rM2AGzIAZMANmwAyYgT4GVt6JyGBWHWcM4v7mfdsmxnqMfB/99PHdiWddNpk1fdp53+q2f+/OidE9NwhGEBh7mVXKLGv93/fAE6eGgPd+7MiZezyH0SQVpA7gagN7NQKUBnvfv/3eqmEmdaT0zRbX9KoBIAbCf/kPB3QPP/b0LvnS91ZZZs+/+OpkW9vIDyt2/u6Dh07ZwEkUZXzu1749+eYPhus0f/pbDW85w5g+WzvH8JgaFd+11yHdMSd/dZou0sjWf2F0KcUZ5Rd5PPz486dhwD8OS12xxG8MNbk0htGLOIlb5YS89jv45CmHyLY0Mz0XdqQzyoTjUM7U6FWqT7qtL2GT9lKZ6ooz8rrX/sdMdMW2z585zR/XkSVbXxEe6U/zpfWcZ3D88Q7Ov1tuv2dypE6H/AnztHOvyDoxCBtD23FnfH2qbwgTQyxyD17hkPQSF/dLOoPwWjEbXBBfC2MoxsP/e+ipM/kkP8obdQF9GwbpWrzkl3D1+5+kl22LeRf5sSqGeEoMEQbtRMTJ+5TZHvscMQ0jwqGt4X7JCKvMEidlFukgDPJHnSeM+Me5WmqfSFv8p9zF+0O+S0gYfOMseIojEwNwghAWK2GPOOF3eoRnzrzg6kn7GWmII3WMcos0cGTb6NBDHINV7iHbG265c5qXCEePapxd1ChL+xoraSKNKWtwEVtdl/Rsql9SLpi4EPWceNiilgkZmq84V12Y0yvxHEeYiXSX0qbPD+lP6PPpOf2ZYCKOsBBbEMIIrMQ9jvSbUmd56zYYpzyrV0MWyBqZE7/KHr7YujyeK8lsTBmkMtLf6vAmTk2Xtifc+8N37D1lpE9vR/iL6jOcQNRbLSvO0ashH/q36f3ct0pxvPNcvMdR6xH6LCZDcI/6ccm3bsxuIaz6q08XI4dFeQ5ZDj1q2tAJOo4g/+iz0BWRz9yKOuJr3W62qpvaNpEH6gyssoKUfgvxHHnihTPt4CFfOLvYn9K6RLnT1uEwZFUh/zAY21gTH/qYci2VScv+scbxxDMvTsYBpCHKLvp+9JU/fMBxkzwPqZuEq/mOMIf0UzRNyzpXjofmZ1lpcbi/67tZFpaFGTADZsAMmAEzYAbMwGZlYOWdiAgex5mu6oqBXN8R4zXGlbTgdNDV9356Lzdo1LAWNZKkxss+Q7M6GxnMD9mW9L4HH58ajyNvpRUUG0VmpJPVTWq8jryVjhj/zrn42l1m10eexxpz473S8e77Hu323PeoGaNcKW2UZc6wR9g5Q0YpHNgvrdAjLDV6lcKI66S9bzVRmu9FOFOjV199Yga5GjJLhq+c4yPyxRFucCapARM5p3nCGcuqYH23dE6Y37zme0UHYoRNXlndqQ6JUphcx4Hzxpu7rqojvFbMKhc5fRdp56g85mQWz7740mvd5794wdRJ3pdH7g11kMFkrPoshdnHEE48VjC+c49PDSrXkiNcmS2lI65T1jhicivkQl56TB0qhIMhuOQw0Xc51zKKNNSOJWcp4VGfcNygp/rCQaas3OxzlGreqMu176+lecv93vnUC7s4l0vp7JMhbA3R2aU+RqRN5d9XR3h+bB1WnTWP8VjjK8kovV6qT63b4HSiVJoOnBN8/1r1Vak8x5RBlFvpiMxTR3WaNpigfUJW3BtaNovoM2UhTU/f7xKT6CfdvrEUBm3dVf+264rkkF/L/nGE2eqoaSvlL66TTyYMlfSZctii3WxVN8e2TfRHeKckY61LIZvSkUk+6ONSWHG9Vf84wosjK4XTCXxpWofWzVyftlR3Iv61OirHQ/OzVmlzPDacmQEzYAbMgBkwA2bADJiBzcfAhnAisk0lM2YZBGLAZLYrBuT415VcOlDMbfepgy59tnaeMw5oWCUDW1QaNfSkg710JnppC6AIC2OGbhWIYRnHYtzPHXkHwy6ywpi97Ygzex1NGobmsyYnvb9MmUX6dAtJ5MB3M4MLjjqbXNPGSjEM2RFOHNWAUzJMxrNDjxjlCItvPMXKJtISLOMgYlY4HJTCZOstZn0zYz7lnfKEv1PPuWLiECsZuyJsVo+w8oeVOazcVEdWpAlnwV33PrzLloURRum4CGdq9KrVJ3WkI0tWD+ScM6z6u+r6H0xWmYXzg5VhZ3/12ukWllo3S8Yhwv7pQzunZaBcwR2z29nysa8MczJ79oVXuvMvvb57/35Hz6wIwHDJ7Hlm9zPBIN06UsNqxWxrY2ikESbYQhI+KVflLVaBsEUnRscauxEmR5xayDxWFmidYvU65VoLD+bY+lJXqREOaaRuHHXShZNVGyXjKjqErWZZtcWqNOWCcChH6iwTPdCjmv4h57R9rMwiPTjbrtm+o5qnCHeM0Ze08t/nRCRcLUtWf0adIp/IEFmWZBXp4ojTMCYC1L6bqO/VzqknOHHQX6onVa+xtWxOV2jYqrO1TNHfhE0cfXWSsFT+Jb0ScY6tw6qz0v5EhNl31Pii7GvHkk5u3QaTbuo2jqxYxUv5sVKYesQ9nlF9VWqrx5RBn7ziHnWYtiPShczgQ5nQ/tKYsplXnykLtTLU+zUmo23CoR46e0xbp3IosRNy1TyMkVm8P/ZIv2D7zXdMVhzST0R/qWwoU/QZ/bLgrRSHcki9Kj3H9SE8tqqb2p+i/qC7ohzJK+eULf0Pyrov3WnakU8qszG6UeNSXTtv/1jDi3P4I2/KL3mGRcZPrFiMZ/uOtHmsqme3CvhHL8FP3ztrdU/r2FrUm7XKl+PZfMYml6nL1AyYATNgBsyAGTADm4OBpTgRW8LBQDi+U8RA+NKrbyoa7xjsX3fj7TMzUEvfhWuZRoe1PpWB2fthiOaIYTdXFhgBWJWKowmGMKAM/S5ZLjxfW5/yttwtdzOwORiIrYbZPpNtTV2uG7Nc3QZvzHJzfdv85aZOxNrkkCE8DHGADgnHz7Rjz07EdrI0l5alGTADZsAMmAEzYAbMgBmoM7DyTkRm+Ybjh5VcQ2aAsi1PzCquzQw2JHVIVlFGOAb1W5lX//ttVUP0S6+83n3ok8dO2SitXljF/DpNG5NTl5vLzQzMMsD2wOwSQBvNap/aSh/Lb1Z+qyIPt8GrWS6rwofTsb582Im4vvJfC/7tRNz8ZbwWHDkOc2QGzIAZMANmwAyYATMwlIGVdyLq7NchDkG2l2MLunAi1rZsGiooP7dalUoNJJT1EIfgk8/8vHv3XodO2GgxM9tMrBYTLg+XhxlYfQZu+sHd04lBQyZ/uExXs0zdBq9mubi+uFxgQOtni/6ujsU8rloNxuxEXI1ysM51OZgBM2AGzIAZMANmwAxsFQZW3ol4xbdvmToEP/DxY3q/Y8E3iviGCd+twLH057vv19334OPVFWpbpbA3Uz7fePNXHd8SDGfxSWdd1rtKldUufLcsnvcKGCv5zVQfnBfzvBEYYCcBdhRAD/P92qeefcnt89sbk123wRuz3DaCnnAaF2fLTsTFZbjqHNqJuPnLeNUZdPrMoBkwA2bADJgBM2AGthYDK+9EfGznc93f/vNBU+cPDsJtnz+z45tKt9x+z+T/xlt/1J16zhXd3+992PQ5tkC97JqbO7bcMtSbE+prb9gxXdGCUZrvIh5z8le7q7ffNmWD88OPP7/70932nbLBc/c/vNNcbFDjtevz5qzPLleXqxnYWAy4Dd5Y5eX6tXXKy07EzV/WdiJu/jK2znYZmwEzYAbMgBkwA2bADKwSAyvvRERYd937yIwjMVaTlY7v3ONT3Xdv/VHHysRVErbT0rby//Kt33SXfOvG7g/+bM+pg7DERFzf7zMndzimXRZty8LytDzNgBkwA1uLAbfBW6u8Xb83TnnbibhxymreemUn4uYv43nZ8HtmwwyYATNgBsyAGTADZmAZDGwIJyIZx1jFd+/43uHfffDQGccRqw53/8DBk3usTmTwvAxhOczVrIQvv/pGd+V1t3ZsUfo379s241Bk5er79zu6O/OCqyerD+1YXs0ydN1yuZgBM2AGNiYDboM3Zrm5vm3ecrMTcfOWbdRbOxE3fxlHWfvosjYDZsAMmAEzYAbMgBlYBQY2jBNxFYTlNLjSmgEzYAbMgBkwA2bADJgBM2AGzIAZMANmwAyYATNgBsyAGTADZsAMbAUG7ET0d+G8atMMmAEzYAbMgBkwA2bADJgBM2AGzIAZMANmwAyYATNgBsyAGTADZsAMzDBgJ6KBmAFiK3jOnUfPEDEDZsAMmAEzYAbMgBkwA2bADJgBM2AGzIAZMANmwAyYATNgBsxAPwN2ItqJaCeiGTADZsAMmAEzYAbMgBkwA2bADJgBM2AGzIAZMANmwAyYATNgBsyAGZhhwE5EAzEDhL3u/V53y8fyMQNmwAyYATNgBsyAGTADZsAMmAEzYAbMgBkwA2bADJgBM2AGtgIDdiLaiWgnohkwA2bADJgBM2AGzIAZMANmwAyYATNgBsyAGTADZsAMmAEzYAbMgBmYYcBORAMxA8RW8Jw7j54hYgbMgBkwA2bADJgBM2AGzIAZMANmwAyYATNgBsyAGTADZsAMmIF+BuxEtBPRTkQzYAbMgBkwA2bADJgBM2AGzIAZMANmwAyYATNgBsyAGTADZsAMmAEzMMOAnYgGYgYIe937ve6Wj+VjBsyAGTADZsAMmAEzYAbMgBkwA2bADJgBM2AGzIAZMANmwAxsBQbsRLQT0U5EM2AGzIAZMANmwAyYATNgBsyAGTADZsAMmAEzYAbMgBkwA2bADJgBMzDDgJ2IBmIGiK3gOXcePUPEDJgBM2AGzIAZMANmwAyYATNgBsyAGTADZsAMmAEzYAbMgBkwA/0M2IloJ6KdiGbADJgBM2AGzIAZMANmwAyYATNgBsyAGTADZsAMmAEzYAbMgBkwA2ZghgE7EQ3EDBD2uvd73S0fy8cMmAEzYAbMgBkwA2bADJgBM2AGzIAZMANmwAyYATNgBsyAGdgKDNiJaCeinYhmwAyYATNgBsyAGTADZsAMmAEzYAbMgBkwA2bADJgBM2AGzIAZMANmYIYBOxENxAwQW8Fz7jx6hogZMANmwAyYATNgBsyAGTADZsAMmAEzYAbMgBkwA2bADJgBM2AG+hmwE9FORDsRzYAZMANmwAyYATNgBsyAGTADZsAMmAEzYAbMgBkwA2bADJgBM2AGzMAMA3YiGogZIOx17/e6Wz6WjxkwA2bADJgBM2AGzIAZMANmwAyYATNgBsyAGTADZsAMmAEzsBUYsBPRTkQ7Ec2AGTADZsAMmAEzYAbMgBkwA2bADJgBM2AGzIAZMANmwAyYATNgBszADAN2IhqIGSC2gufcefQMETNgBsyAGTADZsAMmAEzYAbMgBkwA2bADJgBM2AGzIAZMANmwAz0M2Anop2IdiKaATNgBsyAGTADZsAMmAEzYAbMgBkwA2bADJgBM2AGzIAZMANmwAyYgRkG7EQ0EDNA2Ove73W3fCwfM2AGzIAZMANmwAyYATNgBsyAGTADZsAMmAEzYAbMgBkwA2ZgKzBgJ6KdiHYimgEzYAbMgBkwA2bADJgBM2AGzIAZMANmwAyYATNgBsyAGTADZsAMmIEZBuxENBAzQGwFz7nz6BkiZsAMmAEzYAbMgBkwA2bADJgBM2AGzIAZMANmwAyYATNgBsyAGehnwE5EOxHtRDQDZsAMmAEzYAbMgBkwA2bADJgBM2AGzIAZMANmwAyYATNgBsyAGTADMwzYiWggZoCw173f6275WD5mwAyYATNgBsyAGTADZsAMmAEzYAbMgBkwA2bADJgBM2AGzMBWYMBORDsR7UQ0A2bADJgBM2AGzIAZMANmwAyYATNgBsyAGTADZsAMmAEzYAbMgBkwAzMM2IloIGaA2Aqec+fRM0TMgBkwA2bADJgBM2AGzIAZMANmwAyYATNgBsyAGTADZsAMmAEz0M+AnYh2ItqJaAbMgBkwA2bADJgBMzAHAyeddVn3X/7bu7pPH/Gl7vU3fmUZziFDD9b6B2uWz+aSz8OPPd395T8cMNEbt93xU+sM6wwzYAbMgBkwA2ZgZRlwv2Vz9UM9rnB5LsKAnYhurFa2sVoEbL9rxWgGzIAZMANmYBgDL/z8te5rV3xn8s+55TZMbm/+8tfdZ489Z+IMOO70S7pf/+Y/LLs16le/+vovuiuvu7U792vf7h5/8nnLfY3kbt0wTDf0yemuex/u/vv/3Kv7i3fv3z3wyBNm1+yaATNgBsyAGTADK8uA+y2L9/36+oWle4wr7394Z/el86/qbrz1R92bv3hrZRkp5cHX14edZcrdTkQ3VlZEW4gBVkmwWoJVE//r/3yie+DRJ7d8+X/j6psm8kAmnC9T4a562CoL5JH+H/+lS1daPjg/9vjoEZN0c1wlZ4jKdqtztur1YKul77kXXuk+uP8x0/q+9wHHdi++/HrTur7KdXOR8n7ltTe7fznopInszvv6vzWV2SLp2uzv0pc56Oizpsz+7T8f1D228znLfwv1Zzcy4xiC6F+9e69Duyef+bm5NbdmwAysNAPah0vHhvy2TWHzGYmHtrHYkij/HBdcW7Xx+NB8LfO5jSgz91vWp46zW8Uf/dVHpvXryxde5Qmr7i+se3/BTkRDuO4QLrORdtizDZ6diLPygA87d34nE5VFbjBgJ+LvZDVWt6hs7UScX45j5e7n67JmgKL1/ff/+J+62+96oGnfQA1QG9mg8Nav/6P7yQM/69CF5OMP/mzPqew4xwF70Te3d8++8EpT+ZnjWY5zBpgrvn2LZe4xzUoy8PKrb0xWzX78kFO6d7xn1tjK76NOurBDD//yrd+sZPqtf2b1j+VheWw1BrQPp/3FOLcTcevWiVx/LLjguJH7/Muq5xtBZu63rEadZryp9el9Hzuy+UTfZXHucFeDoWWUg52IHnB7wLpkBlipcN2Nt3eHH3/+5H89v5lkJ+KuytzOnd/J5GdPPNfdcvs9M/9s0RedlzFOxFoHOcKMY4vviekgd9UGLevJGU6Pr1x0zcTB0do5tIyOicP8XZ1cC1nc9+Dj3Z/vvt+0nv/1ez/dPbrz2aZ9g1Wum0NlvPOpF7r9PnPyVE6hu3LHVdM/Q/O4UZ576tmXuvd8+LBpWbA15A/vfrApsxtFFk7n2urLMfLGKfjNa77X/elu+05ZzemLuOYJRqtblmPK3c+6HDcbA2yhx/hBx4jYNugvor82mxPxV2+9PelTnHrOFd0+207oHnr0KfcvCvYy7Fw/+OF9M2zQlv3Jbh+bsOH+8K76cJVl5n7LruW1nvqcianRR+R48DFne0vTgi5az3Jay7hXwa5nJ+IWh3Atgd+qcakzpYWjZBE52om4a8dgPZ07i5TlWr2r8rETcVd+hpaDypHzoe+1eE5nsbHaoUWYDmN+FlZNdnxv4ZrtOybf5+IbXZy3/rbfRnci8j2KMJbpYC7OcWJtO+LM7l17HWKjyRr1qzFo7v6Bgyfb/LCVrFdxbR6dtGo6cp70wOMpZ18+Y/wJfRHH937syG6/g0+eblW11n2DefLld1zPzIAZgAHt1202J6LtJYsxrrYvOxGHyXIVZOZ+y7CyWss2kO+/M6Gf3W749IgnNKxeGa0lD8S1CnY9OxHXyNix1nA5vtVRMNopsBNxdcol6sh6OnciDat8VPnM60Tc98ATJ8Y0DGqlf2brv/nLXy/k4NIB7aoNWlSOa20oXIXOxioz7rQtXy+vct2slT9b+ugKRL5jtv3mOybbyXzn+3dNnASsiuPbkoTFXoNd8AAAIABJREFUgG/HXfd3r772i4X0WS1dvr98bi1jy3heBtANbA2Nw5Djv556cffwY09PDO/xHdVLrrxxoiPYJvmRx5+ZbJU8b3x+z6yaATOwlgxov85ORLOn7Knta9XG45rOVTpfBZm53+J6vEp1wmnJ87gKdj07Ee1EtJFryQxop8BOxLwyXM9GYj2dO+uZ76Fxq3zmdSKuldNMB7SrNmhROa6VPKKMV6GzEWnxcfV04FqUySrXzVr+Wb0bzgC+RfH0cy9N+004AXASfOiTx3YvvfL69HotTN/fmvXA5b41yl1XsaAfLr36punqbiYbxFa83/7O7dYZSx6Duc5tjTrncl77ctZ+nZ2Iay//VWZebV+rNh5fVbmtt8zcb3EdXtW64XTNsrkKdj07ET148QB2yQxop8BOxFkluAqNwno6d1Yh/7U0qHzsRJyfX5WjnYjzy7HGq++vpmzV2LTRDApslRnbD6Y6MDry2478cvfGm79yf2rJ/SnX79Ws3y6X2XJ58pmfd6xYRm+kxvUYEzAxwd8onpWbObI8zMDGYUD7dame2+jlqA6VzZa3tSibaOdoAzdan38t5JOLY71l5n7LxtG9OX58beuUX9ge0K/r9ZmiLedERNBhDIoZoHwsevv37uw+fMBx0+9S/Olu+3Ynf+Wb0+2pShVTFX4YhvmWEN/POey4czvCIb4/+quPdJ/47Gnd//vRg9PZqKUwuf74k893fMz57/c+bDoDnjBI4+XX3tKxXVbp/e/ffu80HwxSL7vm5t4477zn4enzxMH7hM1Hpdl+J+TFOddK8cb1q//9tuk7a/nxVzqz5196fff+/Y6e5oe0s4f0333w0A4j3/U3/bCafvLBnuCw8snDTp+WIeHsue9RkziIK/KrR+1Qh9zGHIMhDbPlealTDG8nnHlp9473fGIuXknjvDLT/LGl08+eeG7CLOXF945iBQhy/Jv3beu+cMrFky2feFbfLZ1HfeQ93o/yiPJkBUlcGyL/Z194pTv7q9fO1E3kButsYVdLlzKiBum0DEjf3gcc291wy53r+q0nZBLy0fSW5B3Xc7ox7i1yRPehA1Vfkz7K4OOHnNL9+e77TdK71oOW1pxFG0A+YCHKAB3NKobDjz8/a4DU8op3hh7XWma0vTfe+qNJuUVbSVqjntOOlr7Nd9MP7p7qBuTx1LO/Wx1W4uvRnc9Ov2vH9+34XXqWLSxpO9H5IX/SCGOkmbSX3o3r0clTucIv4e6xzxHT9PMdPXRK30q2KFc1ZkTfBT0RaaQeoMsZDEY60qPWzRwbmt703b7fLetmi/akL61j7n3p/Kum9Y/vUgSTOA1pp5DhGN2oca9Cv0XT04KzZdRNbTdzzGq90PwMOafN5iP1aR8BXUt/kn4l7X4trAiHvn/0pei/0I+nP49Or4XR6r729dg685XX3pxwy5aZOjaJfsb3dtxT7btQJ9EdF31z+0QPan9K8/nYzuemdSTNT/AVE+p2PvVCt/+hp050oX6PlTp2820/nsiO8uY7MHff92hVfov2z9L0zvubfuxuex440Q3k64FHnpimHcch8hrDbMjtT3b7WHfP/Y9NwqKNOveS66bfYUVOtCVc6xsjkidYXbSvHe1I5APmvnzhVZPxF1yhKyMdlPMBnzt90k4hD/pw8NQn3xZtcISvfY2om6FH4Pijnz6+O+fia4tbULe2HZCuF19+vWPrOOTEtzHRN5Gm6GtwH7lGPoYceZ736Ktovyr6yEPDXKU2OM33vP3j+x58fDpGYKzA7zTs9DflhP6hbPj28Q/vfrD3nWgHFm1P0nS0+E2dyo2fqAOMYeG8Vi81Hdouhx7Q+6Xz0GfIlPPSc1yPfjTPkr6+Z5E943Dyou0T78L/XvsfM2mLdTeJCE/j4fkx/9GeRVi5Ywt9FmnUPvq8Y4pcGltei/YBOWp6x8QR9XweW2gunkXrZot2M5euuNZCZoQV/ad37vGpSbsy9JvhrfstkS+Oi9RNDSfOF+3rqe7S8RvMqT00+sg5Wxx1j3Y2dAV940hf6UjZnHHeldN3OI8xZbyj+jHC1qOmN94ZemzVBrTQZ0PTXHsu5EX7fNe9D0/KIPSi2nCw+wzpH0d82m/UvhRtC+17n40qwtA6HW0d5T3GTxT5UwaGno/RvfTT+XQL4xP66/GJlshLetzSTkQKhY+TAlipMOgU0SFJBRe/UzgYqB990kVT42AaLgUDwCVnHJ1/lBfPpe/qb9KFoSZVPKSLaxgpIwwqDbBGmvVI5xgDZITN98q0A0lnmUrJfQbENDD6fnpOhaPzFuGFozZ9ruVv0nvJt26cGlEj7txxiOKlEu2z7YRpHnLhoExwPKfy10Yp917tWiiYlvLRsOCLzi7piA4/Tl8dvGoaYQjjtjKh4cX5IjKLMDjqQF3TkTunnoWBQsPQ8xdfem1q5M2FkV7rkz8yoF6VZBVhYVQmXk2Hnisj8EidwXgRToAIR4/kdawhQeNc5FwbryH1J+JKdWNcn/dIXaPOaUOuMkrPxzSc86Yp3mvJ2dA2gPzmeNXySmVS+72WMrvr3ke6v/3ng3r1LOk9/LjzsvVJDTs8h2MvyqN0VNmUJsXAGW0r+rFPXhiVau0h9YUwkOvzL77a7bjzpx2DulK4//iRwyffxcqlP9IeehujdK3vcsePH8rKROtmLi1jOWhdN1u1Jzk5znONfkzISftTOH1jEkp822xo+KvUb9E0t+BsGXVT280oCz1GvdC8DDmPQZOGlTuvGQlpA9BVuXfjGm08fdVaf2pIumvPaF+P+sykgr5+Bn290869ojdtwUbkp3Ts6zdGGMiTSRwf+Ph/GucjLPpXOAt1MmTcYzLgE8+8mNVprfpnNbkOva+6gfTr2Cr0iX5HtRZuyI2w6CfX2hLGdc88/3JWVsTVoq8d7Qh1D2cMeYyyiiPjB9KRljOM4MzK5btlG0z4Q/safe2eyouyWNR2UNNnIT+O9AuILycrvYbccLz39TEiXPKg76bnq9YGR/oW7R+nNgqM6xF26UjZwyuyw2DcN+5s1Z6U0jLvdfQj350fMn4iv0PjUY7HtMGqz2osRj8a+feljf54OHuD89yxlE6NJ/de37W+/kFLfRZpbDGmGFrG8z4X7QNy69OtufCH1nPKsmQLTcNtUTe1HejjgXtDbFRpGheRmYalkyVIC/rr2ht2VOt1635LpGnRuhnhcGzV11PdRb2a1xanC2diwp6mNz3HFsAkYsqlNJFF9WOOM9Kbhlv73aoNaKnPamkeel/lRR1lol5fP2hIn2pov7Fko4q0a50mnfP4iTR/OR76rg3VvalDnDA/d9y5vRPmt7QTkdm4GIRC+Mx0oWIChDoK0m/gBBgcFY4vfvkbMw45wj7m5K9OwmRFVcRD2Kz+03A4pwBjVjvPovRRNKSJwRnKSR0NhBOrBmth4VFOO74oAmaNRrqIO30mhQplmcalv1UeQ1eH6PvznDOrLjr45IWZuMgdmfHPih2MD8iupniZpY1yCZlQ+b5+1Xe7W26/Z+JAUodrTv6vvvaLiZM44uZ4xAnnTx2xGM1xEut9PV/21kZqWGI2MLIJ2fF7DK9RVovKLMLhqB00ZnowYAv5kDbKNsqGI0avkkM+NVxQ/pTfiWddNgkT3tMZyShqTU+cEwfO/5AVYdFBxHHB/3FnfH1mcJarSxGWdlwO+cLZ3WeO+co0TwzwKBPSqA4C4h3SAYw4Wh618arVH41XdUFJrvp83zm6SidGUPaUHbKCD9Kls424P7Th7It3yL3WnMF0ME65axtAXmErVujm5IoOiToTR2a5R5gHHX3WLvfjuckMrdfKq9yHyGPIM6mBGO7JF+mgnmu7TLpL9YlZf5EvJq8wCCjFr20ZcmXgmXv2mu07pu0/z2074szJCnaeP/OCq2c6phhG+wy1cEn66Fuwmi3ab4605+QX40Nc59lSpy3qIXoaw2wYg0gjs6vRGWnfBX2HQyfNJ7OwyUuUO0dtp8bUndZ1s2V7kuZ73t84LuhDBGsMTr5764+6nU+/MN2ycIgTW+NfpX6LpqsVZ63rZq5vxQqeWHleMgxq3tJzJtelukb7j+gi6gL1s89ISJu+38Enz/CBLqXfePX22yY7WlBP4YcjbRn1Jk1Py9/a10M2mr5SX48Jg7fe/pNiuoIN8kAbFDob/UFbrP0pnoHxNE8RBis8P3vsOROZoKfoC4WMTjvvWxNjML/ZDUT73bmJiS37Z2l65/1N+V7wjeunTJCXz3/xgsnM3tgeeYjBKeIPucHQpw4/Y9pGBZuUAZMfQ4Y8d9JZlxX7xy362tHHgxvi4ohupG8Mc6Th/x56anfsaV+bnFOXaKejvaP83/zlr3dhpGUbjPNN67j2NZAZbTTtJ9f72j2VVwvbgY4DiJs0kBbSRFsO8yEn5IhzpG9WeK4d5n3C0TFPrM6Cp2ArPa5iG0waqeeL9o8Jh75c1BPkmusjhUyIU3dk6ltp0qo9ibhbHTEewxUcxT/2C9oErvPPWDv0N6wPjVs5HtMGqz7rY5F0RD+atJfSRt1QB2KaP+oAq43JYymd7FQV8uCIrSYmOqLb6CPrfT3HQZvTZaS/pT4LWbQYUwwt43mfi/aBcuvTrWn4jNXoWwSr1FUdB4+xhUbYreqmtgOL2qgibXqcV2YaBudav0KOsJM+l/5u3W8h/BZ1M9LZsq+numsRWxy7IGHvRs7oidpKdW1/SpNScnacfQ88cVonhpRlyIxjyzagpT7TNC5yrryzQhD9T3mgO8I+ktpacn6RSEMrGxXhaZ2e10+U46G1XU/TGTqjpre3tBMxhMSgh1mdOqjHaKQzJ0sdx5zQ6aBgUGLpdgCJcTMaf+LFoBj3OBK3OvRwZOEF1zTxHMpYG9e+mbmpcfvSq2+aCU+3MWWQVZrpqLMsSgov8qKGo9wS7Xiu1VFnzaA0mIWZyiziojxee+OXM3KPexwxumBgDy4YFKdGacK48rpbpwpqiKNUGekzRGlalnWuhqXIJ0oWNtWBTL6POunCqSxKq3Zay4zZSjTAhJuTAfKnox8NRGl1LOnHGB95LC3LJjxltjSYoeMYcVJX2PosTR+GeTq3EWdJZ2jHJZ4lbOqn8kbaWLUQz5QMLmk6Wv/WxnlMx0W5L8l1aFpVVyErGEA+6fustmBwhcxqjV/67jy/W3MG/7EFWomzSCedwqHfYNO2pzQIj3CXfWSruxiYo3swGKvuIf6o5+EoozwxyKa6XbcnLRkGIj9sAcdWcIRVMhypwRHOcu0Js8iOPLGuG4lX5R71GEdfagy894GfTY2uJZ2m9TDCwmiMPCOPHHFsMfGJZxjQxNYe+kzuXOvrmLrTsm62bk9y+Zz3WjqoQL5//L/3mQxS4HjMBKBV7re04qx13cyVm7altfqfvp8aNkp9bt6DS9r8nJEwNWxv+/yZk5mmGh96C71LGuGmNPtY31n0nDTT3wxdwRFOv3LRNTP9DNow1VP0+8hTLn5kUJIDzxMW/R7iIT5W6cK6hpXyFQN59Gr0n8KYjZGWdo5V1zg+CZN+uYbHecv+WRr2Ir9TYyjpx7Hzh+/Ye5IXxnJD2/BUboSFvHRbPjhjcgN6n/t8k7G0rXWLvra2GcQH37HrTThKacNJT0y4YQyGY5jnaadSB07rNli3os6N6bR8SVuuXxmMkWb9X8R2wKQIHPbosLRfE2nCmRdtOfHmHOjxrNYBns31M+JZtoErjfdXuQ1u1T+GuXA4oav6+sTUn/i2KX3y0hb4rdqTKKOWR52wRH5zfW7ig0P6kyWdkUvTvG2w6jPOc2HHNW2fSmUVq7thP9cGR1gc0bm0K3otd65t6Nj+RYTXWp+pLEIX5er6kDFFpHFZR20fho4pYLC1LbRl3WzRbvbJex6Z5cLTXeSCEyaf5p5Nr7XstxB2y7qp7VzJRrLWtjiY1e1JmXxQatPpW6tttbYwR8tGdSZ6QO/Vzlu1Aa31WS3dQ++rbIJ3FhboZwQIi/EL3PAMbWFuMnlLGxVxap2OtNGejPUTpbLQtqDULqbv9P3WflGk8yOfOr5j29rSe1veiUgHnUYhJyBVwrnBMO+kcDDrr7TdDsa8GNylzqTU4BIDsVy6KFD2rI1CLjkreFcNXxgu4lsawBKzezGW8lwuLq6lsyxKRkkaHpyMpIt81mZjlOIbc13lz3dVUmP0mLB0dkgYNnLv0wgwGA351xoBTWNa7rnwl3lNO8WkHyVa2q5Uje4l/pclsz4ZpI1wTnlq3aWu9ClBbXxyg5mUaxwLpfRpWZccFTroogxwqJS+y6GD5qGd8FLa5r2u8hnTcVFZRF2JI0ZCZoWiu2rfmsIwGVskw2tpCyzyp7JdC3m15Iz0w3LIiNlUJYPW2LJs3dkYG388n+ts9w3mKWvKHJnkJmwoGzxTagvTeHPPoVd0xnk66SbywBFmWUlDnH2GJZU7xmNWIOXKFOdErMohzJxO03qITPjGGvnXdMW5Gk5zOi2e06PW16F1R+Xfom6uR3uiMug7h6HSFoLkHXYYfJQGjxq2ynrV+i2tOFM2Fq2bKjs9V30/1siHDiBd/IeDQ8Meeq7bRjGeUKdOGobKdtmT7HJ9PXRaTv8M6euleSn9VmdgrkxUBow9YleWNL3o1+gbaDmnfZDW/bNSvua93rd1Ec6J7TffUZw0p3Gq3GC2ZChX+TMOK43XNOzSea2vrXqMNGH8Df2n6SUdusI12sW0nWndBitTizrutW9GXhe1HZRknl7H0ER8/Kfsx7NaB3gunO9xf8xxldtgLYNF+sdpf7A0SRa56STqvudatSdjymrIs2q/oZ/SehW86uacvi+lUfUD56XnuB76ArZzfeP0Gb7v2xfe0HuqP8bkLcJvrc/SfC46poh0Luuo7UOq60txLsMWutZ1s9ZulvLO9XlklguPcTW2Peo89YYJS32f2UnDaNVvIVytv4vUTW3n6FOski1ObUE5W0XIV/nuey6e16PqzFJfQJ+P81ZtwDL0WaRx0aPKBt6x4Zd41zY9XZyR9g1wCC9ioyJfWqdJ27x+olRGWq9K7WL6Tu03n++jrSOd2KZZzNb3zpZ2ImL863PW6Wzxv/yHA7qHH3t6F2EqHICRrjBQ4euzqTNJK8AQ44J29NOwNE4qhG4DiEOFfOlMn74tIQkrrVSl9KkhorZiUdO4yLk6WQCf2VfzhJc2+rWtydQhnCqhNP6+ck+fXfZv7RSjJPoGmzo4yHUAlymzmhy0vlzx7dkts+AVxU/++K+VpYbFeRq3cs3MbzpX6TPxW50BJQOOyhUdlNMrEZ4+myuDeG6ZR5XPmI6Lch9lkTvSyWX7q5JcNZya/NdSXq05owxVr2CkYlVZi7JdRmdjnnTptwD6nG8Rtg4a4CTXUdK2sMSHzrAqxaszzvtWcETa1FFXWiGgcr/q+h9MDawRhh712Vw+tR4Sd1/HVp/N6TSNN861ng3VNfpOSfYRfq1urmd7EmkccoRJVojHyijVaTCKUzBdHZqGu8r9FmVnUc5a1c1UfvFbmRpj5FN9kDo4Iuyhx1hxBQe172tpuZcmZg2Nt/Zcy75eLa70fugy6kO6Qlf5ot0PPabp5T3dvl3LmbA1vtb9Mw271Tl9Bcaa6AbypjqDc3TJZDu8wqQQ0qFyqzm9Q/6EnWtLxuRL40372qr/011x9L10i+5IX9rOtG6DtT+OLNDbOSf6EHkgxyi3FraDIXHyjMq4tHJVDZjqfB8aRzy36m1wy/6xTv4o9fd0IgztBHIOWemxZXui4bY4V4Npn61o3rhUN49pg1U/cN4Xf+iLPn2m/XGeL02w64snvadt0pi8RTit9RnhqiwWHVNEOpd1VN2V6vpSnMpFydao72ofM8f3etVNzUfabmr60/N5ZJaGob9Z8Y7Nlz6IXh9y3qLfQjyt6mbrvp7qrkVtcWqrQE+V7I6qj4fwreWkTKEH9F7fucaZqyN97+q9ZegzDX+Rc5VNrX+s4zDsbOiIiHsZNiqt04v4iSKNcdS2YNF+foTJkX4zMomxmd5Lz7e0E7FWCdMBSK6QFI55K6d23Blg5uJJC04rM7MZ+pyXKDfdApVBBjOAUXRc534afvpbO++l2RPaUFCh0zCW8RvIMUTE4I58nX7elZPZ4GMaTSoMyoRwStvJafpV/qkS0uc4b8FIGua8v8d0irWBzXUAlykz8kfZsiUv9YFvC+k/30KKMk9ZU+f/kLLUxicNi3TQAYy4YLwmezUq5jqPNbnWwl/r+yqfms7UtLEiI/3uGk5rvjPFlqOpMa2ki3QrjJr8x8g2/f4Facv9p0bQyGNrzgg3XWWOcRHDl3ZyIv4xx1adjUVlpoOAoe2l1qdLrrxxl/qHbGJrqpKhRweapW8nUs7BZG1iCLLXFQK5LfZ4ppXcCUvrYU5PjeEh96y2Uzl9n3unZd1cdnuSS/8i12if0GXRNuiRfgjbnpcM1qvcb2nJWau6WSon1fdjjHyqhxZx5rEtWvStS5OGNO26Sqw0MVGfX+S8ZV8vlw7GR0xyufX//WSmb0Y/jVnAUR/S8YzypavTNL3pmEbLOe2DtO6f5fLa8tqPf/podgIC8mIiRmklq8qtpv/Htjvz9rW1zaBPrmMuTa+WM7KM9KXtzDLaYN3NgPYdRy6TTcnzmHKF42A6ZTANZ4jtQN9BbvQn777v0V3qEnKMbdhLfSbtI9X6yBpver7qbXDL/rE6CClXDK2pPNTRWNpZhndatSdp/Iv+VtsSeSxNdlskHtXNY9pg1Q8t9BllwGrjqKOUF3qHujhv/rRNGpO3iG8Z+ix0J/lM29aId1WO2j6kuj6XRuW1lS10mXVz3nYzl/e4NlZm8d6yj/P2W0hXq7rZuq+numsInzUZq7MuZ2dQR2PJVtEXh+rMWh8kwtE6tWgbsAx9Fulc9KiyqbUnartL9brqi1J/K02r9r9yNiqt00PDTOPI/V6FtsBOxLd/29vBqBVSCzjm6aj0VYIcbOn3EVEmLFWtzZiPsFT58W46y0KNRaWVHhFW6yN5i61ZSVv8v2uvQyZbvjEDuGTMi7SwGgyjDu+S/utuvH2XwZw6sbjPczxfa3xaMBLpXPQ4hrVaA7ssmT3+5PPd5794weTbMVGWfce0wVAHb61skGet8dGtazGUKAe58z4HJ/HV5LpoGbd+X+UztOMyJA0YBPg2RzhuKOO0LAlHG+jcfY1rjGxVt4/hK+JrzVmEi76IbwZGupARH5Y/95Lrup1PvTBjrIv3+o6a10UGnhpOpC13LJXTGENc5EcdVSX+lJF0dp92opEjDsUIW486QMEInqvbeo2yiLyX0qXyWkTupFPrYUm+mp+x59pODdGbhK9yr6WpVjeX1Z6MlcPQ55UrDNPHnfH1mTYL1vgORSm8Ve23tOZMGZm3bpZkqEylg8HSO1zXCQCp86PvvfSeGt0x9CM71RHpOQ6NvfY/ZqI3xqQ3jXfI75Z9vYivNjM99KEeU72nfOk9TW+qf7ScU13bun8WeV3WMYwU8ILDh7yqvDB+5yaFqtw470vf0HZn0b62thlpuWh6tZxJd6QvLedltMEYetltR/uZyJtvNWLoo47CXp88uUceopzSvObejTzyTpr/eJ5xdWlVe8Slx5wBStshnk0dthHXkONGaINb9o+1HcgZfbXtym2BHzLVcBZpTyK8VkedtMKExPT7UC3iUd08pk1T/dBCn9E20d9ii0+tM0zo2u/gkzsmQPZ91iQnC22TxuQtwlqGPhuiVyL+9T5q+5Dq+lza5pF3zRa6jLq5aLuZy3tcGyuzeG/Zx3n7LaSrVd1s3ddT3TWEz5qM1SaUs4OHDNFP8+zWpzpzSB+E9LZsA5ahz2oyHXpfZVNrT/r0zNh+Humr2ai0Tuf6cEPzmD63Cm2BnYgr4ERUQ8TQjkpfJUhBi990sLRz1Wfginf02DfLQrdT6ftugIbX8hx59A3Gdv/AwZNvj5Rmn2olVxkNOa81Php2SwUyj/zGcFNrYDVfQ+Skz5RkxgCYwb0+WztPGwxN1ycPO7177Y1f9hoIao2PKupaWtL7adoos5pc5ynXZb6j8hnacRmaHjqXGJZDbqzqYHWHvq/yrxlIxshWw434c8dcGZK+1pxpnhkYsaI6Voyn6cLQyN7lyE/fK51rXksGrdK7el3DSdOkv0sy004oYWnYpfMhnTqdMZ6ulNdvEPTNJlfONS9Dzkt5UXktIndko+krybckwyHXleeSfk7D0fwtWjc1/iEy12eGpjdN/yK/tS2NlaisImI1UaQtZTGNbxX7La05a1E3U7nFb9X3Q/vOvKt5LNXdiKPvqPFHmQ89jklvXxpK95TPWlyaj1JdKhmCavlN9Z7KXu9petM0aPrS8lIdVEtLen8ZerRUHnE92rNYicoER1Yta1ufc1io3GrpVpmojCMNHFv3tdNy0fSmaYj0peWs76RlVfudxq95hV36S7T/uXCQPf0t+l36np5HufF+X1zxTuSR59P880xpEkkufXEtN37UelOKK9JUO26UNrhV/1i/FZV+M3PMxGjldggbtXJodV/1Zq0NmDfOeeNQmXHeF3+tLum7MFzaNhoHIxOUMfbrO6VzrVvzyE/zGHV46LHE0RhZlPK1VtdVn6S6PpeGZdhCtQxKMs2lpXStRbtZCpvrY2XWF1bLe9H+je23aBoWrZvK/tB6FM/ldIzqriF8al5y50zowf4dcWo/LrV15Va+58LUa/OwrHmcR4eV4o88Dj22qHualvRcZZMra32+T68vw0aldTrXh9O0jTnX+pDrY44Ja95n7URcASdiH9ClgtXZN6HUS89yndV4sXIuKv2YlYiEUepwoxzjG3R9Kz360tfqHk7CO3780GSQl/tm0SFfODu7fatW8pDP0GOt8dGwWyqQeWQ2hjVtfHJ51HwNlVU8lwuPVbG6AovvdzJzJ7cdSV+DoemqbTXtnOwvAAAgAElEQVSLDPvC4r4q6kj/0GOuMavJdZ5yXeY7Kp9ldAR0q+QcFyp/Gvi+vK6lbFtzlssX9ZWZ8keeeOGMkRH+0LXMsC9NjNDwVIbr1dkgPTEQIf1DWdJZXuGs0bxxnm5NxezTeEYnv2inPu7HUTkfWr/juVJeWspd05fTK5GPeY/Kc64e5sLV/C1aNzX+kOvQ49D05vIw7zXVNVoeTzzzYsf3wSLtymIprlXqt7TmrEXdLMlNy2DMAHmegWIuDRp/lPfQ45j05uKuXWvZ1yOuO+95eNoG0fYcftx53SM/eybb/qheSNsb5UvvaXrT+qxyTnWtxjVU9vGc1tuaPFvdj/xrHhlDXfCN66c6I/d92XiPtNfSrTJRGUceltHXTstF05umIdKnMiBt+k6U0dBjGn/kVY/ImZ0cWGG2575HTeUdcTD+oB3Sd+KcPMRzQ+KKPPJOmn90It+JjPDeucenJiulck5MbRdz40fdUjkXV6R/yFHjirQNPaZlOSS+RZ9ZtH+cGnbhItI0ZmJ0q/Yk4m51nMcpMzZu1c1j2jSt64vqs1yan33hlcnKxH22nZBdhVyb9EaY2iaNyVukR/M4tB7FcyUd06dXIt5VOao+GaIf5pF3zRbasm62ajf7ymeszPrCankvWNZyHNJvyaVh3rqp7Ec9GXrM6RjVXZqvXJqHXtN2Q/txOimlNrm0FFeUAXku6Yf03ZZtgMY/VO7x3ND0pukf+lvTlitrDadPz4zt5xFuzUaldTrXh9O0jTnX+pD2MceEs8izdiL2OBFZwcRKJipBaSuIFnDoIIDBOfsO1wq178Og6btsmRLfKCF8ZmNyJF+l75ClYfA77XCHQVadi30rPXJhLvMaM3wfefyZibEj8kueczNA2D4Ixc79Vo1J5K0FIxHWosc+5ZmGXWtgW8tMGwF4hds0TfFbn00bjLHp0i1r0rCIjz2u4YL/3P1I09BjTa5Dw1mr51TWy+gIsMVOOPxzdW+M/HU7iVxYLWXWmrNa2nA08C0fnOvB49B99Vehs0H+dE/93KrTnAzY8i3y2+eoyn33ULfhTmeap3FhVIh4WnHeUu5aD1vooTT/2k4NrTst6+bY+pSmf61/ax9MO/D0k2pbWveldb37LcvgbNG6WZKXtqVjjHw6UByyW0Epfh0jjIm/FF7L6y37ejAdEwXRkZz3TV7p03vKl9YbTW+qf7ScU908Rge1lO+8YUV7lhoTav0glVtN//fJn3RrWIv0tbXNSMtF49ByJv5IX1rOy2iD+8oJA9vFl98ws/tJbltLwlCdkeY1jUP1Qs52oHJDbzDJNw0jfuuzKTPxTMiTukl9iOtjjxutDdb8zds/1pXyYb/QFSXYDkpb4Ef8ysYi7UmE1+qoOhU2hjjOxsatunlMG6j6YVF9Vksz4wC2M8VZH338KOu+d1V+Y/IWYS5Dn2ldT/VqxLsqR9Vdqa7PpXEZttCWdVOZXaTdzOU9ro2VWby37OO8/ZZausbUzdZ9PdVdQ/is5YX7anNQ+4yOgebdrU/5q/VBIq2qwxZtA5ahzyKdix5VNrX2RPs52P35HfEvw0aldbrUh4v4xxxXoS2wE7HHiajboH3ok8dmtzppBUcoaCp5+t2YHFTbb75j2hk66qQLOzq9uefoWJ9y9uXTZ48+6aLu56+8MXEeRmeK+30GAQ1XO9whE1WO4VjUd9b7HAPIpVffNJXBZ489Z5fVbapo5+ks9uVRGVnvAcaYfNYa2DFh9ckn7qlCrDUCfQ2G7gHOd2dYzRhxpMd0hW4uXjqh4YTGeAZPaThjftfkOiastXhWZT204zImXbpSLFc39ZsGY3Rdq05hKS+tOSvFk15HV6tBl7YjfSb9rXVrGYaENL7Sb3W85L4ZkL7HLNOPHfjFie6u1eXnX3x18t1I2rUIW9urknEw4lQ93aqjp3JfdMCv9TCnpyIf8x41/0PrTsu62bo9mVcOQ9+L71ukXLJyHj0W/StmKQ4NU59br37LMjhbtG6qXPRc29Ix/Tb99ldtcoHGl56rc40+wqJ1PA1/kd9j6pPKMVf3NSy4ruWzT+8pXxqOxpGmQdOX9kEIo2X/LCdzvoF07te+3TG+YaVx7pkh1/T7dWlfRndkiLGVhqlyq+n/PvkTpt6vhdUXr7YZabnoe1rOGn9azhpeqzZYZVg6ZxyA/oDt3fY8sKOfkj5LHkKnp3lNn63ZDjSsWj6HyERX28zzraVIv9bBMfo03h9yZBUm/Qa+h84uG/we8t7QZ8b2jzXPYfQdOzG6VXtSyuMiMtPviM1rvC6li+uqm8cwo6s3dAVoGhfb/n7g47/bhjjVJenzfb/Zbp7diajHlDU6t+95ZSM3GaDvXe4Nqbu1MNL7qrsXkUUaLr8X4SwXnuY/1fW557nW2hbasm6q7BdpN0t55/o8MusL79XXfjGxXS9it1qk39KXNr03pG7Ce8u+nuquoXxqmkvn2vfBnk+bFNucRhtTerfvuoZb64NoOK3aAGWz1m/R+NfiXGVTq5u6WjS1OS7DRrUsuak+amnXo91jgh0TmmtlZydiwYmIwv3yhb9bAcF5Tgm3gkOhxgDaNzNRO1Uo1NIsOdJ72TU3T5UuHTHeBQpdlk8YPJfLXwqQdqpQhjvu/OnUYLaIMSaNp/XvIYM2DAQxSKzNtB6TPp31EMbtMe+3fFbLr9bhH9LAtpSZKsRSIwCjlGUM+Cmv9FmeUScL20Tl2Kbu6vapubCQvQ4oibevbg4pqyFyHRLOWj2jjfOYjsuQ9KW67NobduzSaKmOZZvAnBGPThpbe0YHk7Js2SnM5aU1Z7k4StfGlonO4BsySaUU76LXGaTizAs92zeBBflq+1UzjvG8fl8T53Top752MvKUziC8+bYf78JiPDv0qDpt0QG/lnmq84amp+85rWdD646+06JuRnnBR8s2uC/f896LPkW6nbz2rRbtE0UcyKM0aGsts2VwtmjdLJWRtqW1/oyGkeqhMTtyaDic6yS62uz09N1l/m7Z19OwYLGky3Lf90ufVb70nsaR6h8t57QP0rp/lpYJhmb9TndtfJa+r781j7o1N/VDx5s5Y7/Krab/a+2O3i+FRZoon76+tur/tFw0vVrOyCPiT8t5GW2wyr90rnyV9Ah5iH5LmlcNNy3LnO1AwyrpdcJMv7FbeladlmPG85ruOG/dnkS4HNG7bM0fcuTY1wfUd8ecK3t9ZRVh6kRG+pA4OWMsgTziudKxZXuSxrGozNS2xLc/v3/7vdX8pGno+z2k7uTe1zpQmuCH7US/Md3X9uTiSK+p/h0SFnVZd5XI7WKVxqG/l6HPQncOSb+mpXa+KGe58LV9SHV97nmuKa+1tja1H+RsoS3rpsp+kXazlHeuzyOzXHjYRM695LqO74DCyoFHnTVZQJJ7tnZN683Yfkst7LivcZTYbt3XU901lM9Ib99R22NWPDOZOXa6q9kx+sId265FWFqnFmkDlqHPIo2LHlU2pbpJHOiD2EqeNj61Oab6oq9/QvswxEaldbrUh5sn/8uw612zfcf0sxV92/tHeu1EzDgR04FwyTiGEFvBgQI96Oizpp3rf/zI4R3b20RBxZFOFYYKlCz/vMO7cV+PzJTHiMVzOcWBkRRHYNxPB3oalp5rh5sPWNPQE0apI6jvtj5/8aXXup1Pv9C7khLFpx3B0sodNf6hXI497WuTWXalNBMuTlRdCp17Nm0ct33+zI5VTOmz7BP+0KNP7XI9fW6R35qW0mA5wh/SwLaUmW4r+tFPH7+LXJHzcWd8fTq4gzn+cw2GNprwqTMOU+MIM4/7wkqNAihWZn2UZmlwndkspfo0RK5RBqtw1MZ5yIB8SJqREd9Y0u/SlAy5aaN+7OmXzOg86lIYJlgV9D/e9fFJebbsFJby1JIz4mA7VjgvscUzaRswZKUTLIZRhLYA3Q/Xmi8GHbQZpfZEn13knLSQBuocafrKRdfsMhud/LP9UDzHsVSfNC268nDfA0/sWNFBPEO2LiIcOpQhJwzHV2+/bZe0RXzIDyPfD3543y4r2+MZHXQOSX+8lztqPczpvNw7Y65pX2Zo3WldN1u2J2Py3vcsKwspY8pa60yUR8iKe2yfzjd4oj1hsIKM0vBXud8S+SIPLTlbtG6mMuS3tqW1/kz6Pm149H/JK9/4w0iRPsdvdOJPHvhZtp4zY3PvA/5TzxDOpw4/o2PlWi4crsET7UZutVPpnXmut+zr6Ux08njYcefu0k5Qd+nbcl//U72nfOk9TW/Uqci3lnPaB6HeqQNu0f5ZxMkxXVUc+UpXEeo7cU75Us6EEdc0H1G3yDc7pWhbR98o3omjyi3ejXvpsdbutOpra5uRloumV8uZtEb60nLmXss2GN2LTkbGqYzid9rXyK0C5VnyEOWf5lXDuvK6W6dlWbIdxCp2wmOMvuOu+2fSR7oJRx24PFsyQFE/dbUBLMFUKd99Y81ltsG62jZkma7kD1nmjsvqH6txmpVq8Rkbxo4YhHNpSa+1ak/ScBeVmepVZA5T3/n+XVmbCbqU8kfOaTpKv1WnjWmDdcUHvKbOTeot/fbgJI6pLiFd8M/zrLoqpZO83fHjh6b2qtKK4/R91WPwQD8gfQYZl/oHLfUZ8YbuRB45WaRpG/p7Uc5y8Wj7kNP1uXeQZWtbaKu62ardzOU7rs0js3hXj2qbiLozZEJE635Ly7rZuq+numsonyrj0jl51pWHXzjl4qldYexEBI1DdVGpD6LPx3nLNqC1Pos0LnpU2XCeC49+FfamsPHwaaCXX31jl2fRq9Efb2Gj0jpd6sPl0lu7RjojL6R3Ubuefl82dEbN6b2lnYgI6e/3Pqw79ZwrJjPP2FqDRkIN2xgSaYBKhdkSjnRrReDYY58jJp0GvOHMyIpZJaSdzi4OtFzadIYOz7JKB8Wmz2I0JtyARVcq6nPpuXa4412OzN5Ln132byoRcSOr3T9w8GSbVvIU//sdfPJUGfAcBgY6yaV0bf/enTPPp2VAuFSqv3nftkm8QzvNdNqjspMOKjwGF8I75uSvTjjkfkn5ldI79ro2JrW0D21gW8lMjYzIiLp3+PHndyeedVm3l3zHk3sMPDnyn5NZ2hGl3qC8CUvrN3UKR0FfWMiYhub/Hnrq9DmeJ304voI1yvG9Hztyyk+pkR8q17Flu+jzDMCYuRb5iSPOmJAP+YvrccTZk4ub6/GMHpEZsoswOVIOfc54bdR5nrqOfDH8RmPP8etXfXc6yaJlpzCXP6615iw6QvCKAQr+Q3awi7Fa2wB+Y8QupS+uw69+SxEZ0vYhQ8JHp1EmayGztN0hLVqXqEcxMYV76MVLvnXjLu1X5E2PdBJ1pSPv81+aOKLvcs77TFSI9zjCFe1IlAMyQx8Fw32dQp6NsGA4jW/M72CD8HI6b0xYubp5xAnnT50qGDaZeBN55ohuyBlpWtfNVu3JGHn0PattJiygA2E09CKsUk/ftdch07KmjPr6U6vcb2nJmcp10brJtyqUR85hNCbK4RCEYX3mzAuunjh/NR1xjh5KV6+n/T3KGZ0Y/QdYiPf1iFOA/lTUdY7wwPuRHto92q3oBy6qDzT+3Lly26KvpysuyR/ckz90HG1J5J38/fH/3mf6O82n8qX3NL1pO6R9JuJL89uyf6Zha5oifxwpS77fpM+m51HHeZ7xAm2s8kq7kY5PkF1pVxiVW03/19qdVn1tHf+m5aLp1XJGTpG+tJy517INVm7e8Z5PdExOpB8VdRK9zfUoW+SPkSwtS35refL8IrYDndFPWOgX+sCki3Fh9Gm594fv2Hva5+vrazDm18kMvJv2XeA2xq59DC2rDU5lSBqRObo9J/P0WjDVun+McVp3sSBd/KdbnaXp0d8t2xMNd1GZERb1FNtH5Iuj9rnhDv0UdSGtr5Gelm2wGtpJj9YBtXXBMEb4SHsubaqnyRf9c3RM1HPaqbR/llshHPnUIzvfMBaL+OGV8NEj/H/4gOMm9axUN1vqM9IVupP05GShaR9zvihnLccULW2hyKBV3WzVbka5tJRZhBnH0JXBLce0jY5n9agctOi3tK6bLft62j/I9UVULmPPc07coRMXWtviSHurNqC1Phsr19LzynvoaByGjFv4ZyzI+CvqA+0hMsmF19pGpf3kUjuRS0ftWmu7Xs6JWJvkteWdiAFU7oiz4e77Hs1CFoXbGg5WoqmTI5curuHQYGZ8pEOPDFAYLMS7fYbm1NnIe7yv4aXnuQ43S7VLs7jT91v+1gYv8ls6ItfaSj/yhjdfP8BdCo/r6VZmpbyhlM7+6rVTA1IpzL6BXSnsMde1QW9hWCLuVjIjnMuvvWU6YM7JiIHGORdfOymjuF+SWW5QHe9whHVWhChDpbDIJ89+/osXVMsw4tBtH7SMltlx0XjGnmu6Ig9DjqWOqQ52SuEwQGQwB5d96a2xwcARwwe6i0aa+Fp3Ckvpa8mZdoRKMovrtAF9jtc0veg+VrjH+7njWskMfahbreTSwjXK9ap/u7V3ZWaaT/1OH2HgZGDwlz5X+g2LOB3RNaV06XX0SMmgrHUAPVOKc8h1ZaNPTw0JS9Oleek7L7HRum62ak+GyGHIM9pm9skn7jGAoZ3oq5va5sR7peNa91tacpbKd5G6qekqySq9XuvjoIe+ec33phMC0vf1d23wx1hhSN+dMMcYzlMZDv2t3NbkoG1/qZ4jq9TpqvLhPPQ1k3niXqr3tBz1nqY3TYOmr9TfaNU/S+Wr2ztG2dFPTZ9Lf4+p44TLmOO7t/6o2Nap3DhP49Pfqt9VxvFMTWeTniF9bR3/puWi6U3TEOlLyznS16oNVm6Cx9IRdplQiGwiHXocU57ogSG2g9Sxk6aNPh4rnJAT92o6aEwd6GNoWW1wbgIyq8362kotA2UqlVX6e2z/WFeHEhY6Orc9oqYnPW/ZnkTYi8oswtn51Au7TCRMZRa/0/oaYYyRf4TV1/ak9qd4J47Uj7vufWRmjJ5Lm7Yd8W7piF5j7EFZRb5qR1YKk49SmFzvq5ut9BnpDN1JnDlZ1PJSur8oZ5quPjnpvZL+J40tbKGa1xZ1s1W7GelqLbMIl2Pq8ETufTo/3h3TzhFmrd+yjLo5pp0jjethi2OHLCZDKO+5bepD7noc02/R8OFJw0nPW7QBhNlSn6VpnPf3mLaJCfXIoi8u9EUrG5X2k/vaib70lO61tuulC57gq6+d2dJORAYNMfMqKiK/WcmA0IZ0MpYBB/ESP+nQ9DErhBlZDCpK293RyPENuMgPBlQ6xyUAuc7WOTrzkdlbtbynDdR6fWfr+RdfnXz3ill0zBZTwy+DAGYeIDO2aijJLCcblCSVSWfnIVPCJx62M2LlKs/l3s9do2yYYUV6YjYoYcIhM2TZlrDmwM2FO+aaNuh9nXvC1Iasr7MX8beQWciI7bKQC/KhHFmRe/6l13dsw0N82tHp6xghTxqCmIVI+dGws3VK8DA0LOIlfaxkZfUyMlHeqKuUI6uZaaB4NmSjx7Fy1XeXea7pCv0x5FjquJQ6yLCP44X6NYZ35Pnjnz7afeKzp031FashTj/vyqkRQvkewmwrebbijC15mD0FR7pqhXKANfIEe7Q7Jb768kQ6MYDG7NmoX8TFN+jmDbcvzr571GfqNUa3qEu0RaSPdDLTqu/93L10MDzvNtuRtvfvd/SUN+SFXmImMjPb0OehR3Jp0TqAnsk9M/SadpL7dN6Q8DRdQ+o4z/TVp2XUzRbtyRBZ1J4hbw8/9vRkhRB6K+1nBBNDdH/Etcr9lpacRX7juEjd1HQNZbbWx4l0oWfQN5Rh9Du0XFkdFn2PeCd31L679vGiLwo/zD6fR6/l4uu7pm1hTQ7a9vfVc3QdBlVtg9HbTFRUfa1lleq90j1Nb5oGTV+pv4EsqKuL9s9SmTLzmj4k7RJs0L+rjY8Ig7aWMQLtNe2FjuVgK5gYOpZQuXGeplN/q35P5R/PISvar0X62jr+TctF05umIdKXlnOkLY6LtsGU3fab75isFGcCldZtyoAyYYxHnaz1RclD6B3CScuT32NsB+QRrplcGuOTSJOO85X9IQaovjqATiKNQ8euy2iD+UwLjkP4R2/UJvYGCxyX2T+m/GEhynjoFviavjhv1Z5EeIvILMLgiP7GfgRfOr4IXcR1tvws6Tet0yGn2rHW9iB3HaOTFsb7tLlRJ7XupbqEfLGqkS3nWenNDl1p3aS+0rYTJvVJZTL0nPfSsUqMyZgIy4rFWliL6jPCD92J3HOyqKWh7/4inGm6akzE/Zr+1/6Ulil6THVkX57Se4vWzRbtZqRpGTKLsEnnDbfc2f3Fu/ef9F2oY7SHcb90pM617Lcsq272tXOwMmQ8pm1rjcWSvPqu6wQ0dkphdWLf83FP0xV1ZcgRniKM0nHRNkDDbaHPNLxFzrVtovzTvt68OiPyuIiNSvvJQ/pwY+VAnW1l10PnYgtU3vramS3tRBxS4cYW5lZ5Xh2PGPKHfjdgq8jH+fxttTGzjDa3jNiSASOEy3lzl7PL1+W71RjQQV7NoL/VZOP8Wh+YgTwDYehYhsHKMs/LvJVc1JFh28FyZd2qzByOy8kMmAEzsBgD7rcsJj/zt3z5BaM4vzwmX0zefMIvnIi1SUB2Ir69mLC3onLAMaAfPmapePq9xa0oF+fZdckMmAEzYAbMwOZmQGcW9s3SMwebmwOXr8t3DAOx8mAZs5HHpMPPjufWTsTxMjNnlpkZMANmYGMz4H7Lxi6/rVD/7ERsx6iuoGV3htgRIMeRnYh2Io5aKcQScraEYMsJPNVs7TVkG4ccfL7WrtJblpalGTADZsAMmIHlM3D7XQ9M+kC1WXoui+WXhWVsGW8EBvhuLtvZMm7ySraNx6ydiBuvzDaCXnAazZUZMAOryoD7LWZzVdnUdNmJuDin+HfYzpzdJRmnsAUvqxJVzum5nYh2IvYCosCwVy4OxPh+Io5Evmumz/h88YpsGVqGZsAMmAEzYAZWkwG+X0wn+z0fPmz6PVaX1WqWlcvF5bIKDLz0yuvdhz557ERvXHLljR43bbCxt52I1iOroEecBnNoBszAWjHgfotZWyvWFonHTsT5OGUXybvve3Ti29ln2wnTBWL4d/hed+n7yFFWdiJusIFMFNxaHPmmGR/jPeXsy7tjTv7q1DuN8WwoYJFOPlxPOC3+CSvC3cxHy2w+pbiZmXDezIQZMANmwAyYgc3DgPt6m6csXS83Z1naibg5y9X11eVqBsyAGTADZmD5DDz93EvdmRdc3cQXQDiER7nZiThf2fF5Oj6vgF8n/v90t327q/7t1u6tX/9H1ddiJ6KdiEVIXvj5a90eHz1iCtY8gIVSjj21I4xFjltlKyDLbD6lGMz5aPmZATNgBsyAGTADq8yA+3rmc5X5dNp+29mJ6DrqemAGzIAZMANmwAzMx8ADjz7Z8RmQRXwA8a5+TsROxPnKI5yIOA4/+unju8uvvaV7+dU3in6hlHs7Ee1ELMKiTsQ/+LM9uz33Pao7/9LrO66nINV+20gyvoJbZuNlVuPQ9y1TM2AGzIAZMANmYFUYcF/PLK4Ki05HnkU7EfNyMS+WixkwA2bADJgBM1BjwE7EzcXIlnMi1gD3/c0FuMvT5WkGzIAZMANmwAyYATNgBsyAGTADZsAMmAEzYAbMgBkwA2bADJiB8QzYieiViKNXFbqija9olpllZgbMgBkwA2bADJgBM2AGzIAZMANmwAyYATNgBsyAGTADZsAMbCQG7ES0E9FORDNgBsyAGTADZsAMmAEzYAbMgBkwA2bADJgBM2AGzIAZMANmwAyYATMww4CdiAZiBoiN5AF3Wj1jwwyYATNgBsyAGTADZsAMmAEzYAbMgBkwA2bADJgBM2AGzIAZMAPLYcBORDsR7UQ0A2bADJgBM2AGzIAZMANmwAyYATNgBsyAGTADZsAMmAEzYAbMgBkwAzMM2IloIGaAsLd+Od56y9VyNQNmwAyYATNgBsyAGTADZsAMmAEzYAbMgBkwA2bADJgBM2AGNhIDdiLaiWgnohkwA2bADJgBM2AGzIAZMANmwAyYATNgBsyAGTADZsAMmAEzYAbMgBmYYcBORAMxA8RG8oA7rZ6xYQbMgBkwA2bADJgBM2AGzIAZMANmwAyYATNgBsyAGTADZsAMmIHlMGAnop2IdiKaATNgBsyAGTADZsAMmAEzYAbMgBkwA2bADJgBM2AGzIAZMANmwAyYgRkG7EQ0EDNA2Fu/HG+95Wq5mgEzYAbMgBkwA2bADJgBM2AGzIAZMANmwAyYATNgBsyAGTADG4kBOxHtRLQT0QyYATNgBsyAGTADZsAMmAEzYAbMgBkwA2bADJgBM2AGzIAZMANmwAzMMGAnooGYAWIjecCdVs/YMANmwAyYATNgBsyAGTADZsAMmAEzYAbMgBkwA2bADJgBM2AGzMByGLAT0U5EOxHNgBkwA2bADJgBM2AGzIAZMANmwAyYATNgBsyAGTADZsAMmAEzYAbMwAwDdiIaiBkg7K1fjrfecrVczYAZMANmwAyYATNgBsyAGTADZsAMmAEzYAbMgBkwA2bADJiBjcSAnYh2ItqJaAbMgBkwA2bADJgBM2AGzIAZMANmwAyYATNgBsyAGTADZsAMmAEzYAZmGLAT0UDMALGRPOBOq2dsmAEzYAbMgBkwA2bADJgBM2AGzIAZMANmwAyYATNgBsyAGTADZmA5DNiJaCeinYhmwAyYATNgBsyAGTADZsAMmAEzYAbMgBkwA2bADJgBM2AGzIAZMANmYIYBOxENxAwQ9tYvx1tvuVquZsAMmAEzYAbMgBkwA2bADJgBM2AGzMD/196ZP2tTVHn+z5jf54f5oSc6YsIIo3smOronXLqlO7SntRmlFRuRgEZGwRcEFxbBAQRBQJAdREEW2VQaRBaR9xVBARFkB6x9lMcAACAASURBVAFZlEXQRtv+sSY+xZzH7z1vZmVWVT73Pve954cnsqqerMyTJ79nyTyZWYGBwEBgIDAQGAgMBAYCA5sJAxFEjCBiBBEDA4GBwEBgIDAQGAgMBAYCA4GBwEBgIDAQGAgMBAYCA4GBwEBgIDAQGAgMBAYCA2swEEHEAMQaQGymCHjQGis2AgOBgcBAYCAwEBgIDAQGAgOBgcBAYCAwEBgIDAQGAgOBgcBAYCAwEBgIDCwHAxFEjCBiBBEDA4GBwEBgIDAQGAgMBAYCA4GBwEBgIDAQGAgMBAYCA4GBwEBgIDAQGAgMBAYCA2swEEHEAMQaQES0fjnR+uBr8DUwEBgIDAQGAgOBgcBAYCAwEBgIDAQGAgOBgcBAYCAwEBgIDAQGAgOBgc2EgQgiRhAxgoiBgcBAYCAwEBgIDAQGAgOBgcBAYCAwEBgIDAQGAgOBgcBAYCAwEBgIDAQGAgOBgTUYiCBiAGINIDZTBDxojRUbgYHAQGAgMBAYCAwEBgIDgYHAQGAgMBAYCAwEBgIDgYHAQGAgMBAYCAwEBpaDgQgiRhAxgoiBgcBAYCAwEBgIDAQGAgOBgcBAYCAwEBgIDAQGAgOBgcBAYCAwEBgIDAQGAgOBgTUYiCBiAGINICJav5xoffA1+BoYCAwEBgIDgYHAQGAgMBAYCAwEBgIDgYHAQGAgMBAYCAwEBgIDgYHAwGbCQAQRI4gYQcTAQGAgMBAYCAwEBgIDgYHAQGAgMBAYCAwEBgIDgYHAQGAgMBAYCAwEBgIDgYHAwBoMRBAxALEGEJspAh60xoqNwEBgIDAQGAgMBAbGYOCFF3/dvW/fo7r/9F/f2X396pvCBwo/ODAQGChi4Ipv3trrjN0/fET3/C9fKeYfo5Mib9iwwEBgIDAQGAgMBAZaYiD8lsBTSzxFWYEnw0AEEWPgHAPhwEBgIDAQGAgMBAY2EQZ+9/s/dPc/9ET3pfOu6m687Ufda795Pfqvsv8ee/LZbrc9Du4DArft+EnwrZJvNnCYkxJ8+eoV3+l/EYiJwegcLK33u+haFh587NOndq+8+tvQG+uoN9a7r6O+0E2BgcBAYCAwsNkxEH7LxmD49d/9odt+1/39GJ2U+82OpaB/Y7C0qnyPIGIMgkKprTgGmGhj5TOTF7EC+g0Fzu4R+BE7Sf6jO/5Llyx4YTzRdNV32jzwyM+7//m/Ptq34eNHfKn79av/tjI6SXl7+w9/ujJ0rapDEXStn4MJHt/0tr0Xsn/GBVd1BBZb9sEqy+acdt5z/6Pdn+22b//jek5Z8W495p99/qXugwccs8DsXgce27ErNHhYz8Pg1cbw6t9e//fus1+4oMcuKffRFxvTF8H34HtgoA4D6sPpuNCuY06hjo+7It50HsXwoCnj312x3XPatNl4Fn7Lxsn35dfe2v3nN//v3mckvfaG7SFPKz7fPkc3bMV3I4gYgA6ltuIYiCDizk6AOnKrHiRbtmHRQJcOAOx61fmjg9wIIu6M9WXjJ8rfnDz3cs/xnK0DMqssm2Nwy8KE73zvrm7bUWd073jftkUQCx3557vt1z/n/1VawDCmfZslL4Fvs0ukDKx33PVA+KAr7oNuFny1pJMFGY8+8Wx3+vlXd+/f/+g1CzbA7e77HNH/R57WizdatiPK2pz2Pfot+q0FBtSHU9tr1xFE3Lo403kUw4OmEUTcGRurzrPwW3busxZ6dGwZjCWZz1J5Yvz56murs0h+bJsi/2pga5X6IYKIMXiPCZwEBp574eXu0mtu7icXTznnig3lUQQRd1bc6sitepBs2QqfIw1v3XHPmt+Bnzl14byM4Y/yVZ2f3PWYsnN80EFuBBHfwDqrB+/48c+6L559RbfPts93Dz7y1IbqoFzfxfOdddN68eTCy65fyDjyeegxZzU/0nSVZbOGzwyob7797u7tux+0hlc5fRaTJsvF830/e7z7H3+3/6Iv/ua9H+8eeeIXodsSPmgNviPPcvD6wq9e6Y484fzFKvKcvuA5pyigJ6MvltMXwdfga2BgOgZeeuW17vt33LdmfMi4jZMY0F+7WhCR9n7rxh3d4cef1/9iYVgeOxzr7+cOjjv1awv/LPzhnXm3yjwLv2Xn/too28Eczv/94kULWULXnnbulbHgbAuPdXbFeb0IIm5hQG+Uct0M9eqK+Y12pCKIuLNjoMGuFoGszYDJMTSCWZv4GsMf5au9P5SOKTtH/yoHKpSP63mcqa5ii0nKneU/h6Wt9PzlX/+mY8D/X/77Hv0RkcsINK+ybJb6mgAiC4HsOJmUHvvbfzqkY8EFuxH5f6NtfalNm/1/+uSa67d3f/muA/of1zzb7O0K+ncdHf3Mcy92H/jIH4/cTekNdAY7EdEtYZ93nb4POY6+3AoYUL9uVwsiattWbVHqZsCWzgGEP1ynD1eBZ+G31PXVesogn2/AV/yTv3h/n3K/nvVHXauFiV1xXi+CiBFEDKWWwEAEEVdL+XpjqE5bi0CWL3+z32vwawx/jK9/+ld7dkd8/rzu5LMuH/y1OIpulQd9yscIIq62TtjsMruK9K+ybJb4xbcOddfbtiNP73jGSnX7thlBWIJY/J5+9ldxtGbCFyrxOf4PvbirYOC3r/++O/oLFy4WYBEgvOTqmzomf3583yP97h0C4A88/GQ/bnrtt7/rfnj3g/3/uwoPoh0hz4GBXRsD6tdFEHHX7uuxsmxzALGorh4XG82z8Fvq+2qsPET+4G0rDEQQMSYYIuC2RTAQQcTVNhzqtHHdSsnvKuVo8GsMf4yv67m6Xge0q7ZyVPkYQcTV1gm7iuyuUjtWWTaH+ERQ8POn/3E3NtcMtHnnlVd/233s028c9/yl864K27FFfLohvMR/odvBgOo7fCCOijds3LbjJ31wcbc9Du440syeRxrYCQwEBjYTBlTPRRAxsKvYtTmACCLW42KjeabyHH5Lfb8p7uM6+LZsDEQQMSYbYuC4RTAQQcTVNijqtHG9bOW/2crX4NcY/hhfI4j4Bv6VjxFEXG2dsNlkdDPQq4PTVQvwD/GP3Yb/csgXFjuKVHb1ePArvnlr2I4t4tMN4SX+C90OBm687UcLneH1nflG79v3qO6FF38deiP0RmAgMLApMaB+XQQRw/ap/2N2LoKI9bjYaJ6F31LfV4r1uA6+rScGIoi4izmMfFPo8mtv7fY68Nj+u0Kpb1/oMz+oBHzqjGFIeMYqeFawfvq4cxbf2nnT2/buPvqpU7of/OhnyW/AKLj++WPHdr966Y1B6uM/f65fUf+O923rB7d8g2PPA47pbtl+T/f67+q/JUPenzzwWPe5ky/qrCzaBl3v3//o7rxLrut+sQHnNdO+L559Rf9xb77tZPyGrnd/6NP9h7Frj0x88eVX+28g7bHfZxf9ybeOPnLYyf3kwGu/eT3p8GsfWv1jUp2gXIZC0klPc/hTGKOtYI721NIxlWdaPjs8qPPCy67vea34Aq//sNen+z5+9Ilnk9jXsuza2ufxCkboX2TE+sjkzt71qWEf3rzl3R9dyJHRBQb9O/5eMWL1GY1j5NyXu6x7DX4ZvTV1kRe+tg4igmF0jMom9YCVAz75xY7jU7lP6dgauqfmARvb77q/O/SYsxbYgA70z4cOPK77x70PX+CsJOdalsoA5YE79Da6jmMTPb3aX+Qf81tvnpndhD/wCVpVznPy5D80zkfHeeZ54e+v/tfbF/ygn3J6nPewYWd95dpe50CT8Z736Gf6yJev96pr6RP7z+yw6Q/0EH7DDbfeudjhZnk1tX41vc1/8I9v9dk3taDxnXse1tNtdl/LsGuTzRw2lF57pyZtKZst7EkNzaU88FFtBLuI7J2HHn26e+t7DuyxUZJpe8enq+C3KE1zcbYs2VS7mcKtyoW2p+Yan/k737ur9znsm5Ym7/h8/EeeUln4L+CA3alWjvkZ2Czko1RGq/9V/3DkLv2Czrrr3of78YPpW1LGE3f/9JGiT4W+oX3YHmyQtRFemZ1jHITs5tph+DIdw9GeHzzgje8G/t0HDl0cAwwvKetv3vvx3iZg25946vlsudRH+xibzPHPcnSPff7N7+xY2BrwwK5lK+MLX760/2+MvTWd/We77dsfpUxZ8Pmcr32r1/kmE+h/ntFXVl8qbeFrG03WDvqHfsJeclSrfacU//bm2+/ubSl00t/0e4oufTbXBmtZZpsYoxr2oQX5/PsPfrLbdtQZ3XU33ZGlydqKf3nXvQ/1+cz+qi8KXmv4D1bZhYr9pm6wb34GdOH3MWYBzyVfQ9vJNbhAdtSvsjLxX5Bh+t+/5+9XxQZ7uuCH+dpj/eObvv/jBZ+ZF3jqFzv70L6+R574Ra+H4CH9y73Po/et7ImW2eIaOWTsjP5mzGp4QwawnzwfM7aGJrXLtTZY56hK40O1YzXl49MTCMFum49Nvxn+P/zx47uzL7q2e/mVtfpR67H8Y1L0Q6mP5uozpdHsJ3VOHVOU6J37v+lM+Kj01pZr8yJ+7ga/ozQXl6tjrmy2sJs52ng+l2dWNnReds0tvY+mttj+z6Wt/RatZ6psahl23cLXU91l8muYq52Lu+9njy8+dcEnL7g3GnMpC8fM58WfuOPHP9vpHfOTczrI6M3VkXve0gbM1Wc5Gqc8N7lp5Z8ZDfh43pfCbo6Z8zXa1NYhC9ffcueamBH2ipOOfv7ML0fjIYcTnpt/bm3KpWADP/3tux/U+8jnXvztKj8xV97Y51v2m4gEpmD6UCf6/1Kd6hUaK+D5poY5er4MnjNY8ZOn6qDhdPGRXPLhKPoy7J56SoNOAMEgcf9PnJQtx8pLtW8soGrz014EL8cno4m0pHgRIgYZCLu+568xAKljiLQP/Ts191MnImt5pU6oYYOJ8hzvGGwz8Q5fcnXM5ZmWa8q2xCvohe7SQPiFX73SD9BL5dn/Q/igrMOPO3cQF8jY175x4yBdihHqmyrnyrdlXqszM8QfT4P1pRpOn2fMPX0Nb4f0mPUj6XrqIHSBOYVKQ+56SM5ry8rxVfsrV3/u+XrxDJ2BA6WT0CmakPNTz70yOYGP420B43ft+cmk46X4UrtIueh5/d+uwRkTezrRmKKNiT90gr3nU9W19AlOI5MXQ/jFDkOnL4t761f09nMvvNxtv/Ong34HQeuHH38mWZbJZqpdPKOuFA25Zy1ls6U9ydE75jnfKvvUsWcv9D79br4Sk8lgUL9tVlv2KvktSnMLnC1DNtVupnBbM8Go7eQarNmgKVWmPivZPnzjfbZ9foETfdeu0XfoPer1tLS+V/2DXmccMDSeQC8xWM7RpvrT2pNLsU1M8qfaZPgiZYEkk/JaDkEwC654v5SxRy5A2co/S9E85ZnpBtqGLfnejnt7fqg+se+o1pSvOhv/oaT/WZhCn+fK1vKU//56yNe2MsAXgZUPfOSNYLCVQbsJFtJ2b08J3D35zAtJ+lrZYNo+xjYN2T1rK22D/6VxP/b3wUeeSrYPuijD+FRKa8fntNUmjktlDvmgq2aDFcNz/WOdwIVHBJy0/NS19v3QgrWW9iRFx5xn6McjTzg/O9Y3vIy1o2qXa99VW5Ibx1hb1Y6VymeBzN/+0yFFuUqVo/UYL8akYMRo9mkrfaY0oqvmjik8na3vVW6GdGuqXvCKr13qA/RszYKUVrKpbRqibchuptprz7T8sTyzMkh1sQR0Yn/vvOeNxS+az1+39lus/DmyaWVY2srXU90F36fMxSGDLMwxLBB4MTpzKbbXfFuC4Tae1Pz0vZWZSqFX89dct7IBrfRZDc21eVRuWvhn6Iu5c1RGu9Fmto7voLPwLNWvPCMf30e390lLeMiVxfPaeT0NiPMeGL32hu1r6FCaWl9vySCiHwTjnFx81Xe7W3fc0wfuNLj4J3/x/n6HFf9h9HzwTxXaCWd8vY9QGzAYaB9z0ld6ILFi0Z6nDIM6aORVBUf+bUee3p345Ut3AvElV9+UnUAALL6t0MCAH7pOPuvyPqX9TEbUgnYuCOHhKedcseAHoGdXBgIHTfx0lWdJ8bJy1ga7lLXtiNP71akY5NPPv3rNpC0DZj9IZ2cQ+axu0kOO/vKCvvfue9Sa/zQf10ODzrm84n11Qj02uIdv9CeTooYxnHJWJ+bqn8szLdeULbyHHvrOeHT48eetWVlIHia99H29pm90UgNcMrEC9imTsv1KxRw+4Nv+h/4xeI5cE5hHlq++/vZ+5wH0wDNSghAYIaXHrlvJuZW37FSNV44/KRqsL81wpvLUPsNpoc8Mkyndoytr+X+9dJDXi+gPsGK4xUn0wbLcBM6zz7+0JhjpywK7rKQFtzm+spre6iZlgYUNrAl4HPH589b8r3mZgGKSs7ZfpuRDLpAPkxf6ivYg39BC6vnFczCg9eF4w1vDBIsd9H9/rQ5SbgU69gS5NtrQGUzgMdHE77jTLl5DGzokNQCgbtW1h33urO4Tx5y5oJX20U5vh6k357SZHIJzvr8HbbSdlOM24RGYt+f895njzknutmQCVPud6/0OPnFBH3V5/uXuW8tmS3uSo3nsc3aiGSbgK8EMbCKY4L4miK11rprforS1wNkyZDPlW6HLbCFBamJQ2+WvU3oI2fE+gu10GbJ9BOuZzAIL/HQcgK6jTPsPnW4BJU9Ty3vVP9CjvlDO18vZFOjScQVtwJc13x/9gc3jubWTMUvKnzV8sfsROUKu2KnHDjZ794JL/7UPLtIfjF+gn//oa9sFprxq6Z9puXOuCXbqgkt0PliAVjseuWbCyWgwfwo+HHT4aQtewyP0Pn1AEFv1FDse/TjTl0f+qb620cTuPltoAdaxd0bHKed+o/dprJ9VFtj1YPRY2tIGUyZjBKMF3umYFZ5hhwlowschu2dtpQx2xhjWKZtdudhyb38P/MypWf8AH5Cy+KFj8GWghx9yBZ32Pynj3Fxf0s6UHYZG74vamCfng1LWKtpg6GrhH1MOJ90Yb9EvTATzPPVTW0Zf5xaftbQnKTrmPPNjYdquPje4tx26Y+2ojmdr31VbMmRzaLO3Y9yneIGt0QUp6FudP6CNtns+RSc7E/H9TQZJ1b9gDMVYSv/X69wpVy31mfKixZgixceWz1RnDulWX6fHq/pl6Fn6UXU6/c443Jdj9y1l09pE/VPtptGVSq18ZHQMz3xZvGs6zlLK9vn8fWu/hfLnyqbSiAys2lycBmxZTD50RD36gIUo1ifYIm2fXft5HHQNPre9V9OXVhaplynKmWIDWuozpW/utcrNXP8spS+UV7VzVNYmo415dTa/2PyW+o5sUDGfkr7BT1YceTwsY17P6DSMkc7RQdb+2nTLBRH9CgQGbN4ZZWUDQTvrFDoegKaYqs6Y5cfBYqJKjzOhDjUQTChqeeqgWTmAlclQ6LG8lEng0IxxbmKV/N55Z8KElSWptlA/R7AsezIauliVuNseB/f8xZGgXmufTxlkvfpaepcHedXQIcysUPftg39HnXjBoj+HViVa/TpYXE+BtPo1VSfUsIGDdtHlN6zB7i9fenUx0UG+nKFrzTP6bwg7YB9aDLN6XK+2k3xMoFsbGcyDYc3DNTKgA8qUYcZoaqAaeVY5ohxwQj8jr9Q5dKxBKzn3bVnWveqaFH9y9ZpBKg0Sc+/rcwIr1ufIOat0vGySnyPZLAC+HkFEjLxOirGzIBVUQvcwMWR4zE3g6FEiKZwpT9BllKvPUtdqD1r0RaqOMc9YDWnOEik2yNtN7tFJ6CZ4Rt8TyPH16PGkpf5mwtb4f9q5VybxQ78YbTl7QjDDJoEpL6cbU7o21V50EDtsjTYmY1O2U+XQ8uJ4er127wOPLfQQthEb6fmWujd5pewxdqqlbLa2J6l2TnmWmqAFk2/+6336fhv7bbNV9lta4ay1bKb6TW1pamIw9Y49U1kH8ylZsrwc2wM27V5T9KsuFEuNA5DxK79120K3DPnaWvac65z+gQ7osbLxZQjimU7JBbbQSd+/475+x7e+b+WQoovwtawsPzYhj8cXYyLkiyN8CMbzLgN25MsWY3GEsJXpvz3a2j/T9sy99guMaMN/e8teC7vm2zJUn+pn4wV2SI80xyf67m0/WgTWhxY3tPC1PU0WNANTZiPpS+hlEox+ZhW2+WjIim+zyuVcG6xHUWN7U2M6qx9M65Gz9txS31baxGpy2mN5SOErdPM/GM4FnbAB7NhGf+j7dg09TByZP1Ky5RospV6CtylfFIywACZ1ZBZ1r6oNhrZW/rEeT1ryie+5/9GOI4Tpz6EJYsUteafaE+v/Vqm3T7TXzylZXcgn7c1h0vJpOsUGUz7+Onwq8V/t2JCNx9ZQHr+UDVaakfOcDdN82rbS+ELf02vFxVx9prywts4ZUyidy7hWnVk7pvBzNyyMSS1iZ+GWnv4zdEqB9gF8myObLezmEK+n8CxVnvrftBmbgD1J5fXPWvotlN1KNlv7eirfJk8p/Qgm1W/1fq3ubofP4M3z1O7Vz0UflI7GtvdIlQZwov8NXbe0ASpLc/XZEM1j/1O5sb6c6p+1nKOiHSnaUnrtiaef75hLgP7cgknjyxgbau+UUj1ByHhI0LP0Xqv/t1wQUb+HM+Rc6g6IXNCDTvAKjcnp3HEvuuXcOzcKLoCAUmOiEwfRdzbKUXcqplaG8o4GWlI78Hy563WPQjOws/qgxjFM0YZx0tUhQ7symVBi1R711hgBpbHWkUrR2OKZd0JxQHE2UgEZ22VBO1MT28vk2VBbdYIiNwBRZTjkXFKPKviUYVb5RcHrpI2nU8vKBSpaybmve1n3Ux0X5YXJKCn6yFbw1XxrSh00grMMcnNtVd56vZh7Z85zddRZpJHSsVa+8jHnZGoevlVr785J1R7k5GVO+WPe9fZmSM+ik87/+nUL/Z469kMng4YC9x5DyLSnW1ec48Ax4ejz2L3iLGf7va5lJXOqXsrUoFJuokSxQXCVCfaUvWOy33aFIG85rFlbLFV5pS57PpR6vs6RzY2yJ0Pt0//Abu44WuQKLOeOWtRyuFafYNX8llY4aymbnn92r3KYkxvLq6nKOjJiAQ7NU3utq5AtiJJ6F3wzuWm2ENuRytfqmdc/Q0GUkq83hiaddE/ZYMWXnnLh6dV3tZ+9j9baPxvT1pq8Q0cXsVCIScmUHvdlq34GQ7lFRuoflyYifB3+XstK+Q5KE/iy49LU54BWxkuMmyhf+9nbGZXLFjZYccNO11RQzbc5d69tpU3IOseDpfKrX5gaO6XeST1DZ/A9U9MZOVvOd/1YmEA+/GsLvqfKHHq26jZYdccc/9j7obmFYPigjOOM/7l8ilvyzrEnQ/0z5T+1T8xXDO3YmlK+ylitDVb9kNIrSofqi1z5Wt7QOEDLrbnWtqk9qnmXPIqLFvpMeQHO5o4patsxNZ/qTK/rc2Xq3E1pvoX5UXaRm95LLdjQPlgv2SzZzVzbeT6FZ6nyaDdzEsYbFmshJ6m8qWet/JaWstna11P5hk9T59y9nRjaXKK+wVC+VJ+o/QMnqTypZ61sgMpSC32WonXqM5Ub+nKqf+Z9g7lzVLRHacM/49vD1JNqqwbch/pY5apkQ1P1pJ4xf6mfN2Mnf87HTb0/99mWCyLqRNDQty10NeTQylBVaCgzv8NAO0jzeudGwVVjNHV1X2plqE4UojhYFay0bOS1BlNxOIjkT6FHV4cM9ZGVrYKeC7xaXsVJrSNl77ZO1QktDTaHMAZdy+RZqd1mTGmDP0YEg47DBPb5MUE2VJ4q+JTS1h1MuVX6Vr4GA3ILBpSvc+Tc6lx2aryGlyn+5OpXvlpfpFK29l/17bW7I7RM5Id+5l0mVJjo0P/1Wnnr9aLma3GtepaVykMBFOpTPuYmg1SvkD/naIyhX+ls5WyMqV/zav/kgm+aXyfHUrT7Sa+cfOrANHd8lU5+s4uCgaDSotcaqMMm5o7YY9ID3DJ5w6IjLUOvVS/nJkoUP1dd9/3kwg8rU/PmsGZ5LVV55X17PpS2lM2NtCdDbfT/Pf7z5/pvC9kuWdVpTKQjwwy2/Ht6v8p+i2JnDs5ayqbyTq9Vn+TkRvPbteoDDXDY/7UpbdRJ/pKvof0+J7hQQ5/qlLm+Xk19lkfrxSdn/GD/kSq+WCSCv8ZzfU8DUvyn/ex9kNb+mdLa6ho7zi4AFk+pvrBrbGHuZBejQfVzaSGn8rhW/1s9PrWyUr620qSLqNTn4D09olv7mbK1vtY2WP1x/Ad26Wt9Y661rSX+a70pGZhab27nqk5MzvF7V90Gt/SPdWI15+/p3MfQguFW9mQMLmry+glRrztryijlUd1ca4NVP6T8eq1T9UWufPXH0amc7FGzMEPrSV1r26bIVWt9prxoMaZItbnlM9WZXten6vFzNzULrXSDQ+qkt42SzSG7mWq7PRvLM3svlcJP5p85qjf1f+lZC7+lpWy29vVUvufOxWmAMzeHrPqYeQOwWeoD/d8whY6r1eVa55j3tF67bq3PrNwWqcrNHP9MMdFijoq2KW34MEObDTTvUB+PsaFj+Yu+QG/Y2Gzs+1PzRxAxc0wpjigDCQQ4p1xguoJ3isNiHTcWXDqxkapXFUcuMGJ1r3fqz+/mmBwcSD9xUaKLQJQFKmomd3TldirwqvUxiKfv+dU4Uvpu62t1QnMOudVZwuMyeQYNOB8EhW/7wU/6bw/y/UH7scrEeOonSTRoXzoCiHqGlDZHRrIag7pywQLjF6muQHvrew5MBg5KfNXyVuF6iuMC3eCDFbn+Bz/tiCvrw6FJTp04KAXsa3mb+v6Fp5N7vm+a23mqE0U1elH56DFr/YyuZSWt8QUnhkUbyILlGZuOtQe58lvwTPVmasDn6/aT9KkFLDpITDl9PpiRG5gyQWd8B3OeFn+vA5rU5N4YXevLTt3X4Cf1Xu0z1YO1dqqlbC7bntTyoTYfE658n9IwoynHvftj7rTcVfZb9mHP2AAAIABJREFUWuKslWwq7/Ra9X3Jn9H3VHZrZF3f1Wv17Wt8DZ2knxtcUDpS12P0j/IxNQZIlY89YFeL+WSWfuvGHYvjHFN9YvjCV1cZUXo5XlWPllT6dGC9DP8s1dZWz5jY1klP1Rn4QGdeeE124ZDqZ+VBijbjMeXnfA19b6qvrTSpbVafgx1yuiBW+9nbmdY2mMka240BLwhOn3rulb1PN3aCRNta4r+OQUpBEvoBOvlmEX1lcmQpC5QNJ6l6vY9U8pG13/31qtvglv4xuht/Ed7mJnQ10JhbfAYPW9kT3x9z79Xe1NinKfWpbk7p+1SZqh9K8qH6Yqh8/W41upSdxywaGJqwTdGmz7RttXZR32+tz2p5oTRs5LXqTK/rU3Tp/EkJF/a+zk96v4E8y5TNqXbTaE+lY3mWKqP1szl+C7S0kM1l+Hpz5Vv57IN1qXkGDTSm5iq0vNS1+nUpXyD1Tksb0Fqfpeid+kzlpsSbIf9sGXNUY2irbf8YG1pb5kbn23JBRFVAQwpBHd/cijc6T8ub4rAYAMaCq1SvCtXQjkurf71T6OdYBxtokeJE7r7PEf2Hsp946vliRF2VIwEqG8DlUj7AbfWVnCMGhrV5l827MU5oCRfL4BkDeyamGADQh8a3odRPkqjRHBp0GK+HFLxOErLbjLw5TPAcZ4mPfkNvzgku8dXoWpV0iuNSop1+5psGnAtufZvil58g8X3t66nlrcqB1Z9KUzRZnTp4qdHXysdcO+AL37bxu5yY/OJj4uxmqD0y0egcaw/sPZ+24NmQrPn67F4DVbxvzy3VgWdqMkj1wdC3yPSoQezckJzzX2lyT/lVo4esPbm0Bj+5d2uea9+UbBrltZbNZdiTmnZPzaO44ngS1WXoElaK576jR52r6re0xFkr2cz1ker7WhnzuNXgR66e3HP9pAH9TQBtSG+UAmy5eqY8H6N/lI9Dtqy0Mt3b0FSfGL68bVV6PQ1Kn9qAZfhnU3g95h2b1MRPPOnMyzpOYlC+8f1tMOrLVP2sPPD5uDceU+6QrzHX11aatB71OTwGtJ+9nWltg+EFwTl2GSiPuX7nnof1x0rBg5pdS9rWEv+1/R7n2l9Du9o9vdyn6lUd6wPzWlfN9arb4Nb+sckivPWfn1A7wVg0dVQiPNV8lDPHntT00Zg8OkZJBVjGlJXLq7rZy3runVr54H3VF0PlEyxEd/p5A/QrAWDsMvXmaEo917Z5m5TK75+11me1vPB0bNS96kyv61M0TWmfLub1+FiGbLaYo0q13Z6N5Zm9t+zUdOVYvwW6WsjmMny9ufLtea5z5alFJ8ZD7ETuaGxfpt6rX5fyBTSvXbe0Aa31mdHYIlW5KfFmyP6MKcfoLs1RTSnTys6lQ23IvbPqz7dcEFE7EaXAzhW/6gkHn29X8H9JcbRSaErX0ADGAFWqVwWgxhGwctczZWUBK0yZbDdea0qQd/td92eDidpGfa/musQTBtdWTinvsnk2xkkbgwtrX22a4kNugFgqUycv4J/SXTNw0r7nWvtA+VWiw/+fkz2lb8rAROlbj2v6ytrm+TO3fl0NTB1MYmiZqstqJkhqeVvbr7k+hEaV65rFFcpHj1ltM9e0IxdIJ8B45Ann98cJ+/dS98rDofak3tVnLXimTmgtlobk0+jT3R3+OwN61JefKLL3SbV/DO+1aaotyi8/uNV6a6+VvhJ+asvUfMpn6tL/UteKqxayqfXX8t3y1dCbasOcZ6ZrmLRiBwf2i35Bxowuj0Vf3yr6La1x1kI2Pd/s3voAftfKmOKW9+bIktZvfV6b1tJrbR2bjtE/2o6cT8IRvYd97qwFtmvamWqj4cvbIqXX06D0qa7Vd2ro0Ty+/rH8nZrf2s+JDKyuZ4x41Il//O5d7pteqh+VByk6rA7am8J3K19badJ6VMY8BrTPoFPpV7q1r2quh3gCPZxQg51KlcUxs9ff/MOdxu9Km7Z1qC7e0fbncEawyQeQU7Tps1S9ys9cXdqOoWtto9Zbc+37cqieuf+hD1r4x7ozxC8w02/6Di0S176GTyoHc9s5931osb7zOnVu2fa+6mYv65bHp8qzEmYV36Xy0WvM89Bf1m5NbScyfpenKXWvbZvCv9b6bAwvUu1Z72eqT2r0gy7KKvW1tWWIJ4qzFrLZym4a7al0LM9SZSzjmWF5rN9itMyVTe1nlema65yOmSvf1jZL9fMr3o/Tua6ho7GtrFRqfUCbU75A6p2WNkDrr+G75qmlN9WGmmcqN6W6VC94bCxjjmoMbTVtJc9QG2rLWLV8Wy6ISAewihEQmrDssd9nu4uv+m6/6ondam/f/aDFfzg2eqyL78BWCm0suEr16urEGkfAt2s972k7K84YlPuAIpN9rFTzgV7oUyG3vqxNSzxRJV7Ku2xeqSEuOWklXLTm2Z33PLToM/rq8OPO7R5+7Jlkf6kx84M2pbvmyDBtB9faB8qvWjxYPm+crFylb8rAxMpZr1R57fnTggZdxePlQ3WZTdYP1bmevFW5Nsd6iDblo8ds7r1fPP9SvzORXU6037BFygRUzapn5WEOk7n6Wz8fkrVcXYoPH2S2d3TCR48M1yNGvFNv71qq/aN8rrlOyYXqjpKuNRqGUqWvFj9D5fn/tG+8HPq83CuuWsim1l/Dc81TQ2+qDXOemfx7mdKjexSLQ3Wtkt/SGmctZDPHO9X3tTKmxyKBoTmypPUrHmuua+nNtb30fIz+0XakfBImgM644KqF/cH2XHT5Df0uEf5TWkr1Gr683Oh7ngalT3WtvlPDc83j69c2LOtadabqLH+8MSvWPQ2qH5UHPh/3xmPam8J3K19badJ6tJ0e59pnygNPt/ZVzXWJJ5TP2O+Hdz/Y8ycVUCRInvuerba1VJe2P4WzR594ds3pOft/4qT+m9qpY+tL9eoOjVRdKXzknmldNTzXPL4vc3W0fD7XP1b/kLawk8To08VnQ7tGWtoTq7tVqsfTep3aqg7VzV7Wc3WU5EPfU31RWz42iROo0KPMySlOuebkKujWelLX2rYp/FM97Gko3ad0zBRepNq1Xs9Un9Tohynt052Ifr6ntWy2sptD/B/Ls6GyWv2n8qr9WOO3eBqmyqZioyQ7/v+cXZwr36m2sVDZ6lc/Tj/tUFpc6su1e9UnKf1g+TRtaQO0fmtjbVpLr9I+5lrlplSX4tljY0w5Rl9pjmpKmVZ2Lh1qQ+6dVX++5YKIKMNLr7l5p8ndlFBxnMqTz7ww6LS0UmhjwcVEtNGc2lFjk2XkqdnZtSpAZcDImfgM0Kx9qePuoFd5oEayRVuUf63LHkufGuKSQ17CY0ueIUt8I836ietUsNfaq8ZMJy/4n0A9q0opq9RG8usRA9748F0eME9Z3tgYLWPTEl/Hlrfs/Mprz58WdX/tyhsX/e7lA1zosZG+r339enTDlEGfL2/onu852URUqS5/rEqpHal6mdziOFO/MIVJpFR+ezbWHth7y0h1QQorvkp1MKnGN2qRv6FAFfzFMTf9Yd8j0JXmHzns5OwEIXQoDlvgfIyuLfGB/1UOp+CnVIc6ul4OU++2ls2W9iRFb+tnfHsqZWPU/kyxGRvtt7TGWQvZzPWd2tIaW2/laBuRe3s+NtW+HlP/2Hqm5B+jf5SPKVv23Asv958HAO/40DfffneWZ6V6jfdeNvQ9T4PSp7p5Gf7ZFF7XvqPfYtF28L7an5T+Vf3s3/X1G4/pL28rWvraSpPWoz6HlwvtZ99O5UGpjb7NY+85wpQj9VmsqAu0zHfw5WlbS7SpXvDfhKRcLYvPZ+QClz5vql7lNf2NHfW0195vNhus7ZrqH6e+e0hZ+Ivws7T4DBpU3ubYE21Pi2vVmykctq7Dy3qufMWstwP+HdUXteX7MhgjsehFd/6mjhv07yn/vE3yeVP3rfVZC16k6FzWM9VzXten6tQFEW99z4EdOxNT+fTZXfc+1PskyGpqMW8r2WxpN5V+fz2WZ/79ZdzP8VtK9NTK5jJ8vbnynWqbzjnYDnYdA+Fr5I7GTpWnzxTLKV9A89q1tnGuDWitz4zGFqnKTYk3Q/7ZMuaoxtBWy4sxNrS2zI3Ot+WCiExY42BivPh4OwFFgoX2PSscFhxRdsYNBUSs41TYpzgsVs4YcGEYdeVE6qPsesRAjUNtdKxKCu81QMWqAU9bK977crlncA1G+KWCtKl3lvVsjBNa4knp/zFtUMzCJ52QSJWjxtTn1W+E8B1D5DRVBs/YSczRAtY/3vio44jx93Xlyh163pJvQ/W0+k957fkztw6/EjilfzTIqyu7fN0M/BlEWF/O0aG+7NS9fhOttOPoezvuXeyyrcF3qj579vSzv+pYcUk5TOgyiLL/UqnKVs2xk6kyWj3TAZ852ENlP/H08x1HjdHWEo+RTZsMtAkCPUoxNzlo9ev72Atk3/6bko7RtTXlqxy20EO+TnV0qcv/n7pvKZubTS9a2/13rnVl9G57HNxxn+Jd6dlG+S3LwJnK1hTZzPFKMTNmglEHiqXFBbm6ea66tTQZOlTOMv4bo3+Ujym7qf+X+Fyq1/Dl+aXveRq0fvVBluGf+b6gDvxExg18rxg6fZ7ae/UZdNcT7+tq5tQYRfWz8iBVt/E45WsoZlP/+/KGylKa1CZpHR4v2s+UrfWpnmhhg7Xs3DX9e8nVNy38RhYtTdkRqOXrroNUecrTUl8qj3N59QiuqbscoF/lzMugtm/ONX76ld+6rcc7/mDN9yjH1DfWP9YFEnbMnE4Em70aoqGVPcnVMZVnGpSZM3mdo4vnihkv67n3dHFgaYyuY6fa8nP16slhNb6Ztm3KAvrW+kx151xepHg0FWepsnimusvr+tQ7igtsU2nMhu7mxDfy8kvND7SSTbVpc+1mqu32bCzP7L1UCn8IAL78ym/W2NlU3qFnc/yWoXL1v5Js0habx13luTjFiW1a0WNOa+Y9lC96PcZvsPda2oDW+sxobJGq3OT8JKtnyD9bxhzVGNqMxlKqOGs5r9dKZ5ToT/2/5YKINuhr1YHqsMxx4BVcfqDuO06PVeGIB+59Hj/Rz0Q9zobPt8r3KsQpZ4b22MrD0krrse3UHUtzDMjYelP5xzihJTy25JlidshBY8DJAFSPqtXJC9qszgZlnf/165IBAdoH5sljv5Tx0ZWqpVXDKZ77ZyW++vwbfT/FcamlWQeIOf2jjgu7ijlCw5cPFv33muboUF9+6l4xi1PLMYapfKzu1hWwQ/hOve+fab01ZSEPupuzNDDz9bW8x6FFB0I3PGPhDfSl6iCIwneGTTZLk2NaNpNBLB4wnc4KPBz5VD32TB197CaDGvtvSjpG19aUr3LodV7N+6U8JRuZer+lbLa0JylaWz+z/vCrn6+9YfsimD0nQAW9pT5ZBs+sXTW6pZanc2UzV4/a0jGTanrEakkP5eq257pQgUmOmgWD9u4y0zH6R/mYspv6/xCf/ff9UnkNX35sovR6GrR+76O19s98n3zrxh2LhaHIxAc+ckz3zHMvTrIN1g4wxzFTVhfywQJUs4upleqqCzwPrBxLjccpGa71H2p8baVJbZLW4TGg/QydRjNpaxusZQ9dQzu84uexZ+9pW4f4z3j5M8eds+hL7IGVYan2T64s/CLoQk6MtlxenRRjbIRfbXWNSZdhT7R+cL7vwScs2jNX92rZdq3YS+Hf8lkKn3UhNf6x6XToS8mivWtpS3tiZVo6h2e+bXN0l9HjU9Np8NrLus+r9yoDuTEJ3zdU/I8pX+uya9U93v5YHk11x4oFmPX/0nVrfab0z+WFp30OznxZdq860+t6y+NTsGD6roRXxmi2CDy3waGVbNbqlRq76dus91N4pu/bNbr8cydf1I9F0GMnnPH1Dttk/49JTcan+C219Si2c7LZ2tezdoG3nN2vpV/zKYaxLSwYg3fUM3Q0tpaRuladmfMF/HstbUBrfeZpnXOvcjPEm5J/hh5sPUdVS9uY9tOvref10HFsiDP9O3S8/xhaa/NuuSCiCTRBp+/e9qPsZGgtA1spNDV2OWUMTazYYxW9ASYXbCEvE+G00/JyBAwKJdU26v/JA48lV3Om8s95xgoZHL2h1Yz8T/DHaE/tdoIGnfxj0v/q62/PGl0EGP59/477iu3UlY7QwKpRb8wpjwAu7ZnDj9K7aqhLTmgNHlvxzB/3+OnjzulX+Wt74M+2I09f9KP1p05eWH4dVONk6m4teK2Dc1YkWlkp44NRsQke8h10+Gnd4z9/LttPrKaj/twOlBq+WjtWITU9R9tT/JlCIzqC1d8WXMPBygWUvFHHCdOJWtVj6DsLMLd0CnNtVGeR3YHa5zqYoH3veN+2Bc5SmEUGOF5raNUg2OWbPjZwqllNC+3qxPAu+tm3ab30Nrs5zKGmr1gU4PU3+pF+tnzQ/OAjT+1Es2+DTf6A1c9+4YLFSQE48vDO59d7/tfvfhHUxu552uwdntPfqb4kzxhda2UOpSqHuTqH3i/9pxihrlJ+/m8tm63sSQ3ttXnwH7bf+dM1C6fUxzJeoZNYSIAOAn9gNzWBTL2r7LcsC2dzZDPXV2pLS/6MloGu1d076CHsEf2q+eyab2/l9I8uxKPPjz3lq4O71ZjcAU/gyspfRjpG/ygfU3ZTV6LTRnxj1afowlu239PvFgf79kv1ieHLj02UXk+D0ud9kNb+mfaFHuNlbSJN7XjQ97hGR2Mf1H7wjPe17YyjGE9Z+fiatMmXp/rZ88DnNR5TprcVLX1tpUnrUf3oMaD9bLrT6G9tg1/41Ssdpxmov2h1WYo86mRMahcoebWtOf7jt5x54TULvyW36M12sdM/H/748TvpAnTDcaddvCjHsJGrV/lNXvCFLUq1Gx4PjTWXaYPtCHBrD2nphAnrp2X6x7rzcL+DT+z++WNvBPRrF/22tCfWXkvn8IwyVHfCb76vzjhD9bfVBV5YfJezg5ZPUy3fy7rm89faLh8sQmfy6QYbHxpecuUjd7RpiG4r08aH9DH63dOl916umH9goYzm4TrnH7TWZ6o7c7zwtNXea38Yv2tlM1eH6kyv63PvoPtsEh86mKNkjO/z0992Ig/5Tjnnig459PlaySblMKY03sydo/J02v0Untm7murcBDTjt9UsiGjtt7SUzda+nuou73MqL8dea7ANjNonkZjHIKg9tjzLr35dzhewvJpqO8HCVBvQWp8pjXOvVW5yvKn1z1rPUdXQNqX9Wm6LeT3dhWl6jnH7FNqmvLPlgojagTD8Le/+aPePex/e//Y84Jj+nHx2UvBj0O0HlJ7JKuhzFJp3fHCacH6YpOdoVZyzo068YDHZDu2liDPOJUYaQ2Tg4nr3fY5YtPOYk77Sr0TjONc59Hu+DN1bH1Dn33/wk93hx5/X8xuen/jlS9ccLwvduQE6daBgGLhZ+0jh3f6HnrQoEyVO35pzW9NOFC8BWi2X941WUgsw6EB8qN1T/xvjhNbgsSXPdJURvEIpgil4/g97vfGNQ56Duzf/9T4LfqZ4hgwccvSXF3kMk2BCP7SOg4psWt+ApxRvGVjZ5LDlfeeeh/X0mYyzI4WjF01GUnRRdg1fUzQs+xmO+unnX73AurXrvf//6EzazQDbnluqK+qNRgJhHDNieSxNyST8Ousr1yYnPKw8NerQQR9SFvJnx0fTPwyEGFyRp0Y2rfypqR/woC+YEASzdgwntLC6R49dSWFD9Tb6wdsQZAHMUZ79CHqlJgN8e/geL/rR3oPnlA8P+X3owON6XbcePGPSTo+dhSZsp+pD06/8B09vuPXOpFz6duqqU2sri190EYF/R+/Z5fp/PvnFBZ8oA1qg1zBMPyAT0MX/9LWWYddjdK29M5RSj7UphZ+hd/W/nGwi21Y+7bP2WorfoOXYdUvZbGlPjL65qeprcMqkL36C7WLf+6Dje3woZuEjfEtN4kLPKvstrXDm+T5XNsGfYdHSIz5/3mJxGyvRCQbYf6To3NyiDHaT6eIg+sz7e8i9+WY534B2Xn/LnQt9QDnoV/WNoYVdqVaWBpE8n1rdj9E/ivGUDWACTb85q/YDva3YR9/agsPURKfhy/NA6fU0KH2pfmjpnyn/lSbTjaQ13/O1durYxHxSjvADu2AEXlrZ+Ly5HfCmM8ib4oHSbXWTN2UrWvnaSpPWo76Mx4DyFDqVbq5b2mBoggfwGH9M7TgyydjO7Dj5cqdhQJe21fBPwBBe8sN3Vp+PssCtbx/3GrSiXuQHOcIXwy9TTIAV8vAb6nfqMptk+b3vgg7ChvG/9pfSuEwbrDw0Gmu/faaYol0t/WPazLGlRpOluYCy8suuW9oTK5N0Ds94n/EBPpqNk6xtOn5FDt+//9G9LHh5VVpa2mCdaIcmkwFo0fE+AUY7USRHm+oU89GQJfMFkC3DPXUhX7kFXtpergnGqzyiL5hPo2zGAtDK/znZbKnPtJ05Xnj6a+/n4Kz1mEJPKKK/wC6+mo1XvY7EX/jlSzufUGRtbyWbrewmdLXmmbXVUvUBTOZzGLV3SO29Vn6LYraFbLb09dSv9D6n8mTsNTpXd7cb/1NHm6fKbjkXR/ktbUBLfZZq+9Rnqr/Qx+iIqf5Z6zkqpa1GBmt50HpeLxVE9J9rqaVtSr4tF0QEaP4IPVMWuZTJb463TDG4lUJTZztHhz3HUOAo806KJn3GhNhl19yyZsLAyvFpS4WsNPhrFU5Pg79ncri0+hs+wA/vcPuy7J5B6auvlXkHVnSbsL3v09zAzrd76r0a9JITWovHVjxLBao9fxhoXPXt27qLr/ruYsCX41nKcdTy6DtWKttEA/8NKfgf3/fImgCkluWvMWKp4Br9VsvXqX089T2ly7dn6D7FM8XZ0LtMutx8+93FQFgJG0ye3HXvw2t2f62XDoJvfvLG2gwOOOIOGVFdlcIseaDZ3h1K0U9MkOeCFCkM+KOBUuWvF8/Qh3bUSooOe/b23Q/qd+3UBEpps18tSjljj5REJxx5wvlrJg6MnlSam1BWGSjp2lR/+Wc2uIOGFH58/ty90pVqT+4Z9afKbC2brexJitYpz8bqRWwUC7aYmMzVp7ogx297vt5+Syuc+bbPlU2ly3hTSktyN0bWU3bO2oh+wo6hr0o08X/txLmVPyVVOS/xQTGeswElf4p2Mb7BDpsdS9Vr/dgyiAh/WvlnymsfPKWNTCLX6F9rZw0eyMOuNXaIaf16rTpjCIu8o3WnaC3pbOip8bWVJq1HfRmPAcUldGob7XqMXEJrzgZDUy3/wW5utzF0aVtLZdKXTzz1fLJtlJWb1NNy8fHOvujaXq/Y81K/Uyd1W/6hVPvL+G7psmywD55CH4F16rO6c6liaqhd/DfFP+bIOS03dzxijj6ej8FtqS+tnjk8szLG2Ccvr1YGqeoV5dXQ9VB5Pljky7ExutWbK0t1ii/D36PX/E56baO/RleyyJWxnC9L74f6cwwuKDOnz7SdOV54+mvv5+BM6VKelK5z+h+amT8p+VP0CfNqqd2hvt1j+iDXl63sJrQtg2faZh/wZGEXJ+tontS1yVqp7+z/kt8ypp21stnK16vxe1M8qnlGsFMXAIFV+qTmXaXL+FyT5nBLna1sAGWNkSXozumzGl7U5qHtNTwiT8k/o86Wc1RK21Af1bZV87Wc10O/+ThFazujtPvrLRdEZJJIjy5hlbHtRCRl50cqGMVq09RgRRVHbiDvmZ66V2cbxQVdSgfXDJjOu+S6/hiGVBlDz1iJwMo2VuSj9E1wueYZE2gc7zBURqv/ONKAPqBeAhLq6NFOBOCLZ1/RB25QorX1Qj/8sdV52kZWOLDqlBXDelRRqWzyIvCseNRVcVyz3Z1dokMTj6Xya/5Xg15SDmPx2IJnxqOPfuqUxQph+pFVaGAO7NFOVcpDg2EMAcEW28FFWaysYPBifacTDSUFj5IlP31ouwrABrizlc6s1jQ6U30ylq+pMpbxTOkyvNekKZ4pzrQMk0kc1XsfeGxUEIz+4sg0sEA5lMsqULbb08/wROudo0PH8pfFCSededlCrplo/MQxZ3Z3//SRRYC0hFkmLDkemd00HIGhOoK2qn6lnWNpNP6g19D/xkPrE3Y1srJpSrlT3kEfM2mKfrbVvNZOAn+sAK6ZXPJ1+8ETx7r4PKV7pQ09abyCPltNyZFkTNrl7IpisaRrS/Twvw7uhnReqSyli/bU/oYG/MuQzRb2pMSLmv+xyT/40c8WfobqfeMdz5jwKul+q2+V/ZZWOLO2ajpHNpUu43sprZG7IVmnX7H1+GY1uog86C3d8QON6A/GAxyHVVuW8m3Ktcp5iQ9q+4fsJnYW/1530GGX4BE6Cf9Ixx+peq0fWwcR4VEL/8zzmglKdmHSh4zdrrl+e1bn67vYUiar2QXDN3l1xxuY4J7xRe1YQv2HlM+ldRuPqSdnK1r42kqT1jOEAcUldCrdej0kl7U2mE9J4B8ij348bj47i5lYgW3jAaVBr7Wt1K9jX/iMrqAsjoovlUW5tI8xJMfiWVnQhGzp2By+Uj6/Ur9TLnVDA7TomFjby5H4yIq2L3Xd2gbTZo5yhi7kadsRpxcX9hpdy/aP/c44dNqU8fgQbsfaE9o+h2fGO0tz9sl0EWPlIZ9W9YphspSmbIDRQ8oYQGUAWhj/M1dicmT15sqin66/+Ye9rmXuzeTJaENe0QH4ZzZWVBpK1yaryBR9aOVSD3NPnIBTKncIF7X6THVnjheltuT+n4Mzpct4U5MO6X/oVLxan6LHGC8ybgQ70J1rk38+1Ae1sgkmwebcOapl8czajH7/2jdu7P2Mv3zXAR3jYJMny5NKW/sty5LNFr5erd+b4lPpGfoAnWNyUHs0NuUqXfZ+TVrjH6hMoXes3FobYO0ekqVafWZltUhb+2fQpG2cM0eltNX00Vh+oEtazeuxC1aPiW5tZ4batqUOPOIaAAAF8ElEQVSCiDi0HO9pAkikPedw8o00VoDg3Fj+McdkDDE99Z8O4PxAPZU/nv1HtRMSvApeBQbKGMBZ5XsTNRMVwc8yP4NHwaPAwOpgwCZ2w79anT4J+Yi+WGUM6LisNHm6yu3YqrQteyJoq/I12h16OzAQGAgMrCYGwm9ZzX4JeVnbL+GfreXHVHwQONVvhA8tKp1aR+69LRVE1JUCtSsM9MPFy+wYVfoxydVGsHKgj+fB38BAYCAwEBgIDGwdDNiAZT1X6QW+tg6+oq93vb7WnQfLWI0cmFkuZkznsxA4+m+5vA4sB38DA4GBwMDGYyD8lo3vg5CDch+Ef1bmUQ2O/A5aTvKoea9Fni0VRLSV6AwoagOCHH9mOxH5ThYR3xaM92VEELGNMHm+xn3wNTAQGAgMBAYCA1sbA5w8Mcb3C7xsbbxE/0f/P/To0/23MNEbevRnYGNzYCMmqTZHP4U8RT8FBgIDgYE2GAi/pQ0fA4/L5WP4Z/P5y2maBA05MppxCp9b4Ej79cLulgoi8tFfYzTfyeAbBDlGEyzkGwTko2N4r/YDq7kyh55HEHG+MA3xN/4L/gYGAgOBgcBAYGDrYYDj6T917Nm9L8exH8taDBbY2nrYij7fdfuc7+796V/t2fF9ogcefjI7XgwMrCYGYpJqNfsl5CX6JTAQGAgMLAcD4bcsh6+B17Z8Df9sGj/55vv3dtzbf5udb1UTo+LHKZZ8+3U9cbqlgogvvPjrbq8Dj10wnI+E/8shX+jO+eo3+wDhrTvu6dMzL7ym2/OAYxYBRzrn5LMuX+q3wlYtiPjyK7/p+GA37W7xe/CRp9YV2OspRFZX8GyaQjT+RRr8CwwEBgIDgYHAQGBglTEQvl7gc5XxGbS9gc+YpAo5DVkIDAQGAgOBgcBAYGAaBtiA1SIOQBmXXXNLx6Je+iL8s2n9oZ/mswDiHvt9dkMWOm6pICKgfezJZzu+h2iML6V/vtt+3aXX3NyxZXSZCmjVgoh6pnaJRzX/b4WjgIJn0xTiMuUqyo4+CQwEBgIDgYHAQGCgFQbC1wsstcJSlLM8LMUk1fJ4G7gN3gYGAgOBgcBAYGDXxoD6UTXz/UN59FNyWi7XgaM6HFkQ8R3v29YdesxZ/acWfvv67zeEf1suiAhIX//dH/qjTI//0iXde/c9qnvT2/ZeE1SkY7YddUZ33U13dC++/Oq6dEwEEeuEZ5WVTEwsbf4+XGV8BW2Br8BAYCAwEBgIDGwsBsLX21j+B/6D/zUYiEmqwEkNTiJP4CQwEBgIDAQGAgM7Y0D9qKEAYc1/EUTcmb+bGXNbMoi4mTssaN+1BDD6M/ozMBAYCAwEBgIDgYHAQGAgMBAYCAwEBgIDgYHAQGAgMBAYCAwEBgIDgYFVxEAEEf89gLmKwAyaApeBgcBAYCAwEBgIDAQGAgOBgcBAYCAwEBgIDAQGAgOBgcBAYCAwEBgIDAQGNg4DEUSMIOK6HNcaQr5xQh68D94HBgIDgYHAQGAgMBAYCAwEBgIDgYHAQGAgMBAYCAwEBgIDgYHAQGAgMDAWAxFEjCBiBBEDA4GBwEBgIDAQGAgMBAYCA4GBwEBgIDAQGAgMBAYCA4GBwEBgIDAQGAgMBAYCA2swEEHEAMQaQIyNQkf+WLkQGAgMBAYCA4GBwEBgIDAQGAgMBAYCA4GBwEBgIDAQGAgMBAYCA4GBwEBgYNfDQAQRI4gYQcTAQGAgMBAYCAwEBgIDgYHAQGAgMBAYCAwEBgIDgYHAQGAgMBAYCAwEBgIDgYHAwBoMRBAxALEGELFSYNdbKRB9Gn0aGAgMBAYCA4GBwEBgIDAQGAgMBAYCA4GBwEBgIDAQGAgMBAYCA4GBwMBYDEQQMYKIEUQMDAQGAgOBgcBAYCAwEBgIDAQGAgOBgcBAYCAwEBgIDAQGAgOBgcBAYCAwEBgIDKzBQAQRAxBrADE2Ch35Y+VCYCAwEBgIDAQGAgOBgcBAYCAwEBgIDAQGAgOBgcBAYCAwEBgIDAQGAgOBgV0PAz6I+P8AT8470rwRCkEAAAAASUVORK5CYII=;" vertex="1" parent="1">
          <mxGeometry x="160.79" y="780" width="474.49" height="48" as="geometry" />
        </mxCell>
        <mxCell id="SuCCwU2PgJYkHePNsg9u-23" value="Platform Team" style="shape=image;html=1;verticalAlign=top;verticalLabelPosition=bottom;labelBackgroundColor=#ffffff;imageAspect=0;aspect=fixed;image=https://cdn2.iconfinder.com/data/icons/essential-web-1-1/50/group-customers-team-contacts-family-128.png" vertex="1" parent="1">
          <mxGeometry x="341.28" y="410" width="48" height="48" as="geometry" />
        </mxCell>
        <mxCell id="SuCCwU2PgJYkHePNsg9u-24" value="Delivery team" style="shape=image;html=1;verticalAlign=top;verticalLabelPosition=bottom;labelBackgroundColor=#ffffff;imageAspect=0;aspect=fixed;image=https://cdn2.iconfinder.com/data/icons/essential-web-1-1/50/group-customers-team-contacts-family-128.png" vertex="1" parent="1">
          <mxGeometry x="626.28" y="420" width="48" height="48" as="geometry" />
        </mxCell>
        <mxCell id="SuCCwU2PgJYkHePNsg9u-34" value="Kubernetes Cluster" style="rounded=1;whiteSpace=wrap;html=1;horizontal=1;verticalAlign=top;" vertex="1" parent="1">
          <mxGeometry x="160" y="920" width="850" height="310" as="geometry" />
        </mxCell>
        <mxCell id="SuCCwU2PgJYkHePNsg9u-35" value="" style="aspect=fixed;html=1;points=[];align=center;image;fontSize=12;image=img/lib/mscae/Kubernetes.svg;" vertex="1" parent="1">
          <mxGeometry x="570" y="950" width="30" height="28.8" as="geometry" />
        </mxCell>
        <mxCell id="SuCCwU2PgJYkHePNsg9u-36" value="Namespace" style="rounded=1;whiteSpace=wrap;html=1;horizontal=1;verticalAlign=top;" vertex="1" parent="1">
          <mxGeometry x="340" y="990" width="660" height="230" as="geometry" />
        </mxCell>
        <mxCell id="SuCCwU2PgJYkHePNsg9u-37" value="" style="html=1;dashed=0;whitespace=wrap;fillColor=#2875E2;strokeColor=#ffffff;points=[[0.005,0.63,0],[0.1,0.2,0],[0.9,0.2,0],[0.5,0,0],[0.995,0.63,0],[0.72,0.99,0],[0.5,1,0],[0.28,0.99,0]];shape=mxgraph.kubernetes.icon;prIcon=ns;aspect=fixed;" vertex="1" parent="1">
          <mxGeometry x="655" y="1020" width="30" height="28.8" as="geometry" />
        </mxCell>
        <mxCell id="SuCCwU2PgJYkHePNsg9u-38" value="Pod" style="rounded=1;whiteSpace=wrap;html=1;verticalAlign=top;" vertex="1" parent="1">
          <mxGeometry x="700" y="1080" width="120" height="60" as="geometry" />
        </mxCell>
        <mxCell id="SuCCwU2PgJYkHePNsg9u-39" value="" style="html=1;dashed=0;whitespace=wrap;fillColor=#2875E2;strokeColor=#ffffff;points=[[0.005,0.63,0],[0.1,0.2,0],[0.9,0.2,0],[0.5,0,0],[0.995,0.63,0],[0.72,0.99,0],[0.5,1,0],[0.28,0.99,0]];shape=mxgraph.kubernetes.icon;prIcon=pod;aspect=fixed;" vertex="1" parent="1">
          <mxGeometry x="747.5" y="1100" width="30" height="28.8" as="geometry" />
        </mxCell>
        <mxCell id="SuCCwU2PgJYkHePNsg9u-40" style="edgeStyle=orthogonalEdgeStyle;rounded=0;orthogonalLoop=1;jettySize=auto;html=1;strokeWidth=2;fillColor=#d5e8d4;strokeColor=#82b366;" edge="1" parent="1" source="SuCCwU2PgJYkHePNsg9u-42" target="SuCCwU2PgJYkHePNsg9u-38">
          <mxGeometry relative="1" as="geometry" />
        </mxCell>
        <mxCell id="SuCCwU2PgJYkHePNsg9u-42" value="Service" style="rounded=1;whiteSpace=wrap;html=1;verticalAlign=top;" vertex="1" parent="1">
          <mxGeometry x="530" y="1080" width="120" height="60" as="geometry" />
        </mxCell>
        <mxCell id="SuCCwU2PgJYkHePNsg9u-45" value="" style="html=1;dashed=0;whitespace=wrap;fillColor=#2875E2;strokeColor=#ffffff;points=[[0.005,0.63,0],[0.1,0.2,0],[0.9,0.2,0],[0.5,0,0],[0.995,0.63,0],[0.72,0.99,0],[0.5,1,0],[0.28,0.99,0]];shape=mxgraph.kubernetes.icon;prIcon=svc;aspect=fixed;" vertex="1" parent="1">
          <mxGeometry x="575" y="1100" width="30" height="28.8" as="geometry" />
        </mxCell>
        <mxCell id="SuCCwU2PgJYkHePNsg9u-46" value="" style="edgeStyle=orthogonalEdgeStyle;curved=1;rounded=0;orthogonalLoop=1;jettySize=auto;html=1;strokeWidth=2;entryX=0;entryY=0.5;entryDx=0;entryDy=0;fillColor=#d5e8d4;strokeColor=#82b366;" edge="1" parent="1" source="SuCCwU2PgJYkHePNsg9u-47" target="SuCCwU2PgJYkHePNsg9u-42">
          <mxGeometry relative="1" as="geometry" />
        </mxCell>
        <mxCell id="SuCCwU2PgJYkHePNsg9u-47" value="Ingress" style="rounded=1;whiteSpace=wrap;html=1;verticalAlign=top;" vertex="1" parent="1">
          <mxGeometry x="357.5" y="1080" width="120" height="60" as="geometry" />
        </mxCell>
        <mxCell id="SuCCwU2PgJYkHePNsg9u-48" value="" style="html=1;dashed=0;whitespace=wrap;fillColor=#2875E2;strokeColor=#ffffff;points=[[0.005,0.63,0],[0.1,0.2,0],[0.9,0.2,0],[0.5,0,0],[0.995,0.63,0],[0.72,0.99,0],[0.5,1,0],[0.28,0.99,0]];shape=mxgraph.kubernetes.icon;prIcon=ing;aspect=fixed;" vertex="1" parent="1">
          <mxGeometry x="402.5" y="1100" width="30" height="28.8" as="geometry" />
        </mxCell>
        <mxCell id="SuCCwU2PgJYkHePNsg9u-49" value="Namespace" style="rounded=1;whiteSpace=wrap;html=1;horizontal=1;verticalAlign=top;" vertex="1" parent="1">
          <mxGeometry x="170" y="990" width="150" height="230" as="geometry" />
        </mxCell>
        <mxCell id="SuCCwU2PgJYkHePNsg9u-50" value="" style="html=1;dashed=0;whitespace=wrap;fillColor=#2875E2;strokeColor=#ffffff;points=[[0.005,0.63,0],[0.1,0.2,0],[0.9,0.2,0],[0.5,0,0],[0.995,0.63,0],[0.72,0.99,0],[0.5,1,0],[0.28,0.99,0]];shape=mxgraph.kubernetes.icon;prIcon=ns;aspect=fixed;" vertex="1" parent="1">
          <mxGeometry x="232.5" y="1020" width="30" height="28.8" as="geometry" />
        </mxCell>
        <mxCell id="SuCCwU2PgJYkHePNsg9u-51" style="edgeStyle=orthogonalEdgeStyle;curved=1;rounded=0;orthogonalLoop=1;jettySize=auto;html=1;entryX=0;entryY=0.5;entryDx=0;entryDy=0;strokeWidth=2;fillColor=#f8cecc;strokeColor=#b85450;" edge="1" parent="1" source="SuCCwU2PgJYkHePNsg9u-52" target="SuCCwU2PgJYkHePNsg9u-47">
          <mxGeometry relative="1" as="geometry" />
        </mxCell>
        <mxCell id="SuCCwU2PgJYkHePNsg9u-52" value="Ingress Controller" style="rounded=1;whiteSpace=wrap;html=1;verticalAlign=top;" vertex="1" parent="1">
          <mxGeometry x="185" y="1080" width="120" height="60" as="geometry" />
        </mxCell>
        <mxCell id="SuCCwU2PgJYkHePNsg9u-53" value="" style="html=1;dashed=0;whitespace=wrap;fillColor=#2875E2;strokeColor=#ffffff;points=[[0.005,0.63,0],[0.1,0.2,0],[0.9,0.2,0],[0.5,0,0],[0.995,0.63,0],[0.72,0.99,0],[0.5,1,0],[0.28,0.99,0]];shape=mxgraph.kubernetes.icon;prIcon=pod;aspect=fixed;" vertex="1" parent="1">
          <mxGeometry x="227.5" y="1100" width="30" height="28.8" as="geometry" />
        </mxCell>
        <mxCell id="SuCCwU2PgJYkHePNsg9u-54" style="edgeStyle=orthogonalEdgeStyle;curved=1;rounded=0;orthogonalLoop=1;jettySize=auto;html=1;strokeWidth=2;" edge="1" parent="1" source="SuCCwU2PgJYkHePNsg9u-55" target="SuCCwU2PgJYkHePNsg9u-57">
          <mxGeometry relative="1" as="geometry" />
        </mxCell>
        <mxCell id="SuCCwU2PgJYkHePNsg9u-55" value="User" style="shape=umlActor;verticalLabelPosition=bottom;verticalAlign=top;html=1;outlineConnect=0;" vertex="1" parent="1">
          <mxGeometry x="30" y="1080" width="30" height="60" as="geometry" />
        </mxCell>
        <mxCell id="SuCCwU2PgJYkHePNsg9u-56" value="" style="edgeStyle=orthogonalEdgeStyle;curved=1;rounded=0;orthogonalLoop=1;jettySize=auto;html=1;strokeWidth=2;entryX=0;entryY=0.5;entryDx=0;entryDy=0;" edge="1" parent="1" source="SuCCwU2PgJYkHePNsg9u-57" target="SuCCwU2PgJYkHePNsg9u-52">
          <mxGeometry relative="1" as="geometry" />
        </mxCell>
        <mxCell id="SuCCwU2PgJYkHePNsg9u-57" value="Browser" style="verticalLabelPosition=bottom;aspect=fixed;html=1;verticalAlign=top;strokeColor=none;align=center;outlineConnect=0;shape=mxgraph.citrix.browser;" vertex="1" parent="1">
          <mxGeometry x="111.86" y="1093.75" width="21.29" height="32.5" as="geometry" />
        </mxCell>
        <mxCell id="SuCCwU2PgJYkHePNsg9u-58" style="edgeStyle=orthogonalEdgeStyle;curved=1;rounded=0;orthogonalLoop=1;jettySize=auto;html=1;strokeWidth=2;fillColor=#d5e8d4;strokeColor=#82b366;" edge="1" parent="1" source="SuCCwU2PgJYkHePNsg9u-38" target="SuCCwU2PgJYkHePNsg9u-60">
          <mxGeometry relative="1" as="geometry" />
        </mxCell>
        <mxCell id="SuCCwU2PgJYkHePNsg9u-60" value="All service traffic internal to cluster" style="rounded=1;whiteSpace=wrap;html=1;verticalAlign=middle;" vertex="1" parent="1">
          <mxGeometry x="870" y="1080" width="120" height="60" as="geometry" />
        </mxCell>
        <mxCell id="SuCCwU2PgJYkHePNsg9u-68" style="edgeStyle=orthogonalEdgeStyle;curved=1;rounded=0;orthogonalLoop=1;jettySize=auto;html=1;startArrow=none;startFill=0;" edge="1" parent="1" source="SuCCwU2PgJYkHePNsg9u-67">
          <mxGeometry relative="1" as="geometry">
            <mxPoint x="670" y="1110" as="targetPoint" />
          </mxGeometry>
        </mxCell>
        <mxCell id="SuCCwU2PgJYkHePNsg9u-69" style="edgeStyle=orthogonalEdgeStyle;curved=1;rounded=0;orthogonalLoop=1;jettySize=auto;html=1;startArrow=none;startFill=0;" edge="1" parent="1" source="SuCCwU2PgJYkHePNsg9u-67">
          <mxGeometry relative="1" as="geometry">
            <mxPoint x="500" y="1110" as="targetPoint" />
          </mxGeometry>
        </mxCell>
        <mxCell id="SuCCwU2PgJYkHePNsg9u-70" style="edgeStyle=orthogonalEdgeStyle;curved=1;rounded=0;orthogonalLoop=1;jettySize=auto;html=1;startArrow=none;startFill=0;" edge="1" parent="1" source="SuCCwU2PgJYkHePNsg9u-67">
          <mxGeometry relative="1" as="geometry">
            <mxPoint x="840" y="1110" as="targetPoint" />
          </mxGeometry>
        </mxCell>
        <mxCell id="SuCCwU2PgJYkHePNsg9u-67" value="" style="shape=image;verticalLabelPosition=bottom;labelBackgroundColor=#ffffff;verticalAlign=top;aspect=fixed;imageAspect=0;image=data:image/png,iVBORw0KGgoAAAANSUhEUgAAAOkAAADYCAYAAAAOEcTrAAAgAElEQVR4Aey9B3hc53kmCidxVafEDhCNBAEQIAmCXaQkSrbsuKTfbPauN4kTZ5NNnGRtx765yfMku1nHN87eJBsXFTZ0zGDQCVaQEklRXRR7B4g6vbcz5cycee/zfv+Aov3IOLSGtCxfzvMcYIAz5fz/+b//a+/3fkW4+5h1BjJGFsgASAPIAinkEMumgXgK8KeRS2WRTmeQSqSBlCGv4QfmeGQBJwx5DgOQIwV+CBLZLLw8kwWQyQFpQ30P/84B/F4tzRff2YcGAyk9DSOaAGJpQFfjlGvldfF6dKhxGjkk1eWr/8eySCd1QMvINfOlnKtcJCXji8qfOZk6TiGyOQ4c0LLyfnn9nR3ez8WnF/1cjOJODiKhPjyADHhkKEEUOEAWrAgwX8O1CsCHLMLZFLwZDaOI8x+II4sI35AD3OkY7EjL2ygAXLwzewB/31i4lPL896hvuzM/ueHwq+RHXiaTyCGBLFK5LEeAcP6IUaCzGSSNDMIw4OX7tJyMLcEPiCVlLBRkOcVNRs8Beha6riOVSkFPpWUD4mv4uXcf5jNwV0hN5ogKlMInC4+rmf/IACHkcI0LMwcEAHgAOJBGR+AiPjXejfnOZlRqffifkZNwR4KAlkZoRgSzOYR0Jf3Ulfx8ah0KchQGtAw1tK4WuMn1FXw6rTYJHziOnAiQCBVyMq4bGwfHnspgKujFLtcpfMY1iHs8u/EbyaN41Tum5oUXQ0UZiytrg3PFjSYv/PyT481P4cxsFDyEn/cPuCukJnfYL7ohv7Jo0WYzCORSiOV0GIYBRBJA1sBLhgvbpm2459p3scJrwdpIPx527UKFqxUrwt3YbYyoFatT+AwgbiCZTgBJ9TlcvNRa6sggmUwiE6X43tmHHk/AyGRvaHPR5Aa1n6E2iVBSrjWjp7A7eVnGUuT7HooC27EsYsO6661YkO7Gf8EbGNODMheIZ4BACjAMGQ/HNmMx8DeFViQ1LH/d2QH+HHz6XSE1u4k01+I6ctEEopkU/MgpM40aIgYcRwS/5z+IipHnsCbQhXX6EBZHO7DGZ8VfRI9j0dR2LNe6cW+mE1tTe3EiPYV4OoZwMgzEMmIu8vPp42YyNKfV+qW20WU1m11gYefdlBZ+KdU43dKcDtmYKK0hnspgu34RtSErigLPYWG0HY8m9mCjNoilUSuWJrrxmNuG4lgnFmd78E/aSURyGpDLAOkMInoS2URK5hApZczLT35n3pUobAQ//+++K6Qm91isvFwWCT2tHEZdrenXsl78IHoeRcmdqEjYsDbSiypfO2oDFjweHURNpAtF3u+jId6HJe4m1Pk6UZLswsejTfiyfxgXEk6MUNz5BVy1XLRcxNRgebPwzuvR/PcynqOnkcsaYp7ykhxI4jXdg9KUDbVRm2xA9X4LyvxtKPY2o8bejA2jzah3t6M804tNgR5svtqEOc7tWJnqxw5chQ8ZUZjyg/a8Rvc0Ay/o0+ZdCJP5v3sauCukJquAi0lFKSlMBjxaBF2Rq/jN6BHMiVvReP5ZNDjbsCHaiy0+G1ZPt6DC1YTakAVPRgcxL9CETak9eCw2gMbpVlQ5mvCJeBPq9X58N3UGryOIcejil4qwahmJtNKs/qkIaTiNqJGGE5BAEM3ti4jiG/6XUTnRjErHbnW4m1EaakNJwoJlWhfWhmzY5ulGhWZFw0QTauxNKI90yPgbLj+P1Z4OfBJHsBceTNET5SaUjyj5oCPIIJTJ3N89rWbgrpCarYSkSo1EkMFAagJf9B9GhbMdc0MdWKIPoDzXJwu1MtKJ5ZoNdYkerApaUeNuxVJ3MzbH+rE00onF0XZURDux1mfFJ502rA5a8aFUE/7oYj92hM9jQsWNla0bTYmGpcl7px9TM9+bAnzJGP7N/za2uPvwiLcV9wVbsVrrxZpEHxoj3djg6sSm8RasnWxBfciKmmy/CGN1qgfLM32oiXVhRdiK1aEu1DlaUDLyA6yxW/H3oTdwLRO+EURKZ3SqbhUxu9MD/Dn4/LtCanIT0+EIJnJR/F3yJEoiFnzEuwN1Piu2pQ6ilIsyYCnoKEIbloQt+EvviziRmEZKwqE0eQ1ks7pK3fAa6b/F+d8cHDAk8kpTmcpJfDzmIJnjVM6s+IMMPgWhQ9dTADcbHgx25QykYWCKL84YcCGJFlzHb0QOYYm3DQ9H2rEo1Y0yvc90bHWhbtTF+lCXGkRNsh/VkW7U+qxY5bJgrdOK1XYLaiN9WJs5iDb7KXXdMQPhdEKZwibzf/f0XXPXfA0kDXw/dwUVkS5URm3YEBnAMm8HaoJd2DxtNV3EZkL82ckeNPhsmOtrQbmzBV8JH8dJhJGhsGYMybkK0CGr0jNJ/p8Cm8jCazCjmX/wSf4P5nJ5hkAFfkYOShA9qYgIKHOcEUp0wMCu7DV8zXMUn53uxYZQP+rj/Vjut2ClsxOPec2FdOW13WgYb8VqlwWrA92oD/egJtyNqlAXlgYsqE/vxZbpbrE8Frla4cpqEqSi9RvI5u3fmTHc/f2uM3BXk77rtLzzz0tI4K9Dr6BscjcqsgPYkj6AtZd3o26sGeVad8FCWmdvxxqvTRb3wkAb7rdvxyZHF34QPwc7vbYQwUhEJ72jNX3ZhKCEGF1m7pK+MrUpl/w7aZy8NZmj1ooDGb7CQIjCmUjCFfXjH6JvYvlkM6pc7Vjq60Spr102oFUeKza5bHhi2mY6vtX2DqyeakfDdAcaHRYZy6pgN5YHu1Ae6MQqVxfKwzbMxR4UJVpwMupAxh2Ui70LZnhnnc327K6QzjY7PKcb+F7yvOQ8P+7diY3eHnza3otV4V78UqwZKwKdhR3xPpSHrcp0jvdhtduKumu7RDttCQ+iO3QFUYogoyxZKiGFXprxV5ORGNLptJiODDTxIFoom2WkOItUKiF5TpX3pD1sSM6W2q7M1Yq5o8+KQK3WBkSDMq9bFbCK2VrpNx/bsmSf5EurPB2oc3agwW3FOn8P1gZ7sSbUi1JfJyqu7MADqS6sw4uSe2WEd5Jq/26e1Gz1yfm7Qmo2TfThkhn0ey9gpTaAotgOPDK1HZt8vaiK9xQmoIFOrHFasDrWjyqtF4v8bajwdaA+2ivm4lz7TsxP9eArvmM455kENEMJq8EUbQYuZESD0nSk0BJXnM0ZQDqPj41lAfp/iShiaQ0nUnZsTe7HfboV1fFeLJrciY2ZAwK+qJluRWOgB+tjg6gOWFHia0Nx+BaE1G/BMr9FBJzvoxtA8AY3gdpID8pHdmKFpwt/HDqOKzEvpvPpJZl27hl3H6YzcFdITabIiMUlyEIN5IuH8PeeE7g/0ooHEp3YNtJhag6a+aRl/g6s9ffgSd+A/GZw6hHNIv4vtdG8ZDd+wbcTK91deCZ2AWPZKDzZhNKUcSWzFM5kOoVsKs3LfCfvmgWoh88m3fjDwBF8NNaCkmQ36r1WlDpbsDY2gOpEn2wIy72doJm7xtMlGwc1Ip+bXf9jExZscfdgY3QQdVq/BMEWeFuw2NUsmnqjtg+HouOYoClgQK4diRz8NLtnzAGTe/D/99N3hdRsBegGGKwJckUx2Z80cD3px18lXscDjh2mi9hskW/OHESJpxWPTO8QE/HXYsN42jeIpZ52fDzcjHJvJzboB1GmD6DItx0NwT70wSHWb1JTEVIC19PhmEprECAlYAQDpxDGv+jnsULfg4/GW7HU0Yq1Ux3YFhnCVm0fFvpasWB8O1ZEe7E2vRfVPguWTjeLsG7090p01uz6H3N2Y2tkDxr1fVie6EOFpx3rpjvxO+59+Eb4ZbyMtMr3plnao9KlkjPNGvAF/Gazf/c87kZ3TRdBPBZRKKCsgQQy4hMyajqNJAbCVwoW0gWuJlSHbGgM94nZWeluEx+R/hz93w2BAax0WlHvsqLGb8M8TysWOVvwh6FjOCSwfqKGGPFVEkDlNIIUWiKX8PWRgyhKt6I+2I0nXb1o9HWjMtIl2o6BncfCe/CYqwdrptqxwt2JVYlB1Gf3Ylm8B6WBDgkkmQnpomA7FiVtWJDpwcJQhwSQvuIYxhF9WiplRCAjyiyf4Gy7WP2ii9n700FrmN7in/kXfOA1KUukuDAZu5zJQvA5/yflU3f6FmSBZu2KAADK7K2odVuxwt+NGpcFKybbURzvQk20BwzMNMYHJc2x2tuF5fZW1IzsKljI/1h/FUe58gknzBjYn53C70SPiEnLQI6ZkJmdL0v1im9Z7+pE9VQLal0dUjywITGE1ck9WBEfQImzFVWjTfgD+0Ec0aZUJoihZvrEhT54U5kDTmYUbJJp3nyATMr/osQIq9wTY2v8Wvro8iJ5UugFvP/v/8ALqYC306ro+IaU8p6lMwrYfYfn2M1lkQA88TC+HD+Be7VOzI9Y0ODrQY2zExuuNotvtzE8IBFhplkWe1pQG+jCSn2oYCGa62nCp9z9+Kr7Rfy5/ygejwxhXtyC+yKtWBBsL/jztzhsqPFaJNq7Lj4oJvF9k8/ioentWOW3yVj/s/YSDqanEU0lYCTTUqzOsrzbkWKh6c6INV0OIpVYj5rTaTUonHEqrkk6ipuyeh03aANZvoYF6T8Hjw+8kIrKzMsoKzh4yL46E/K80zcpCQShiqMZCzmZ8uALiRcwN2JBo69Xco0rHR3idzJyu8bfjXUBFb19JFK4EFWErZLbXOpqE7TQgnAHFkcsEqFl5NhMU5qdr5lswZPRvdic3i/R3kpnK55y9Ege9ROu7fh+7DxeyXrkNogKE584AykQvw1zP3MbqSV53FCODJBllP8t+ponqEZThG7kEASUSX0bruH9/ogPvJD6jaQUGLMmUmzeLKQ+kowDPHenH1OUTD6Y+eBvLpaYjq7QZTQm9uJD6TYxETfarVjr65YILpFLpcFOPHqdQmqe5pjtNZ8M7JHPZBqEeU1GaPldj451iBaf7b23cq4h2o+ykAV1kR48Fdsn2pOR4T+KHMPbRFqw+kA3QNC8UwoFSDdBiCIrvZUZqiboPf6M5KPAecuZ08uDf/LTx6GB1gwBH3IrBI1FXycHEAP9c/D4wAup3DFV3SVPeQPlkd9pZ/68Y7/pKon/a4ipByMn65bAvpDPj69HX8Ga9F4wD7lyrBnzUzas1fbgc/Y+QeTciqDM+hqHQgsRtsgAFNMmjS6raNLFMcIWC9sE6NduCg+gLNqFDwV2YFNkEPty0wI1FBxwWnE4yQZFqYkTcaHDSLPS5cbdeO/Tz4AYS/h4MP9L1yadEeYKYa+gTU3BzLLAXM29XAs5o0J3hfS9T/xtfCd1JQ/6IzOQuBnf5M7rUaVBEUkC7ohs8fxuFlInpdKDoIMsLgWm8X+mj2NOxob14+0CPn8oZb2lFIeZObrM3S4AgpWRXgEjUECZBy1L9GAB9hRs7m5wWDFn8nmJ/n5fvygaM0uD0siIBqW4iijM3AQ9J3U1FM/boEdJESW0M/FUEjmNnEk/rEqpvZ2GBlcqKjhnXgbXAWWXBfo/D48PviZNAG8mXPjd8FHM8bfKwef8n+ywd/guxaktqLXJqEfGPTIG5uvDR7MRCV6Qt4ha5/X4tGjVj3i2Y81IMx6NFi5EhBFSe67zKC1Kzbfc2YZqV7uY2WZCbnb+HvcOfDt2EhlDz1fRZIVGLZvLIJ1JKRNfNGhKAjiMuErUlfN+G3ZJ8kdRQzJgJGa0cDEBbyGC3swk5sQsqAv14vcCL6BVu4oJbte8Hn63jyr2g//4wAvpU+4BbPT2oSbQjeKQVQ4+5/947k4/aFqxqoRMgqJRuED0d2hAyQ2ERCqfYzXgy8bRnryKzdE9KHL8oGBNJzjbgBXLwzaUp/tQgkFU6P3imz56rbXgz7cjjmuIYwLEB+fL3RJZ0aQR/h0k8RMDRTnRYKK78v6jYI4LvQFUyZxYTYEhSJbWCwf+k28YSy48i8eDQ6i0t+H+689i0XSTFON3ZMYQyaaUv1zo9/8MvP99F1IGfEgRyfgDD96PiJGWcL4oKdJCEunDsLrE7QzYMxF8K/g6lkya5xnL7c34x9AbmNbDyOWy7/hSQrRFky2bJ+LKzcSdZCOeWRuF3iPSYsrC5Q9FLihEZlfTQZxMuFE0/a+SkiHQgCViDP4w+vuopwcrplrBfGRDuBfVnk5UejuwNNwluFjmWtfa6W8WFsHldxHIsN5tk8DWImcT1tg7sSt1WdIeMwEaXj69T3L0EoJIXuC8LBY2RcQa5/hZ6h4ztcI62jh0KdcjKFOZKgbeyHrwe7GjeCDWjo9rbVgR78Oq67uF2mVFsg+Lgq2YM/EM6qZb8GW8iu8S7MFUTSwNIxiBH0lhY5S62rihygELu/qfyrvfdyFlrSQrNngrZsIMeiKJdEyTYAF372AmDpA5L2ngcGYaq6J9uDfQhE+G95ou0scDA7jHvxtrYgN4MecEEgYQTSCU4t5viO9CP1KIqBmU4EWIdWogHGctWGEPJoRuCCnXIelpczoc2Tiu6SFMIoPfi76I+yeeRY27A4/GhrAwZsH8UDueDO7BSrdFBYNYzua1gtUmFFYWVhPbW6iQ/tK1/y0ACxYLlHna8O/R02rxZg3QCuB08N5o5OHN3yPZb7IGUlF6f4U9GFySutcUyd7oPJClUGlsN03XrIGzETu+FjiOSq0HxQkbtnh7sc3ZI5vaBp8NG+IDaMwMoTrRgzJvC5ZP7cYWuwW/4t+DX0kcxsW0TwoNGHziPZecK7+HrskH4PH+CykDAbzr1JYM3XPnS5LRXS2OaTqWOQOvp52iXX7B8zwaE3uwNb4XH3VvN12kv2h/Rhb+usQQPubfhW3efpxKu+X77LmY5PPk+/O7BMu8WHMpWmJm1yjgRvJjf0hIs6pShYueEeCZRUktQb+yyPkMCBog88O94RasnWgXgVyu9QpqiZsOoXwEGMwNtZmO30yIGXD6Jffz+O3wMM4hhADTKLk8G39CgQd0YXLIpyFnxkOTniigAh9koshomtS8ijY1DFxHHBckvZNBj/8CfjPxAu6JtwmAYu31Vmx2dwvUUcrjfHlrImjFykg3VkVYQNCJ6ukmLB15HkviNjzh6UN35LLcV7dEnpSA5rO7BY7gzr/9/RdSRtV540kGncyo6g46/TpwHWzToImJ8wuhXXgkaRUTZ567CSX2JnzWT8TO7CmGz4f2S8XHXNduMRNJDfJLgZ34cvy4As17Gd5nMbRKgMuU51OftwMxw7GJwJPLlhsQtUReo4rwagbiegJRyTEaaElcxjJ7Cz7mfB5PJA+gNjuEFelBgebVejollVPjbJci8YaU+fjN5oeY4d90DeHRaSt+N/oiRiTwwoKCpDJBvVFFx5mH49EyIEkaU00yjkLXKMvv5IMMhHJJTOU13ZvBCXx+ug8PaZ1SpSM5Zl83Gr02qVkl9pgUL+W+FlQ4d6NyaidqHc1o8FuwKmJDddSK8lA71kT6sN7bjYd8TdiqH8Qr8CASCWFS8+ermwodwJ1///supKT6oDAIGMHgcy5kpX2+i1EsCndKSdX6YB/Kve3isz0WHcLW0KAinjYRUpqGBJKzUqPc3YYljmawwoP5PoIKBkLXcC4TkBSOmHG5nBBTE94mm26B94C6Rj43ayg4GzXQzLok+z3pRCQRn0FKT0KDLprk24lTqHK04iNaqyzSbZ4+AdwTxP5gpA0rgjZ8zj1oukmZCem2wKAAKwiGoD86z9uM/4VLouGzqeQ76pP9Xph7zPvVHJdGbt0CH2JJsI+O+KYGAnoMfxE9gflxixTAz011Scrq0YlOyf0+YvRgodEnLo9YFLEuYWasZx2usxUrnC1Y7mvD0qgFS1PdUlF0X7AZC0kU5+1E8fRuqc7xGxqQKfz6Cxz+Lb39fRfSSFJTPUVkJTPHSDC1jrGID+smLVK7udzdgcemu7DZaRPMa2nEiqVRG1ZHzDl4uJhZ+cFk/MpQD7jYn7R3Y4WjHQ/4m7Ao0YPfTZzAvsQEvOm48MIKqwHvX+EulxJQbkKGwpPKZpQfK08yPcPgSDQSApKK9Z1++Aii2Bcbxf/h2CNajiVkLF+j5uMmxRpUCrGZOWt2/hOxVjGvGUCq81gEYljkfgYrAzYcTU9LnpIBPbEG+IPzIgRotDwKX+QcO03esJHAvzhflY2UNC6bAn1YkunD1nElXBVBC1b4u6RC5+Fst7BZPDnSIaTdNHPXxvqwJtSNFd4OVHnaUBXsRHW8Gwv8rXg8NCgVRtJRwNMuvv3fh15TKaVbEpP390Xvu5CybwhzYQIjy5CUWTELjGh+PDC5Hb8c3CsTvNDVhFJ3q+ymjHCS6IrEV2aLkMEWEmKxJQKZ7apIUu1sBqs6PusZREN8j8qvOnZLWP/1FP1VdVOmbkeijwLJRZ4zJCJK+Bqfz8ippDXEelCmcApZuMGfhjAxeJHEzuQlfNLVh/KR7Wi41oRPTneLJUDOJbPxm50ntxEj4BtcXWARAOeIBeg0E4sSz+Hr2ht43hjBKUTF2pC50RXb4G3Yw2Scz0TOYIlfuSHM85LzieVy9M3n2XeiwdEpqKf69B6sDvVgy1gHVk604oEoIZdtQjxeFyIjRBdWBBU53Cq/FY1BG7bE9+Jhx06hdvlkdJ/48VxL/xxmpjXv16hb9DP7830XUjYy4k5NKBnDhy6uAp2gdWCB3od54XYxx5gPJMHVo6EBPBYcEBNowaR50XWxo0lyho/5+8XMpdCyuLkyZBWKzvVBMiL0Sa1mib9T6Cf/a/p1vMkruB33UHw3BfqmQDKyyOAU0048BK1EE5gBFAomA2iMOiZ1aEmm8UkibeAcovjvxlmpRvmQ+zkscO4GC67NhNDsPANRK5ODUg/KIAvdCvp9K6bbsGasFXMmd+Bxew/+yf8mzid9ynbPK9BQpnC0AvO76wO9eMrZK2mgUq0bFak+sXrIWFgbsgnh27JYt6SIWJUjjBH+LtT7u7Ah2IOVPloAbSj3taIy0C5Cu8bZgXXT7aJ96drQPaKlcJ93Fx6Od+Lbxvm70d3btS09qQ9jW2gPnnL3iZDOiXVgfqRDhJTNgsijszTVJxxBQis52ozl401gVQjNI7NFyt13eciCpcEOLPWrG8yw/lOBfnwusAcI5RDNEIeaV4k09QxDDopWLpdPsXDA9DUTaaS1hID+xb8ucCKYk7yRBzEggvIt/xvY6OzGJ+zbRQPS12JKhouaPneJvx2M2nJD4+KtCltQqdlQmexGZYw8RBY0eq3Y4jUXcmrVYm8rPurbKX7gP2XOYYSYInI/6QZyGvOZyjMQMAdrO/MRe2radDqpNh6J3mdAP/dawotvxl7DQ6HCzfUlrhbZhBkcYnEBN3LSwjC3TMhkeawHK6L9qPPapHTwyeBe/LNxSdpoKO1Q4A36Kbz9/dekZoPMGbBhAtxJi5zfl1wi/SeWfZGHh2YSaSX5nORavEFPu/uxwdOtosEmyf6VYZuYSNWBTiz3d8guvNbXha2+HhHURz19eDE4JhqEcDcxVIk2Y68lZKX6goAFIQHjWCjLFFYGVjKM7Rb2kE+QLmcKccOc7puI4HsYwZ8nXpdeNNQQZFegsH4qth+/7NsjkECC7h8N9UnzqBpnKyodTah0NovPVuvvlLGabWJz0zYReGpt8uuSApRR9bbUVUQYlxfEkRo3LYW4oas5mpkH3RCLgGkWTkxb7joYU/iEbxe+ENpvvoma3L/NwX7xo1myV58ZQkW8Gw/at6NiuhmfjxxAtd+Ge6e2Y4mjFX+bOqVoUrmbGDncqGAq7Bbd8Xf/zAspzcOQHkckGYM1NSImDlnuuHPOS3ZJbSMDQlXRbtlFKcwEsjNy+/S4uSZlsGF1yIa6oBVcuDxoPlFQqVFXeWz4RNKCL4ZfhCvgE+GkhpC2h2yGxltEIWIHa511paoSQ4SV67LABxsQi4tMwafKypfEER7nQA7bU5ewKt6PhwMtgtml1mPK5vHEflSM78IGMslPtWHNRAsap9tkXKujPVgesaLsForCKejkQKJmJn/R3OkdWDK9W/zWP9CO4wo0IRWTZk8sT5txtnnRwTiu5SR2j7eyHiHb/gXns/JZJC5jzttskzA7XzvZgnX6PjRgWKCRddNtEgVnYLEosAMk5P7T6Mt4O+u/cW3cTCQWwPv2AXj8zAupO83qEkUNgngamWQC/yN7BjR7Ge2cm7CKD/Wko0civ/clOiSgQBjdFjuFdPY8KhsP8WBvlpWya1NQqVHV8QD6sGlKEXSRH/f/CbwOtxYUP1EhZQi8oC+pbviN265nFeC+wEXAQNONz+QTQeMwHaKgQPRZg+kYvuo/JigslsI9Eu3Axzw7sMHXI71Z2JuGPWg2+rqwMWBDQ6gLNRGr9KYxm5+nfANixTyYtqI43YPNkUEBhBCdVOR/TjbEv02dFCZFUo4y4OWSiLXyrU8jgN9KvICPR1uwNNGLjaF+LJreJQEhxhbMvt/sPDdoEnmTYpWUqyzXWznVJnxOjRjGcOg6JsXmURscN1cqUt67QPo27KIF3t9befvPvJBSAELxsLCuU40EGEgx0jitOfErkYN4iI2QXK0S7WMUkAuT4XumXubFZhdQLgAK580HBZVCutzfjqX+NmwYb0UFBrEmO4RVUy24z/4sHgv2oUu7DDvRULSBc+z0nVHs8FwBRBMaqvP3rdyEWV8jji/3qaz0KxWB5Y94GvAqA5zVKIRMXskG8avxYZSHLGJVkMx7idGDpZleVGs2VPvbUWXfjWXTu7Dc04p6akmTTawhMSj+XQOpPlmr6qPlQeFXrSTqEr1YEFER1m/7X0GcEM5MBq/Chz9JnZC8JINRRHwtTHRhUdwqkekn3L1YOdpk+v1m17fV2Q3SotKCWDbVjGJ3C6pS/fhO9jygJVTNWjojPiiDkfJI5yTVduPvmf//jP7+mRdSjTaeYUDTE4iHQ6JJ3MjiCiVBMzDov4T/kHhRkCkMrW+dsoop1hDskXItM3Op2oZ8quMAACAASURBVKfIuhiybwjasDrQJaYvfVRGCiXAMtEOLsbl2C+mcfnYdjT4rfha6lUcy3kwhqTszpQdmucsECjcG82vGBY7Sz8XVXzAeKooUSOLdDKFuGgD5lpVORyFtTc5ik8Fh/ApVx8etD+HuZ5dKA62oTJikSBSja8DKz0dWO0yJypjfpnNl8gisWmsXVJXjLhSI37aO4hVwS7Uh20yd9t8vfidwH58KXwYv+odxHqmSTy7xD8mW+FWX5+k0IqDHVgWtCqGRBOf0+z+fTjSJAUCRGExJ/r7saNwxQOs0pCAFVtgSUCLm53gZHII6QlVPP4BqWT7AAipMudAwH2WKQz6fqSwNBDjctUVD+630qfRgAMSrt88ZcHjY50gjM7sJhOQzQgoX0chXZv3UZlvY0K8capFtFBVzIpKdzPqIl34bPIANge6UWT/N1RMNOOvAi/jPKISLPQAsLOix0gDkcJFlURb9Hm5xuiS8hOZwuFzHhw/e70EDUIL82kczYA3FsS3kqfwlMOGxslWLJ3ejYpgB+p0BUanL07LwGx+2KuG9amMltOFIEcTUyZM0zDXvNHRgQZ7q8DyFji2Y3GoFctS3agO00XYJcRoTJUQ6sjAU+Nku0Rd2ZFuqV54npepNZr3j6UOSFc6RNXaIIkoXQFaOEzxyVzNFFDwjywQD94O4OedV78/80KKsBJO5hDF2c+XqyVZL5jWEU3GVDrAMPB22o0/1k5gvmYVcDqjnWaLcKFnt1ROMGBEIV0X7hHkSj39tqAFxVonKn2tqPW0gdCzpc4mPOLaLg11tyYUEGKhuxVPOvrwA+/bqnJGBTKlDUSht5DrieNmJ26WiTHlc/MjTLElv1OMUSxV3jUNA978ZtaFEL6ZfRObxlqxYOQHKAkwsNSPxmgvGhzmRGiMmpO3V6pkol2S3mF7RGrC2lgvFoZbsSLElI4FKz3tqAh3oDJpQ23cpnqXejol2FcXsAmDBH8Th8t0CTmGze6P2Xl+DptbzVhc9ImJYmLAja6RqNFYElokKmyD3Ox4cLMTDXvzZP6MPi9icewP1TxKFJGmk4rUadyPhF9GjY4D5Nh5sOjXaYhuUyMWrhliOg2kmaAneDqUFmpNMsCzOEweXHk5lcIoeF74WZztfFqEfkYfnNLst/Tic9LAtyzQigp/qwRL2Oi3PG4RfOdaexvWe7vEdKVALot1oSrRjeVat5iFMxp2toVSrQ9KQIXoF+JePxfej6bcKHy8qBRL4fLI9PzCkLnTAV3PIspJ4JRwrhkc47zm/8V7IoXLhU5QXAl5D6bxW7EXsGy6DdUTrWj09KAhOiigAXLpEnZXkxoQjDMhmLX2NpB+dLax345zbJ1I4AR93q2eXjmorVf6uoRehiRodF3WhfqkDyqRY0SNPR0cwl/rJwudHfP3C4Q7J0X9Cd6gdAaZqCauhsgCDBWEyisPam9uDhJUZPwkmwE7DTB/zrdzqTKSwPsrO4X5FaBIFkl+YahdW71X/B5+ALHP0rYgDWc6Jn9IcTa/xA28lHbiiH8ULyedUrUi6CGNDG9ZQQ3JbsUPEFy5wnsK5pP/uw0+ASGFVFzCs6pmTWCGJxFFX3YK8wJNEhha6+lE8eTzWDj9PBq8nVgf4M1uQ3W0C7XxbtRrvWhI9AsGdF2wG42uTqyZMk+2syUEqTMJr6O2YVDlU1Pd+KbvONqN69LjXpWlqXm0Z2KYRlp2c9pgM/M88zu/f6kXc44KfaRULpdTw3myGhN4NLIXD7maUDXdhi2TFqm0aUwNiVAs0KyYiyGsSu3B1onCCspvRYhJ0kYO4ke8zbhXa5dGxE+H9krapyjXJpF1gv8pnNwEiRj6UuYVYSoMsTjhDj8YsFMbKZCNUdgI11RfeikbQkKQGwYykSgOREbk4HNKJM9dNvImNd+TzMGIJ29sxtJc6xauv0jYv5O6mFPkSuXHM/c3E6DgOhFHWyga89ovloY7EsQ/RE+iytWJEk87nnYNot19FhGNmUK1Y8y0uBMmea7CvLbjghF5ug2L8GaiKtmtiHbhSucX5AgzzOAbxltStV/sb5FAUDVbxbt2C8Ko1NWEZe5WqUFs8FrQwHYL7g6sYgMjv3mT4KcdvdKwiIACYosXe1sFaMECbubs/nvsJFzRoERjaYKJtszkENTpWSoh5Vxzzjn3vAc0bYXYOc/Mfgv38ce+hFMhO0FUlRbxb9ZU/nPqPJbGevELOQvWj7SgcaRZYJIrY30SzSU4gPWatyJohbzmQe9uqXghdSgLH+onW6Xwgemuz3n33GChYH6WxREndPbBYS3uDGPHjx367TlBZtJECqlQVNYTlzE3XRUX4Toz8Ep4XGCHH598BjwIQeT/BOIpa54NnRWxAdckP0uqrG5x/RcZEQ0ZLanUcl44RYBofiV0qU4Qs5Wt3OPE1xpoz4wIhpQNfz6a7pB6zYrRHWBfk6dTw+jOseuHcuBpxiXYVj6bUtpuxjRle0rlzhc2mckZukcFzBd+oTztI02TBG9mJoMrKQ++FBzGvHArSvRu1KcHUBZmhLMdje4OrHG1Y6WjFVWOJpT6W1AS70RJlrC52dM4rGskNJG7PWtcmfBnt2zm69gMiXPEFvWcM8mn0srgXGqq8oNzzDninFNYedBE4j3hvSn0QaHnwpIvCNOPV8zyDHBNpSP4cuZVlGg2PDz+HNZcaxJe3bXuLmya7BRkkNn4Cz1PFvyNbpsU9DNVw6gxqWMI8ZRGVuiTQNWLgRGZt0hWsWrIHAqtTqEzZPL+PAG3n6YrN8+MyrOyGtXp9+IL2jDuSXagzNEMbnA8+Jz/47kptxO+XD7CLOl01urmQTDMr9/Co4gwNwp0XvGomsdYSgHeY0TSZBBMhaEnYjgVm8JnonvxULpTfLc5zu34df+QpCyWhDskGrrQtQtzXTvx+9qLOM4iNKqIHKTkiWVo4WwKepxmg34DAHAL1/njX2JCnsygSiIagQSgdANHDSc+HTuAR/wtqPFbsSbZj4ZEH1bFe1AftWF5xILKcAfKIx1YIgzzswtpSUwFU8hPxDIy+laEzhFL+2huGA87tstcPZzqlLnjHHIuOafSZIlzzDHEUjL3N98LVSvz44d+q2eos/O8/nKfxddlC4Yo4DbiOJ514nfwCsioXz6xSzaVGmMIn3GwFHD28Rd6ng2H2TqRME6WFDK3TeoYtsjg9fzXyHGpr+WmL/WtKUIPU3BloirNcquT8B5fJ4okL0uCLqMxFIzhe/5TeCRhkxLIz0x2g8gs0t7w4HP+j+mrh2IW/Lv3pLyHky+fwWsxIFxXt3JZRdyrZafl6qBkS14ubzIa7G8ZxoWEE3/iHcb9oSZUxLvEFFzibsLKRB8onHWuNsGHNmr92Oy14dFLu1AxvgMfSrfgXxPncQxeZcbnBxvKpaU7mfirt3KVs7yG5huvn5/FQ8y7/CTIH/zOPJROJpzjNABr+Aoaxxkw6cCSYJuYw0uinajRetAY7sEGRyc2jrKT9+x+GRvvUjAJpCCBF1tKsP6VMEUGlVZrfaBJvdrTiaXxLjwYasKfeodxUXPiKsvdeX28aB4SoFOBJmVWzTLwWz1F818zkEnrUlwvVpLc9Awu0f9gyiJtIJiM4nuZS1iDQxK5ZYtELjiz8Rd6/oFAs2jyddEBbJ62omy6STT4nydfxeuRSbk+ezoMv9xdQ3UupyWSNDA24xze6ly8l9dFyPurg5qUyuZYbApbI3tRFN6NB/2taJzukKg1C0BWp4fk4HM2U+Y5thspijRhc3AQw4FRZJIpeKDL+n+H+3T2CyuiZLNkSjnFikOW93AMOl5DEM9qZ7A61Y9PxJtQ6WqSnNhjsQEw/VDsbcKT0UFUZHpwT7IV8727sCZgxeP6PmyK92PlZBPmxK349egRWKNX4dEiIMaTC5ARrtuB+OD183qpLWiOMMFP9nQxewnVy+QQEcYDFQCgLDB35uVV5IA/Cb+ILzj7UDfRhEXOXaiIsvN2r2w2W8bMo5tE4GwI9ol5tuz6LjCpvjY5BDbUne/YhRJvEx7T9mBbZACN08qcvifWhMZkP7bHz8gcc645BhHYhLoXvCc3dt3Z7+GsZ4P+gGhPmfSo8odGkZZcrqw7lssxIEK+It3AeMKPP9dekWIFwu0KFUKz91diSCLMhHguilrwdOIg2sMXEImF5Xr8RDDlhVJ8vKwBfzqKKXIasxLnDj9IFsdYx/m4B7+lHcWH422YG+pAvY9IJ4vUNBf72oTBkFxKPMhmyP+x3rkq2otVgV6pWS7y78DnAwdwOuwQGlThCL6F6y+iDySPuGIH5yIeQwbPRc7jDy714/5IE9b7rHjKZUNd2IrFiU4sjLejNtiJTwX6URfvFsFdN9Uq3DJLNAvm+Hai3NMsgro0OYCF/g5U2dvxJc9h7NcmVB0l1V78NkwyNSPTPTSfudDyGQ8uem4EMj5+TUL5eWSW5ybBg9x0dmQwkB3Dl90HsNLRhsXRDpRme1GV6pUSNrNFxs7cJaFOwbeyFSDZIggAoGbdGujHZ/z9qPd3YnG0Xfxc4mg/6bRhk8eKByJNMseca845516ChbwXM9cuz977D34SBT6WT+qLJuXgE4rK1EOEFNMH9Lc4h/mC7qHsJH4/fuyOC2n9eAvWO60Cil/htUjt8FPaAViS1wAtJaRoTGuIgLLYAlm5Xvk7dBvSAyZT60ACf5N8G4uDFtznaUKtz4ZHA4PY6h/EVt+AxBxoBbAul/BUHnzO/zEescXbjy2+AWzy9aPaY8U9rl0iD/934iTsOdmaTa4AKLrOpcGWCAKfSsGauog/cAyhyPcDVCZJGcmEtzrqghbwYKJ/5jBbxItDHYIC4mcx58Waxz/yHsYhwy6TnbkJmK4T/iaBlZkcLa3Ad/qPCohdo2GvyKcpnwU/eJ/TFNgcetPj+G3vQZROt2CBrx1LE/1SYUJfkzy3zB3WOxRzAM2Z+bchj1iENmnq+5feFwUxwwJvpVIV/6xPUER5iY3lkMkQh0qcMIsOCh696Qc8hwmwtWGtvQOV13ejbqwVdVMd0oeVXceJwSWLA4u3aUWwzQUjtQyWsbbVbH2YnZ/MariChGxi3FskQxAlFY2iY2WpHNtP0IWSvAIXBeeFnlsu+84mzTfz/3pW8pzcuJgZIEgmjOyNvCbBENy0LiGEHu/5gq+/IdSP1cE+1Ad7JdUkTBi+VizxtoiV1eZ5G+ek6I+1jwwopjCeDufZSmRLRZGw9OkGBjCBrwePYYO9HRun2jA/3o5fDrINwjudv2aElGVdtyqkGyc7hSeV1BykPCG+ls1of8UxgK96j8rEsfMz2weK0DFWxYkiooj/SLHKJCs+FdvOs90Ac1fcg26HuUxtO6NxGVyZSobRHLyAz3iG8HHXTqyPDWKRv03yeATtMw9KDh6mJ2jamC0ys/OfnexBg8+Gub4WlDtb8JXwcZyUuLeq/KHmEHuVdMH5dZa370U7mkpZgS/g2g6mNTQFzstiK0q1Y2GmH2vCA9Ik+RcTrdLd+zede/DL6cMCOCgf2ykbWiMOFTw/93ub8R3trKpRpVmkymplaXAdiODmBZNoLMYdbgR7xJzSxZvlPSZVDwvyOY/yvkhGoZK48QcToq0ppP3hK9LztSRpXhRvdn+5XngQtVUbYEvKTiwLtKMy0CYAm4bz2/HbgYN43riK65nQjfHJAAPKoioiTt3jDmDjaBcWRqx4IJWnooh04JMTbVJfefOFUEBvPm4+927PmSwnuPqJ4CBWx/rF73go2IL5nmaw1+WmsU70ha6qXS7LhahwqaJQbtoV+ZQTy/t081HgGpT1H83pAornd3ByeG+PJKfxHe8bQqy9JTyIzwSGJL3ySLAVa7RBPB7bK4RW7zbmn+R/NI3J6VMf7hGEz/327djk6BKom53LK6xY+Zgyya9R+HQN6TSxwYWO/hbe72UUXn3VSQTxjdCrWOLrBIWnztOFx929Qq15n26VaDnvNcvZ6qO9gu39Sebi3V672d2LR6Z3YaWvG89mr4F1tKJfeLN0gH3Fk7xpnBw68TQK1W2Ue8mgjzLjVZ2vGJhc+2HFKcygmaCDsgYcUR/+g2NIGjCXppXl927X9JP8j+5NfYgyYxH4ZG3IIuyGxDbzuNe5Ex/zNmO1uwff9Z2WDUQElAYVLUYARRSG034vfvHMDzCXnZyNYelSXaFZUWbfLqkEphN4zNCRKCFVpq9ZCJ7F19RA1Baktlge68HyRB8YWKFZRPA1qxc+GzuIE4ZLRZgjSaSiUdnZKJi8VB60Vji/cun8gwn6Qh/8HH5JPCXamz6aaGhOUhR4IWMXXtoHxp4RONq29CHp0E0+IOZHzcZvej7eJ8x3BJyzbQIbMNVd2yVgdG4OVv9FFarPDzyQS93QBMJqWOj4Td7PuWAHb86P3IAc8FpgAn/mOIKqgA0POnfKulgT6sWSQAfmBdsE07s+3C/s+6bjN0nx0MUgoJ9+f5HveeFgor8sfmqewoVxhmhGpbDEHKYLI7BVdvs2pC2GpKAo2DRQSOUpRRrckOnn6vjTxCsoCm5HWbBTitNJPs6uB4Ve/zuuYocIKuM6rBqaOTYljuCBUBfmjO/G1yeOwZlNI5Mh/hjK5KWQenOqI/JDrm4UuwZQdqkDq69bsSa9H4si7ajxdqPW1yMOM53mGUHlxcvuYDLJi0lgHFCkzkSTkA2On0GhJWN7RbgTK/VBlOk9WBhtxx+FjmA05QX0DBjikRbvhFKxIWwyA7KpixEwo1pNFpnZadlZKfV8wptL9FU2TwFCnISeRETX0KFdEbOlKNaE8kw/NsT3YKlQahaWRySkkBZGldYrZjVpYaiF6BrMte9Esd6PvwyewEW/XWkLDp64EuTgkS3XbISFnSeojUqK8y5Afm5oaSK5UugMXxZ3gKzyq6/sQp3PKhsw853EAnMzLnSRk5GeKTJiq58IDwgyrNi+E38QOow3b8rDEx7K+aCbZLC7HWMbRMmFVfyCt5jtE4n64phE6eo6utKjUj7H7nGs6lnsahaIJ8vqyGxR6PXXBGiNMkvAdWIBCwzonzLiuyrQjyfH9mPhdBdKxiz4B88ptbbZQOBmIeW69GezuHfailLPISw634XKq11YO9WP5Q4Lajx9+aM3L6gzUDl+qXkVBeFxq6bbsWGiA+vtFkG01IS7ZWJYSkYCsGJ3E8jBQ7B7KZ3qYBv+JnsSPmRkgcgOzlklBiKrw4G07DL8V6EPXdeFp0iqS0SjqlXJmzlCU4mk1vkKHMLp/pd2GuVTTbh/6jlhH/xJTJ93ey0LlsmhS8Iv/ma0+BHNIvQv7PVCXuCPeHdhtduG5+MXMZaLwZPLd7aWHabQGTB5v36T38fFklWbg1jaCfYATeI76bNi+s+f2I4yV6sECrnJNI6bp7DebU5u/l+doxWfjO/F1uwBlMYsAuF82t0rJGr3erbj37XzOJEj8WnexCKXsaGqYHg7Xfy/WF3KmeXruH6atSv4Lf8hFIW24wuTvfiVUZs0w6rKDQmggm7Ho67CfdIafyd40BKt8XZhhacXde4+1LkGsNK5Bysv92G+vQcVk734jvMspMgplFOZDw6AmpTtDexuDz58YSfq/cexdPIwlkzvR/WpTlRdsqDGvQc1ngERVKVRFRfQjBq/eULf9fl0GxodFoF6MXi0KjGI2tSAwKdY3bAs1IENLA/zWbB4ejvKpnZgk9siNB8lvmZY4VJJ97zmZLTXg5RUJXDuC35o7LOpSw8UadXH78mIOyNmJQWUwQSh26QKS2QRjUfwD+E3BOz9rmM2AUDc/J7NmYMK/ja9Qxow/VpsWFjXmTf8eLgZ5fZWrI/vxZJ4D4pczwjrXVduUnz3UIwhkDv7EE5kbwyYCMqk8Bs5RWyqFTTy/MA5Q3q3/K52TAJs5DXe6OwCWRNuHut7ef64h7naTqzQurExOSipvwemn8HDzueFBubhuFXaHXZFrsKrRWRTFZnMNxLmPkaSABbiU7OOJAL4avgVlDrb8PHJ5/DEtA3F4U4hW2eNLKPS6/ECHjOGUTxuThlrNqYav03oYmmR1jh7UGPvR81kP6rHB1EzNojlE/uxwLcfy8YH8PdjbyLEdH6EuWt2g+NMA0XXEEEgFkHpZA/WXDuEBW/0oMR7HLXX9qJycgjVrsG8oPblTV9bnrCLu6S5Ji2P2SQxvlobEJ+LBFEMQ0seccIimFlGu+gD1yZ7hNKDbQJ4sE6x3N2Bv4y+ilM5xn/VCmGUV8zfMB3Hwh40feRz+SMfNGJ5mUxPWqFN0loc8JMJgkEtQ3KrDNFfjbkLXoTEOxPnyzQP84SssSQemD7eRm8PHgvswVp3NxqYpw70YJ6/HYvdbfhS7CUckCRCYeM3fXdMdVPzioueN3nV2pH5Yn41iYzUvLLN1cvaFP7Y/4Joo6KceRWR2SIvSViwPNQpfV6qJndiuaNJhHNdvA/1Wg+WJQdQ7OtAzXQ7/tB9GAe0CaFGUYEkA/Cozl8XEMdf66fQ6LKhdKIJVV6a5gPKxXC1qtrWoA0sIidpAFOFpI4xuz6z89X+HlR7e1Ht7kW1ox9VE/2out6PqpE9qLq6B2UXelEytRd1Vwbwd+Mn4cxvLmKOEz8vgSOkYE+lUXS9G0suHkD9pQMontiDytEhVF7aj4qRw6i8fhDLxvdj+fQQapwDWOHpFv+j3m/BZyY6sDJqRQnby8f68KuBITzusKDUswvzsu1YGrWims6y34KZKhNC5Nj5qm6mI9Ysmoc+2sfirZivd+Mr2TdwgWEd4XA1oMWj4kNScBgAYI4xyR2T53XVrct0ERb6gizEdNri7kOZvVXyhyv83ahxWSRFwdIvlrCRJIs3fW1EBcvYIqLqunl/VbNF8HXvMeyDHcynirOqGzCMjMDOyNQgbS3IZJjvPk5NSGAD84Ti2xc4fjEz+Rk3gWGuQ8ez4XP40kWy4O/CmrANTzttqJ9qQolrF8qCbRLxfDzYK3EJBofIkctgImk5qc3IBEFGCLPxkzyd7RBLkz0gLQthmf/FPSwtMrkmRhHDM9mL2BYZxGIfW3W0CoSV7SiIMzf7fOaAWVjOa2TdLRn+yc5I0ApbcZBcfTXjNvY2LHDvQkOsB9WaFav9rWhw7MbS60OzHsUTfai7PIQ5EwP4v6bfknuYUvwjyky/FSEtv3YQFaMHUHl9P5ZN7MPy6UHZEWpdveBR5HsGDekBPBkexKrpVpDuf72+B6sCHSgf+S6WRX5YSNd4LIJjvVUhZX5p27RNcJ2MqDYY+/GP+hlpCkxBDNE2JWyMkV4KZ84QnOekoUyfAteg6dvd3LITgCcexpfjJ3Cv1on5EYtEyGucnVh/tVmwvUSgkBaTAIgF3hbBdq7MmvdXNVtExUa/+IP/4n4NgRQj4vmWhASiUzINRedCKKCUW+WThDQcCBks9MEdn6ABqZNkRVK+3PI60ngVAfybfgaVkU58KPCcIK+2eLqw2duFdf4uFPub8cjUdrG0GvS90m+UZGJkg2APUmJ5zca/ydMtDbk2J/eJpcYcNrXgb3v24W8CL+NvJ4fxBXuvsG/MDbVgRawbWwnRDNpQ7jGnj6HbQcEknzOL0VmgXj2h2pTQ2iGv7xp/Lx719kvMpjxsw0MhwgI7sMxjUcqOCu/HHIvH+1F3eR/mTOzBN+1vSUPldxFSHdMJHUXXe1FyYT/qLu5XmnRkHyovHUTplf0ou7YP5SP7UTG6D5XX92Lp2D4R2KrJ/SjTB7DE24HFY9tRwShWblAqSVZM7MK2aeaCrEI+vTJgxWqf5cZxq0LKUqYNkQGQWpKdtYiHfSDRif+YeQlDsRExQcfTQQRELxgSiRWWA93AhAonFLoOZ39/kqAK8u2qHN3JlAdfSLwgwOpGXy8et9tk0ZDNjkEi4jnJMsAiZnLzmC1Cs/PsFMfSuAeTFok4H4qPQU9o0HXFDMF+3SzZY/SaginmvZ5Ht9yGDBZ9Polv0AR+lwKNszkv3k7YJRr7kXgTSpJsD2FBsXOX5NvJBkHNyYokorroF7JUjsyEpFkxGz/pVtldjU2ZGCVfHLEIB/Eid7M0tGoYbwaLQR6ItmBB0oJV8V5sDrAUrgNl0+aalEAE9h4iWk4qm1zdeNzVI9fKtFBDuFty/w8G27DM0YWqkU5sHBkQZXZvYBCVlKNZjsXjg6i7fABzxvfiG1NKSJOCRKdroZZeEbO/04ksikb7UHLhIOouHsTisT2ouLYXFRcPoPTyPjnKKKyXD6L8yiFUXD1841h/1YbfiB3H52OHUeVoxoO+HZintYPM8J9y9dxI5JIqc1XAgpUkn/aT90YdZiHuRcF2iQiTo3VLcEBIsWnScNGzI9ifTR3EWUTgFXhXGohlYMTicGVjipJkdhEr+OwNFvR8pY1MbExHV+gyGhN78aF0m7DZEaDAsiyy7y+NdQsUkI2HzMZvdv7XvHtFK7OtQmmwE0WRHfg1kBgtggCLzak5k/l63vxomTNUJecFD198d8pn3qVXxQ3RpCq/Y4WNlkHU0OTYH70qbIv3wIoVmQE8MvGsBGi4ERNuuSHUj43JvVLoTQEojptTjlJ4WCbIonumgBhV5vxS8MnJW53oRlmmG8UZm8Q9uPYa2d/VrRA/ZvNLfmemTT7l7hdqF6aXGH0v15R2ZQEFU4c18T34YuBl1F/pw6fPDmP9uWEUXz2Eimv7Zz0Wj+3FiovDeGhsH74x9bZo0ncR0gymtIwS0vPDWHH+EPhG+fCLB1F+6YA6+PziMMovHlHHhRdRfuEoPjzahg7XCDyxOL6VPS09IZc4d0mnZaYPZjhtibx4B1ZouWUhfWLcIrlVap056S6JCrNCnzeWRNhlOpstWdEUOiemLjl5kSKzAUEJt0FVmK3jjMppEcoo1faGQrYQmhby+aXnCRnW2Wpx1XgLFqd7hIP2C/Z+6fZmtkjMzpMJ4gvOd6/hFwAAIABJREFUAWyYtmCxR9XIss0CNck3MyelsJtoJWpQSeCz8DtPr8OC8EIfuWhCMReQyyefU6XAStGDRpoYVeCOlI6cwdi8ge+nLkjunBpq0fXnlTmZHJLNhkXzFDC2DCE7hNn4ef+JG6aQs90IuZEonBJ48/cKu2NttEt+UzGwyJ/0OavjPVhlEPY6e56bbSYppCxAJ6dvdcAqnMPcHOaQGdG+G38ZOY4jWR9GAcz3HcK91/eh9O39eOyVoyi/emDWY9HoAay4eBgPXT+Iv5o8JVViCeFxuFmT5nRMaVkUXetD8blDIqSLrg+pDz5/CJWXh+WouHQYPERIL7yIsvMvyLH86j78v7EJJQ6agfOGB/8pNiwsDQtcbVhHmz3QJfys0p6Oreny0EKawGbmzOemeqXChALKm0aTgxFiVsA/7RlQ7AHuTswZe1ZC/i8YDgmaSP3hT6Nyn+s8kgTcZNpXmAg30iAKhr4qgxdXAnb8Z/0E5mZ7hPGAPtfDumIkMBu/2Xm2LPxouEl6eW6L7ZPWiJsv7BaoYVGuRShSSJXCHK9YT1R79N9JMlCohIow0inN/Fj6HapaPxkd84UUzK9yM5sO+fB3kTeF0LrK1S4Rf7oDy7wdEqhhjnIb+8jOElTkOQZz2Adn4015eAo5NSrZIplnXcXyQVen8FaRGocBy7qITXitzD7/V4P7ZRO5N9CE+907UTvViicnu+TaWKhuS1/FOOMftPkTwIfdgyia3otPXBvGikuvouzyoVmPRaPDqD3/Ih4cPYS/mjhzQ0gJ5RHzRAJHuSwm45m8kB5G7blDWHR93w0hrbpyDDyWXT6KpZeOoPLiYVRcGEb5+UNyFF3rwb4AOXx4jQS+ExmkS5OjlYkD2EhkkZ+QQNU/sibCzswK/3srQjpP7xbQAPtzcofk7kuUDnOv7Du6cqxZqEsYcVvkacEvOZ7Fb2hH8Bp8iGaYfb+zD5a7iUIihRCRLmxbmI+kjrLmMZmvsMgaeCvhwAZ9P8gsv2G0VfC/ZovE7DwhleScZfSYWpW5Z5KKsSfOOleXkI2RdIzkYyQhow9JTcf2FVJkXuj0UOh/DJEdm1iRcYIPwgvd7ESgs9RMbWbw5fAD4wq+4nkBJG9jAT3RViyaXz3Vjm1Owi5nLzyvub5bIJS0JOjDSpe9WLesE0L7KJDkqxLuKq8CFpAQnX1N6+3mKaJ7PDvluj4f2o/N/j6wixs3xn8LnsRUIgBIt3PyUjGvCRRdasXCkYNYdP0oFk6+jNJLw7MeC68dRu35Y3hw9LAIqZGhK0KC0h8V0piBomsDKD53k5BeoRAeRvW1l7H86om8oL6ApdSslw6Kv1p+YS/uO92Lf3dOgvBOia5SSKlFMsodIlMDhZRNkdhmkELK38T/3grRV6W/Uwi+GPUjsTKhhDVan6Q1iPuln0fnnvnYMkZ/PV2yq5K9/UupE4UuQdP3cwNlXjWAfEqDi5b1rVRTPKmzzpUAR8Uyz47WbDxFgP4vOp81XYRmi5RkZ0snmySQwWJzlgQSQ0uI23q3TWg7Sd9JGk/SeZLWk/SewmF8GyBbRPfwszhs+UHLguOnFWPkJKBGNgIwQc81wnnJF/bQDKcJzDQJq0A+H9wH9pN92NcsASBaTGbjJwMGrarG+KAE0OiPEpK40m2R6HB1okeCl8u9bBvSLiz+tVGbNON63G5uyTFvylw2gSSMj/yp/hqOwadA+QazCympugnyPicopLtQfGEAtaf2Y/3bR2YVUArwwmsvoPbccRHSr4+fAYVUk0rnm4UUCUzGkii63IfSs8dRd/Y45l88hCXnDqH87AsoP/firEfR+QPonXLLgsxRQLmz5KsmZvygiyRo1t8Sc5V9Lhng2OjvxRMOc3PG7CaZna9wtODb4Tdhz4ih9UPAbMGi5iMeZDZMpJIgUIJNffjv22EO8jNuLOC8xiEHMeF9F3JhFHm+K1SVDHyUe0kubRU8LOdn2fhuobhkJJjAb/pBbO3HhbnC3QkWTJuNn31aVkXZaKkfy1wteHDiB6JF/jr7Fo7RU6VCzWNZZbzcWNjLRho5y5Xf2KgInST7hZZWXM23Y34IcRRLJA04DQ3/M/AGVtsteNjZhLmBdjSEbVimdaGE/EvO3Vgx1SQ+JTsJMLUzU5E1Mw8znfFmfs/8/73+5oZ3n283Pq0dxDDoyKg636iRFJQaZ4haj3AOEdKL3Vh08SWUnT2OsnNHZpUdylbxpaOoPXkc958/iK+PnpK5SItNqqt5UXnSBCaj6byQnkDd2RPvCOmZo6ZfUjR6EM1eBfWOQEMyERVIE6P80g6PrRbI65LTcCRrxx/HXpKdnvw5j2UKrzc0m3w2IKY/wZ32KJGc5E2NJaU1A4MYFF0GPATFlGIB/MxubyAa52ot7PFDQkotQ1gmMnDlEiKoo0ji92JH8ZBjh/jbbAn4cJgUHW3Sa5TWAlMTrI5h8Il9Nwns5//Ym9Ns/At9zWLFbIsPgRxUi2IdWOBtwobJNvzHkW5YnGdxPRNRySqxg4nHTWNaUjfvTAddGcovxyP7Glt+xApXxcyvsmCbGVt+PufnYiaIPwu+hDlusu61opSQyckWbEwMYGVujxDF1TqasdHNSizlOt08DzMCyt83//+9PF/nsGDAd1HSWkpqFJY7zn4y+R49P05IS8/cipAeR81bx5SQjpz5cUKawkQkhaJL/Sg9+46QlpwZRvmZoyg7+8KsR9HZPWhzkQeQfkcKCYN+mQRa5Qul0SyZ6eirgUCDJLpcZ/Cktx9FMPcJ3svE3vyeDzufw5b4XqxP7sXHA6qv5mndI+aYA3HFocpLozoRsmoKLqOQSpsUJqLcAAxlDPID1RSApMgUVGpUCefoBtgikO37iqa/L37lk4kDeCjeIeTVRLywKIH+Jv20p6Zs4pdTu9481nd7Xhpqxwp3O9Y5VMCkmPQ2Wjvme3aj4vrzqE0M4ven9uOCgzyxrCTJCwvzv4Yqsuf1UoBkM5uxDGjSkq6m0Ac/mFU9qaSC8+WLuqeQEML1z9l78GltP1Yl+6XxFDedhvQgHo0PomGs6YaQUlhvHv+MoN78v/fyfAoaSCMqDaCihopzEK4XNWAPuOXekvhGfEgNKLrYg4UXTqDszAlQSM3kZ/HFY6h58yXcf24YX7t2WuYiLczCP6RJKaRpFF0axJIzL2PF6Zcx78IwKKRlp49hydkXZz0+dNyGoRGH3FkGjYSph5RD+V2X3dBIR0HIHnGexwOj+EriFeGAqZuguTZ7CLzQ818IH5DKjHnuJgkqMJXz4eAu/JH2kmpV6BfIjAASfNDz3MDKLmWKsdCHlsuoKhv6aIxwUg3lNapsBDEDyaSGcEZDAhnh9mE5332O7dLsiMUI9YkBgaGJRrV3YJWzU0ARt1LvWK5Zpc3hirGdqJnYhaXBdpTr3ViW7UNtqlcoPCu1HrD/6BdDhxGMhWQDC1AsGQzxRVXZV95UZ46VroG0xuBYCnwIi3uCASZuimywxD42+cXjJRVsBt8Kvorl154XQnP6mKyGKQ20SdZgpqB6Jr1X6Hr50fd/K34SlxAWGlEhX9dUEyjp6hc1VIcQEVHh4EHRhW4R0tLTL6P0zOyyQ9lafOElEdL7zh7C166dlfWhhFS5jZwKATOMh1MoujiQF9JXMe/CYZScOSxCWnL6KGY7il7vQ/+YU4SUoZNcWvIO0NM5ldimBs0YGNbG8dnEMB5OWFAZskoASGpL77CQEsz/eGQIzHcxB1fqbJH+pY/GhiTpvS88KuYVtQQfxLom2MmM2l/sr/yJ9/iLkDnSfAiGdkZQ8xqV6lrLURiYu0kilWRUzwA52r+TOC0+qdSvhix4wj8gxNGLtS7cr3VIioER7x9dVD/6d3GsQxBgawNd2ORnEK9L5a5DXQJUXx/oxgPu7ZgXa8eDuS7cG9qN/+E4Cl2LiraXORA1mi+Ulp1F+dkk8S70wU1MWjlIP5y8cEpbnJyUnLEBMFkByWL4J94jQjFT7bNILvUjWquAZSiod0pYK+0twgf8A1yVeEYqRzoWXqABH31HSWcayiKKA0Xne7Hg3MugkC45/cKsskO5WnT+BKrfOIH7zh7GV6+eyQspSxW4qavZLWKgZzyso+jCIEpOvYzaU69g7vlhFJ8+gtK3j6Pk1IuzHkXjB7HD6xL/U6dBxKp3qtH8zbySC+GbkVekBnPe1A6JvJE7hj7pT6ONAXGXjBIy+rsq3Ctm9lOOHgFIPBhoxrxwJ74YO4ZDqWmQRkUeXDDEA+dLhQpZiPRgqC3IokBBFT+dc5M/2FeUPUOk0obCmlVlcaOI4nBiAr/l2y+drMmOT7ACUwxrtT0S0bwlczfQJs2nWDy9lk2QSNcy0YJ10+3Y6LZinnsXnk7sx6PRAQksVXhb8bF4M9bE+9AduShVGUyfyH7FzYVyKQszd3s4lvLpKn6HVB+xoDLLNEQODn5RhGWEGUkdcXmdDzrwWc8Q7gu1oSYxKMi2Gb4t/p7xUWd+vxcT9+b3cGN/IroXZM6oi/RgIDGqotekjc1l80KaT2kxBXOuDwvOvYIlpyikR2eVHcqWEtKXce+ZI/jq1XN5lysvpPk98EeE9FXUnnoNc88deUdI3z6GklmOoolh7Ha7VNUJNSkUX+wriKMrO4F70xZUO9qwdbxTNBgTzSzHkhRBrPBSoJsn9N2eE4HCNn0Sqo/0CoSMuS6G6NlrhBUrzCPOc7fgDyPHcS4XUgsxB4zqEp8uREZvbFYUVJqJzE9ScGfklD3pGMCawRsTFD+NGA1vYY+LIIvW9FVQa5Zcew51V3ZKVHxDYgjl2PdDfti7jZ/JezYNrvS1oczdjGX2JtQ729Do78L6WD8a/BYhxdqQGMBTib1Y72jHttFWaVtYpG/HXyTfwPcwgrcQVYLChZM2ZLO5DYaGal2St+zoXjCARCy0aFed/EV5xoxgUlXv8O8cMBQfw0biosPq+HGC+m5z8pP8jwG7enu75OXneJuEwuWL4SMYMUKyW7HrpJoStp/8YSGdTW5mzi06/wqWv35CCemVCxJVT4PdVd+JiYiQjgUzKDq/ByWnbhLSUy+i9O0TKD55dNbjo+eHsX/UJVqHKRg3NAykHfh11yEsOPc9hbAJ9khek+AD8hyRgY+wPvaP+Ukm7L28lgXI9OXIhbop0CewMcIICYrg7rje3491vj4ppi71W1Af6cefpd8ASbduh7k7I40UTJaH0bxjMIk3VjZKIaXOgGaUaiKpyuxoAgeZ/GeQIqfY2v8ZF9EQH8BHvTuw0LEbW+zEts6e7N/mtEmTqspQJ8riVml5wS5yS8MWMKhEkm6WVy3ztkqKo86r2CHZa5QFEvc4dmCTqwf/GHgT51I+5U9TOmkwpWachPe+j1FLikCynI6FzpqKHHETk02AJYcyieo7uXj9+VI77hozQsrf7yaoZvNjdp5WWJmnTay+zfEhNKSGJPrOFNjXfMcki3dDSKNKSOeffRVL3n5VlJuZ/Cw89/INIf1vl8+/u5CyS8h4xMAnXt2HOSffQulbb2H5iZew4ORxLD79KkreeAGL3ziGkjdfR8lbb2LJybdQ/PZrKD51DItOH8FDxw+gbSoua2kw68amaB8eiOySZrLcrc0mYbm/Q0iZ2NSW3afr3e2odbRI64qVPjIXtmJduBusPdxs70D15C6UuZtQ7W1TQGl/l2wABDgQ6CCdpKeaBQBBIITZ91d726XTN2lbyvxtQru4MdSLT4f24DfC+2V3TOgkl77hIiCVziCZUSmJGa0oy5QrK5GWfpRM8gs37ntfv/JOEQRZBcrMPJ/0icBQcChArN0lHpXA8RpfO0pdu1HlbcXaaI/0uZkbbROB5CKmcJYkrBJ4afRa8dlp8zw1UUtz3LtRFNiBFckBfBsXcQ3StVZMcy2TlN8SZJK6XgI3lNlOjTuzGXFjkg3KoNedj0Jxvgp9aMDJrB+/q72ERfneK0sjpEntwRq7VYKGxNsSyVRH0EO0X5BD0q5yssl0fZitn1XuHvxvjGGctz4L3PNmF+69fBwPnXsb5a+cFt9UgkinX0bZqVdQ8TaP11B5Uh3zzxzDsleP4xOnhvHfrswEjn7EJyXXgBLSAyKkS948iaqXjt8Q0oVv7EPxW0dQ9vZrqDhzGmVnzqDk7bcw740TePi1F1F26Rj+dOoK/tV3Fb/vOoJVrhbUk2I/aBU8ptkgK53NYo79f8y9B3hc2XklWGq1Wp2ZSeScmVPnLLVkyfbI9o7t8TrNzjhJtqXRrFea8XjXSiPZnv0081mpmxE550iCYARAZIAEGJBzqgIq53j2O/+rAkGpWY92oe2t77sEiQei6t13z/3/+4dzuIiOmVk9VC6tTCznYhj9GX8RMmxleFlXKkrSpFvJNiuF11RAo3VmiaBMukkprqZryGIAlhSqvT9b5ugOSjWKvlAIr6hP+p6xFr9sbMA7C5W46iIdtZKCoGfKLZ5nSy42uq8icbGZajK4+OzeyB1C/gY5x7INLFgbTNeTLihdUY3zFHLWi/D6TD7emC/EFy2N0t8bZyqQPCL1eo5SmGo+H9lsutbmCocU5/eVJfVNjC71SUeDuNh0tRPHPsDnl6tR6BwTUi8SOhOUsz6TRKgFrJI/5FlbsYGcjtBc0eWXiC7BuQUgJSGa/B4/5Dn9b/qLwhJPtvkDxioJGFL/NJ0u/oLCs5WlLRYxpQyXep5Zbf2wVPX16RL80Wwbqtx6ZMxeQlLfRexsv4SE4SFE9VxHTF+7WNbkwW4kD/Yiua8biT03kdDVgb1D1x8GqaQBPxKkwLM3N4H0ejui+tsRM9CF+P5LSOi/phyE+3sFoDEDPYjq68S+vhs4sNSGIystyFitEC2VnMWzeH+pRIiiEszqZV0CytCBn8z43PGNpchYK0TKSq4sLoKVMoUx63nioqU6K0S+cI+jWIrsuUvSLWHxfTK7E9xlcgYl8bTaJNPaszyRZFEZhmIBKeuMGfV8U1+FbEu1kGT/6fpVLHnYN6KcJwW1UpjAFUhGb2pWsq9U6YKRhbMFRGFkUZDzyaagDYHLQAupNvIcd/G6sRo7jbmIMuaDGqzv62vxJXMznteTr7YExxcK8MpUHk7OU5+kDPvtSqkcvQi1+WF0nOwEr1nqpfySFVwZs+elEf/3V5rRYpnEqI+y0EEpCLcHTqtF8okMisk8EIw0ntzYvD4JohGoYlEjtaTBXB9/N0WpyHNUY53EbzuuYYenQkoMGX/4zLKiIk6JSqoqsIrrpC3ymAjLDXdqz2DXWj6+sNYq3EVvDF5ESlczPtXXiN0d17H3Zjtie7oQ39eDRGKotxtxNzsR09GOvYM3kNbRgWcH2iDu7gZIN6VgGMaYNgXwTGcLdvT2I75nABnX2wWABGnK0AgS+gcQ3dWJPTevYE/vJcTebkXK+BVkzV3HwcUKJOjLsNNZhD3uQuw3FuCN5RKRssuycacKnwc9aa0Ce03poqWtU3m7FDm2ciEO5r9/2dQo5w4yCqaS38ZahVdwEW9Z6vD5+/miDs3gEOUOCNYdrlLsomThUiHeng7/3vxsr+jLwfQEW+nIqZRtKBayK7qPR9aKsd1aCHLIkl4zZe4czpiHMR+wYEVCGqJloBRqeIMuXMhCuFkbyRUU2Ytpjg2Dw78wd8lzLJEqhtoLo8eCb6xdlQKFWFcZnvcU4Un9Kby3UiHzyXujng8ZEahwfkhqqEuRZlafH3ol5FzabisCZR6pb/O+rlYCcJ8yn0fq1Bn8g/OW9PMKUEVmnpVbPlh9zg0rJx6I5IkVoPIcKpL0kU2PgJ7glMb2oG/Nja3bq0OhcwJZK4Ui6ksK1igLWTOKJEfPGAX7ktXWp9r1hPlTSAxUYR9qsHv5LBJnuO6acXy6DdtuV2Jfb4d4nftoNW+2Y19nB6I7OxFzsxvxN3uwd/Am0tpv4pn+Nnzt3og8U5a4CEV8KAUjIDUiCNIBAWn6tQ755dH93UjomUJM113sI0h7WxAzXI2UaYWLl4Ch+C55RXNspTjoqUC2o0w4bDLWikFmArWbZIAiayUP6do8yecdclWLu3aIxdW6QmRbKkWC4QnzORz2NqLSMSFtYWO6eXzFdRPPWPIkNcFCc3b0v66vkYVE4EaLVkv4hci84XFDGY6Ivk0QqPoiIULL1CptTkycv+loEGoYzfz/xBdWq3EjsIS7PKkqQT7oKIjEFA5xyTCll3SSgqLIliEflF8pIGAhgQCWf5BXloUGLBRhD63DjwWXEb9hu4RYKwmYK4XFItlXiTRvFTIc5chcL0TG4jlkzp+VAgf2Wao9HxZS7DcptcLMa7NMkQXtPJ+y0IKq1i8unxYe5erAnOQQ7fAoEoXWoK3k56UnwHvxBZTIMKVCpIMksulhQarMCWNYHqXkUud3QuRTLAGMwYLfc1zDc8Zc0Q0lberexTPYoz2PN+2MjodfH2rXuUa4/g9YShBnzpM66ZTVchzUNeJV/RUkj3Ygfvgq9va1YVdHK3bcaMOe9huI6+5FUv8t7OnvRuqNbjzTdw1fu3f3YZByzljMwHmbNgJPt1/A9p5+xHcPgSDd29OJ6P4e7Ou8hZjeXsQPX0fqRAuylqrkDHTQfB6HLGfwhrECx3SFOL6YK+H7DEORlJ2RFOqleU5A+Ogjz0t0eanjecRTJyVfzOntn89FxtgHeE57Dvud9fg70wCsLOS3K2TeU/z0Lh/qzGP4Lfc1vGArBCXbX50uFNl2UpQc1D1cKvZRn4WuLt1bfgaei9nzSteXbkz6aj5OzuQJ3UaSsxzZ7mq8Z6lH9NIZJGpz8R3PANp9WswJX57i0pFE2upjs3NwYco0R/CHRH8VnRxWLnItEvp8H+riON0KszxrkAlZ/kCvbga/vdKME+Y6RM1+ILnQfeYCCRhRj0R6KrVFYMvWR83J5u/R+rDl640lRY2buUK2wfFowef7vDFXOnoYrdfM/0gYDgexLhbf4XVK6SNLIOUcykXHEVDOqAwmRfwK0q9S7l4Y/Tk5SnecBO5mJOTnR79XK8wKTyz/TDYZprCe1J9Rvf/Nc/FRf2dbIPWT3pjJRbqtEK9ZKrHLko94bSFeW6nD/uVLyJhtQcK9RuwbaMSerovY23UdsT29SOgbwp6+fqRe78fTvdfx1Tv3NoF0U1kgF9OUgSBtxfaeQcR1DSHtqgLSqL5uJAy3IGm0EZlz9TigqxZX6aCJ0of5yNbnCWcuXdTs1QKcJJP5fKGkNhjuP7kaHqC86ZOmSjCyS+4ZthARIGzSfXWhCO/Ml+BPAn0Ytq4qYiSs1edT9QfAjowlPm2PH3MuA77rGhRLG2cpBUWi3p57IIvxUZMb+h6jy3xPhu+5OQhQDaWQqO9qvnRcUOaRlp3q32S6+5K5CZ8z1EKz8A/ImM7FN9c6cB8W+WzM87H+VYJGxsgtKYvYed7icwoFeRmoCkVN+Rd2knBjkG8G4zELLjNydbfxazPlODGXj9iVc4g3F+GIqxZvOBskkp66qt5FQ0oTWk9K+iUv5opyGnOHbAmkt/JZS5NwCm1bPy99lwzQkDj8982XweYBdvuwmUD6bkMWNXgy4D1E+vJa7KJBK/cuk+SThnuuE9m0PH5YXTZFJRx+lGBWiMef153Fr+mbIwZpjrNRGh3eWiZjZiHemjqLJHsRkvT5SJ88I8UVB9eqhGUzY6YZSfcuI27wBqK7bmJvexd29w4g9foAnu69ISANuIhTurv/BJDmkJpytRD713JxYP089hsoZ8eIaCWy12qQoy1ErK8aif56vLJSiXdmyqSudL+7BkyQh8DwqK9ZS3lIW85F/Pxp7Jv5GZJmTuFlXRl+x3sNX8cwfGa7FLzLhPMh88nyKx/IuhNWi9JIzNKPYf+69PvtcZXhKUuu5Lce9b6h7yev5SNdXyRsEQQpiaWkQV1XhExtARIdpciwliJbX4TDq4XIXM7FtuUPsG/tHN601GCvNh/xy/n43EI1PlwZgM1iVepQvUo+L+JFKKXFPqU9zOOWzWnz7xTVNc4JtV5dCpg5VxKz8gItMOKb3l5hctw5/ROwokiKGKxVSH4M3uQj03lCpEaXl4UoDLwI44Gevao1UpRCzRqe+VgBlbiaL3xD7L3UmD6UdjwClc0E4pbyjy0EqawHEStXmuvZlyNbI8/uJqXbiXlmERzmV58Ps049/pvppqSWQuvgn/t1n64EaWuKymAMavHFkdM4SpFha6ls7PuNp3HIXCAqdEf1l7B/vh0pdzqwp/MGXmi7it29g0i51o+nezrw1TujIEhdoCe2CaT87vSaD5qei9h5YwipXT3YPVqP9IUiHF6LPI9EXhjuvKTDeHmpVM6Nooytr5DdmRqgByiMo1VYBN5eq8Pf+1iORgLszcvxEX9n8pvtcGbF7ePivAo9vmLtFMJkUjGSw5U8tyxmYOCDtIxpC7liCf65Dyf0/xiAYIH6p235YJkhd+di76RIGZA6RWtX2t24cOiScm/h/HMEmEdk0INBJ/4A3TR+pdSjpHa2wB0ky2fAj+rAAn7TclkavzPn8iWPeNhah9eWy6U3NcpUBCqJ0Q0URofZ84/Fexuah0d91az8TLqQit0T0AceNFuQ88jvC9ZHc5NhV01AmQIWOLBEUMD2iMe+Vd8+vl6KN9cr8N5quQQwozylQlzG778ymy9iY2wkZ8Ua6VLeXFLYDOVsvqZeB/Cg8D/oVa6XbegqUREi5u4gktu78YmONnx56I5MgOInselbef4aBDyYNfmhGW5G7GA3DozcQOxcLbLI4L2ufmZ51MMJff8lQ7Xw1rA075izXkijdsx+gKS5c/i8qQn7jVV4YeE04hfz8F/sfZCCai7WADU71Bcpd07KQ9hIYcnoIYtWANyGHdVYFikICkaRJT6BVTbkZaUbbijHPpd6iih0H4/6muSvFWvy2oyi6ZJC8jVjJf569Tq616eQ8S5YAAAgAElEQVRlo1n22rDuJ7UmRLJwzmUSDVYClrJ9XIybrYz8I2hxIl6MbiWKyvfivJBC5U1zo5RCZixQCKlMgnPvmRrwmq5SyLWSA3V43dMi0pSPuu/H/f6btkZQ0OnptTM44W1Gr2NJrBqJu7kZkWJGNi7ZpPwKBQ03MRGl2gqHWG0GPThtHkTCeh6eMHyI7OARh0e4V01ViJ4/g2OLxXjdWIvDrnppF3xrqghHZvOx06RO3h0epOVInetG9lA7nh5swV/euSVrRNF8D/JJSxdMwI9FEpFNVSN96hJOzjchdU2RkiBH7OM+jEf9XMZCHo55m3AUrRLKp7Iad6REcyk0+g8RryvCX9huot+7piTt/QEJzW9I1anMMatrOShfR/ElWfEEeZARj7m6v/YNCj0ki+xp0Y+MnZNcH9nkH/W5H/f7vzRfKaWOu2zFoO5q5mI+CFgGVah8/V1jn4hM0XLqN6UkKJzM5ArPTgRPaGwAlvuTS5avygyEvyxneC56m9I8wGXPlrwfOkaQZa6CxpUnJZoHJs8hZ/o8vmhsksqcZw3nRZn6cefhUT9HCped3iCtzVwxdvsr8Xvedtw3LELyqA5mlDzCecA5EPeVpG4kd1Pfo8Pf/GNctYnCvRc2rw0/WuxA5nKeHAleWa9AjLdC0ngiLEY+rbUyke7c7a0QBo3PjKsbMTWQHjRewvGpi9gxWYf/PNUn65a9qb6AFwEeYUIgXXA6oBEa/Sq8zrpWS65U+xzUquc51ULU7NpguR41JikjQItKxjW6C/vRgsuWWWEBkOXIslUPa1iVLggT1b7VXlzVwa4eunUSere5RNHZ7GTLmUIpuQwH/tzegQRdATjpb+mqhcNX7fOrXadSHJnNmfQnPw8Zz0kKRl7Wp7WnhbWPBFsFPhI+ctKDxfR2FtwzdeKWKC3V4tj5QVARSEz6Cyu82v2rXF+HXzk10DLzSOBSiLy5sWntZnzd3y9yf3vmTglv7b61PKne+pXlWjlfqt2/2nXyDf3KUo1ULUV7KoXWlDns454m/F+2LqE9Jf2pnGz8AWESJD2qPPl/AUMqAS1qC7F7y+2Fy2YWxftdtkIwqLjXWYYjKyV4Y4YkZqXC+Bjjr5b+XoUoLXwKRw2kh5xleHm5AnsXi/GNhQ55+uwnleRVMM2uIRHUrM0CzdJpyZ29ashDiuUUMrQFiu5LhHkkWi7yxPDhMzpIhe8UVzW+570NH+k3uFo8PiwE7KLiLGuOAZBAUMxXZREKwVWQ9YQPls+V65HYlZ3Z7oSF0b2gMtol6PA5Wwt2rucK96vaIlO7Tq0X6oCQH/gdrcJM/6IxTyLcbwcuYdv6WaRaSxFlKcTvmi5i1qZFwGHDiixLL2AgSRfB6lGqcYL3wE1LXGC1+1e5zjmhQ8kNIORBk6NILKuB8hgG3IEZv40OaIynRWEsx1olXs9vrlIGI/wiVLtOAnByM/FcR2JwEseRKJwF6iQOJ4E4icRhVcjr+NxCFnSDeFzlHiO67FZU83j+87jJW6T8u9swI1VK9JBYzPGSrkKG1IevlMoxgdq7avevBtIs21mcXM7H3pUCfHPlugQmFI6j4EKgJfUzcGQ3QrNwSuobT67lIcl0RixCxlLk7iA5YflAGJrfpc/D79quYMG2rtBReP1YDrHscVWymMbvhcFtVwIJj1mwQ+vDoAzPp7KwgwZLHh4DM8Ju7w3qxygH8grv9CZBZPVU0aPcOXb10DtgZJNarNRhpRzGcUokeOpFIIhtYq/qK0WP5LnVD/ENx00wf3eHlRDcVTYNctK63VKiLhtNRAuQ/5nz6vSLvCNLCcVj4UQ5vRhn5YXFD6fPBV2A3UvTeMdUL2d3SjaQZ+lR9/24399jKZI4BGMT9DgowEWiabJLUHaQBS97zCUizUGJDh4L+PFEQ0989YhnIOwvEM/F7oTV6VAWjweYgR0jtB5mH6rW7uDfOi7jeWsBds2fkjQjDY+o1q9G7u6mGc/h6EIR9qwU45srZLdkUzmrnjc3fcOBaacZmvlcpCxUisweW5gyyWGqbYj4IX1WWyOlWG86m3HNOa+0IzkUxjWGxdeDta5cpz6H4o7JoiWFjlmdCIz/jxaTgQjmJgN2F2Ali71XWP/YiUFdFKfDplgPl0LlsgSn9G0+7mJ71M8Je7qlShL+VIY+sFgIsj6wlDB19pz0ZbIcjyWG+03sQCmGRv8zMHpYbxvFCCwgQ5RYfe4wDg/cBgtcDgoKRm5LKcokwKSJskBEmyjetMilS2VAbgUkZzORit+HJZ8Ff2vskmKFbGfkm/QhT4OcbdmwzgowNt5Tp5ZaLy+PMe9aLJFmilxR7IqiVxS/4v4hYlhhIRb5RdZai2tNi2p1KH/nvu4ADCQbY2rPtIj/c/060m2ViLeX4+3VKpA4gEUej1oXoe+rWdIUylzO12Hfah2+sdIDf4ACyCxsDPI5y5kUNsx5bNDMFyN1vhknlhuRZKxAjqEWBw3qTcWhD/Oor0y7nLYMg6VizFdRdtbmJyWkR+mi4AzZXLAaTdKfyAXFwTUlk6f2HPiDYomYJyQ/pdKPyG/xPEZVZ6lskRyZYmIJ6HbPEr4/dVl1kh91X6Hvs/yRZM6UwTtmr5NqllQdq3lKRImLrXtZ9nIk2EskwX1kIQ9fmCvFy8tF+OTqT/Bfp9tQZB3DjELAoaRnuMk4OF9qN69+nfPAzhOevXju2wCsQ0nz8PRDd5hbgoT8A/y3H81YxNfWr0U8P9kTZyWYxp5eFkaQtZFE5iz3ZPni/rlCRSZyvUJkIykfSRlJKnErH1b9HiP6CS6y4HFJXO3gfAk1DLuOSG8j/rcffT4t/r31qtRzP2crUMojVSrq1ECaZmjEiaVLiNZewDeWByVOYQqQzfdB4EwTCPgw77ZCwz7EpRqcmGtA/GIF0ufLcWCpEjkrdchZqZGxf7Va5MRFUlxXiQM6Wt4yHFoqkKL0V6wUJCrBLlMeUuzV+FNDZ0Tz91j/mUSECEgjMM9dLOxmwIUBKFmQLNNz22GCS6KJs7Dhf+p6pL2N/EEhsP1rfdU4zwtf0V+ZO9EJnXgEsigcTsBi3wioSEO0ySfeAS2vnvfKhP3H/DqDRfy+/Qay5guQMnkWR+aLFUFjXTkOr1fijdVKkXSkkBH1RA+vlOCwpVq6khhIi3ReRy1UejdiQTYxBgF9gN4mFJsMOEmttET3FXpWeebB5hvxTiKdH+5yBLKFHE8BqdEuxzz+3WoLYm//GNt85UhwVMjxhgwObEhgio/iUfvXy5C1VBF27F8oQfpyCWKWCvCf1zuVjZkhA37u4CatYXndbBiQUjSYIwRUapISpKHx1lQJdqMemd5qHJo5jW36U/h1RyuGjIuAbQtMgcokC3Md34b4tDsBJ9vGlP/E4moGjWgh6ONT1OmV1XIhQ8uwP57+ZaSLTO3/vyu6lqWIWjyLo1N5+I6xG+NwivXnydRIl4vuV7CXVJjnLTwLBB+kyvxEepkliGafC2XOKbxka4TGlosd1hIcpVXUVkJjzxV6kV9fqsPnXK0itJQ4fVqs51FciBikz2vP4NvGbpitdIEJQeVZKiQ0fomGyz0Gj3A8y66H0nEEVoQvlnkS7FJ0IjuAQvHSDwuqvHN4e7JIYi7x5hLssRZLayP7WHMMlUi0hAcoAbx/vkwkE1VBOuOyQbNM/ptanJhrRPxiFdLnK8WSZi3WgSME1uzlahEPDokIHw+04cByCT5pPoO3nA24r52ScLbsBKTL/LhfNCg2B1x6swCVzom4LZxQEs35PGhyz+I3jRdFaYx6KUfstVJYwd1fDUQf+/Wp8zi+UipntRhTMbatnJHo5wfWYWi5hRsUd5Vnd94X96N1r0OCS4qZ/ZgnmF0+PiWQw/avv7b1IdNWgx36AqTP50vROotCnvMoEoTU7uSZk6k3iilFOn8vr1XihbmfCZHd/7APQStc8UxQEJWklfEo3Mm0dkSTVNMFpGLLL0HDyOZnTTnKKwJcJE8PbpjipgWAYZcW3zJ1CwaidAWIMpfjFdtFHF6txo5puvqVYUfOXBnSFssQs1SEr6/dVB7wz1tSvx8QkC7lIX2xDsdnGxA3X4W0OaoaV4kYKtW9ReGbgF2qkUGwcuxbKMQBWxNyKT3ocEhxsEhNWH3SmBzZFD3G/3b55dkwPMKoKCePi9lKF9hkxJf9PdLBETNzSlIB+23VEoUl4bTCoB9ZikEtBK92nXJ9PMMmuaqQ5quTfGvG6Cm8MlWA3zBfRI1hDEZSlDAM6WFDuZLnpI1wU2PlY37xXG91O5XzPt80AHTopvDnS23IMVdj+/IZCQxRHzV+vRB7DQVgCoeFIlLZFWEKh5Sa5MSixCGPJ6zmKrKPSlO526uUghKyzDNLjpxelJi+YDNGpPNDSloPLQFdNQ7+W2nwl69WRW2+Csv4rv02do+fQfLwGRy8X4zjC/XImK8JO3Jmq5C2UIXohRJ8XdelgDTkJTGOIikYPzDttEHDQveFWhyfbVJAOluF/Qs1SJ9tQMY834xDUTDOXKhF5mK1jG2DH+CU9o5ivYTjxil1t2vc6T7+NaT0cNJqkoWTd8SFZLTjQ8NtxLqr8SlngZyPmMNknWq6rkiEd1gk/ooI9vzrglTK8kwV8rkovESr+rq9EVmOajy7ehpRtnJ83dCBSbNOceN5k0I+TpGoj//FNHbwLRUGiqCrskwlAus4KIsh3U+jZ+UclumoFp5apqX4d7VNSu06mfvZbM4o8bvui2Cgbtv0T/FvVxtxxbekNDP4FaYKEmtbCFybtJIoayHSKTJSJfBBOoTLiyO45JQAH61rQEn5Jy1XYN90EVKmK/HSQrNghrh51MieqUHaQg2iF8rwn7TdGyC18h1CICW/8bTDAc1CPtLm63Fsuhmxc9VInalCznw10mYag6NeAJs+V7fpDWtwcroBP9Hdx6qD4WufKExJFQdByijlx/0y8WzG91XY4TusC3jX1IRPGM5h93qB0KswR8eaXdZh0gWj7AQt6nOrHz9boZq7R7oXJvjfW6kSST3mW1kgwTMzrVGUowJPrp3FUW0FTtvuYdZrgc5rl8IHaZX8uOd3Q8GcbH4+iWmRYZ55aQZTGIf8H+5hYWSMmjkldK1sOGCt9Esz6vQsavNDISsSm5MlkXl28uB+wdCIN82Kxs/313rQ6hLlmg3kmP1usOxyK1Yfy1P5e2hvOBgToKCXBHy9LLFUCm8CertsGC8aarDTdQE71xoRM10L4iXcyJ5uQOpcHaLmyvGftL3K73WQ05gg5XbApm8vMGW3PwKktUidalTGdMMDsG68cQ2eXavBD3R3AWNA8nAE6BpjUy7Pv0j0cTHAwgdgwqHH7ziu4xlLAaJYRL9ciuSlAry9WI5XlsuEOSDHWC5VRiwNZH6TpWlqi+Tjvv5FSwtIjLVnLU+s5xvWBjmTsoop2VSKVF0Jjlnrsc9YDM38P+LYehUasCoRbSqJf9wv8Yh0VmBVSfZLG5zTIWJNzDGGzoaUYvg/7NelsowqAWwSfxx9UbX5ZU4yfbVQNlm6umyM2K3LRay+UDp2PqU9g8/rGpBvuINlu0la+QgmegBb4WkwtkLvWcjmPG45YshZl26vTwETPQ3x4tyAZvQneHK8EHvn6pG9fgNpM/VhR/Z0E1LnGhA1V4GvrfYoG00IpH6a6IdAWiA/rFjS2qAlrUXKZMPPATX4prPKLpF5uxy5tiWZFAl+rRuAdTbikob/408RcNF8338XpHHcrcvHIVKorFTh9cUKvDZXJq4tSaeYw2TPI+toeVZiPSZLvdQWycd9Pc5RLladAriHZ/KQPZsrdc084zG3+Mp6DY6tVgg38BFDNfZp8xE7fx5/arqBa/8Sp367kuyn9WRPqBDNBoP2PjLuuxVmO0ZbObptC/jK+hXEWEqgCUResbR3PR+k5GST+cGlIinB5LzQy2AAMMlVIxKJSQt5+N2VC6h3zEjttwR4tsKU8l65jOVMqvyd3yJwxZswuiTyu0TqHB+gmTqHw2ONOH6vBUfHL23yREMe6cNfsyYJ0iZEzVXhaytKgT0cjD2wmCEIUhrxeYcTmslyJI+24shYK+Jm65E62YCsiUtIm2oIO3bcqcePjLPw+5kMp8Or+Oz0CMhmr/piysTlk//HXYugY9qBFTfy31mA7nOL2CwJo7kUDPBjDE40+ucjBhkDSMeMJEMrR/oiz+W5EgjJslWJKDGLn19eq8ZrhjqhiHzBkI9oYwm+Ye8VyUCmfEodk3jfdhEJJNxeK0bqCkV8S/HWSjUoMc9mAoKOiXyKLPGclagvEl2TSDeBH632oCugFSIwdpVwhligwJ1fgU1AAipcWGIF+UAYALEHI5WqDyj8DwgO+Mt5biPVKYAJOHDKOIyvjDfiE4ECYfN4d6VMmubJbBFnzBeiuXdt9WAK6sSi0jFEXlwppbRWSJkli/PV5oeMkRRxOmKpFFpWNrX/uqkZlf4p0cu281xHkHEpsn+XRSL8e1A7i3cXcmdl7TKN51G4mdgPrPqSxis2MfjB4/CT05VIuN+CrKlGJE+XhsUOsZUyV4XkyTrE3K/B1xb6BQdsH5VWPgWjFGxyYc7ugGaibAOksTN1GyAlWMONjwIpf/fjgpRuCQm8nHYHYCM/inJI54Rxt1rkRJFz1qiUaPEw3e1exv+uawF1XtQeotr1475mAVL0aq4EOo64G6Ql6dh8oTDEZ1ircchYjW1redCsncIXDM0YMFNFzotZOCSnyadss9nwDVMXYg0liDOUCKATacHHz4MbAZvPSQ4WZShEjDZP3LYjvsjd7Sh3BU4YqnDWMqJ01TjdgN4qcyaLLBj9FnfM5JA4AeeVG6LXqF52qbZI+btYnUMGDQE+1THA+lcPuqDHPzgHkOOpxtOOXGngYKXVe5Y6vGGvw17tGcTOnxWFbnIF0a1Nnj0rng4b9NnSqPb8Di7m4/XVMryjI1NIEbbrziBaew6/tFKFb65elo9P/VPGLULAJGk5v6cA1yvatAQqsSvnTe40wftS/hbmT/YIS6fRz4F0sgnJU+VhsUNcpcxVI3miHjH36/C1hcGHQRr0BERVbc7mgmai4mGQTjQhc7wNqRNNYUekIF1GQHEbODH8UAyh86t06bOJ2y9d+gQn1ZX/ZK1NFjppPNImIyeSijYXi2Vjhwb7BRm4SbKUKa1I+jrEuKqgseeLHEWD7j6sVitY92vmB6RponQlFNl5PuUBvx5f8l5HjK0cJ7WVIDsdPytTE+wGYuH962tVQpLGs7HaIlS7vtddjnRnNcgx9P5KNUZkA1FsKE2ILDpGKI3UUqEuanA1egIgW26kLwEpHxnTX47gwuev5S5LQWDoMeRYxB8b2/CsIx/JbFdbL0XC8jmhqtnvrhNaFop3kY2QhfdHl4qltpcBNbX7PzB7XuHDWq0Qjqq99iI8Z8tDjCFf1BAOzxWh3DSqrCkfAz0+Zb3xxvkZbW64TVZRMOey4+C3+dmFJlRtgjZZUo+TlrQaCfcvIGuyBclTFWGxQ2ylzNYieaIR0Xfr8dX5gXAg9UAzXomk+5dwePQSYqfrkTLeKCBNGW9GuBEpSFm+x/kIDSGa5izRHNu9cFutYD7sb7yDeNahyNWfWC4VLRS2QKmF8NWuvz2vcDIRQImL5yXC+q69GSmeGmgcZ7HLWY5/1A/CY7CI20Rc8rPyDy5yKU2Tp6qkAWTZO32o0Y9KlFkDcvmWiVUItWplGMskSvn2vcj1Wd9ar5EG5JfNteJWP7l2Gr/jawf55S1eRYaSMo4hmUJ+dmvAo2iMckVG+OL9hhY3n6RsCmQ4pDvNih+rFxa3BRanGVcdM3jNXofn3IXItlcKUF8PtCqpmzlFs+e4qVoR1VpXCO3Unt9eawGSDQVC/8qfpdpBuqsChxxVInnC4Bujwr9quYAb/hXZ9H0uJ2wOq1KrzBuwu+FzueU+uOmI18GJepz5EZCyLtoPgvSTkzWIv3sRmeOtSJqoDosd4ip5pgFJYy2IvtuIr84PbQJpkFtZKbD3YtbqVkB67zIO37+MGPrK483IGGtD8lhL2BEpSDlBoWSxJKODGz0jdGQyaPMsSNP4zrkPpRmZ2qY5VHq2N0opndpDVLvOYgLu3HQZ6eomWEqFl5U7Ojlsp5YXsOp3iAtHYBKPjBoSrCyCt/nZKBAELvmWbF6hRtHCg1WnBd+y9uJNzwV5j6Mz+aB7ethRJ10UJOtS+3xq12PmzuBXF2ukhpqtZUzpbJ//UOpof+i9g3seg7AXhqKP0LPMUIkBRIhP+e8uo0XcRTbqcx442LQt9JoUW6LUBhkGPH74nSTL9uGsb1wqkljEwbQN0zUsumfDPDdKeh4swOdmpnb/0b5yUIM1dTUXWQvnsH85DwdXC0Qf59hSAWhZ93trxYKT1vT3rG0YxpqkN8iAIDgkIH0KF5SiQOBXCN8eB6RuagIFQeogSOsQf/cyMscvI2m8Lix2BFvTzUgau4iokWZ8de7WwyAlCB6A1APNWBUS77bh0L02ASl/QcboFSTdvxh2RApSEiSzhxImuktK9GwFQFlgDt/QtUPjy8PnVmvw2akSxK8VIMNTK/2O1Ov80ha00lF1jYXQLAonB9K+5XMCoELTHaUzhJ+JwsKhliZusFY7PAxs8cUHTGoSs7LzcV6Fw8jDdjle92NJt4w/crZjn7dSaFXIWft0gPy+6rzAau7ev1mqxXPaMyIsTCJrMraTzpSM/hrjGXze0IwfmW5j2ifxQsVD4VE0AAh3sXIX//w/pXBAYeUhQBnxDAWoZI3R43Cyflp5T9ncnB4smdbxt8Yeidayi4iAZZ8pqUMZfX9dWylN12r3TxmNQ9oiHFopxJGVIhzRFuOAtghpK3liqWPMhYhZPYcDS/l4SVcmUhwUTP4mBkT3dArKJiuev1PZdEmCJm2CwcBN2MkhhxSUQA/boJ+YqEXcyGXBTuJYY1jsCLYmLyJptA1RIxfwl7O3N4FUOkfkrTX04WYsbmhGK5F49woO3buM6MlG2QEI0sR7rWFHpCDd2MnodsjCsePH9jv43Eod9s6cljQJKToTnZUiHUHLwSjgu9Ym7J+KvMuCCtrkPnpGfw6H5wrwU22fiPryLMwo6YjfKDgMnZW9LMUjMEnw5/cp1S0SKWOu3y1N6zLTrILhU7MrUodMSfU5lvCyrwXPrJ+VRP/bjsh5X2MWzuJznkt4Da2yybDHkflgSjvSFY6bOoPkxXz8geEyLnuXpZl6CR7p5nic4GXYBcqLDIByPoJnOT7GzYNeEi+vwiM1x/wHg4XkpKJLkosp/NXadfzSXIWc31nzy6oidtO8q1fXajk+S7qXIoVgnYoKtmqJ9JLDmYwYCeZCvGyoEPEqSkLELZ6WXl7KbaRp81BoGwPjIvKhrR45W4e8ASkBVG7t0X+6SHbiFndXQDpeh7iRq8gYvYHE0eaw2CG2kiYvIfH+ZUQNt+IvZ0ck8K5EdwlS5RylgNTshWa0+mGQjl5E+v2rqm8SKUjF3whGBIdgxg/We/HOeDFiFs5jr6sSL7mbhHaDlUK0QK+uVYnrSH5XNuCq7bRq10nExWDO3+u6cNe7LpPNqCj7XQMehSHB5XIpHTbB0kOmgOjecZ3RcrC+VXKIXI1coYxGBxev2ecQWg7aMfZpMvhV55wCixh2Lm5BxZOhXDpOXl4owWfW60RciXxLrMyh55Hta0K6uRJxC7lSEP/Hhmvo8K4qn1MSfY9ef49zRZj0WREjarrBxc454Ppy8Z7ZbyGNmcphLzgv3JwpOEUgsDQjNzCJLxmahW+JLHyx7kqk+tVBmr2cj3RqrzrLkeKghlApqJR3mGO9VFzfzLUC5BhLcNhagQPmMhFNzlovFLB+c6YNt2j7+ZnNSv0vz6WyBsh9pPb6BZA2IG7kehCkF1TxkzTRhsT7V7Hv9sWHQGomMB6A1IVZsxuaezVIvN2JA7c6EXWvDYnDbUi5fQPJI5fCjiduXUTuilaOlXQK4WZ3Z/DMxtyp2ktZ6zJHrOD4rr4LUSvnhf0+yVAoMogH10twSF+6MUhevTHM5cJ+cGgpX/Q5M+3lyHJV4qixTOj/KchEesZESxFS1vNxcrEAX1qsxJu6cjyrP41/GL2CJsOEFF6IQaBsgYfy75uigGr3EO66kXk3JaBCVjyuXTrKLGS7tDKKp6wKHxK9A3K7Jq8WIGs2VznDmqilo54rDPczcaZCHLVV4zVrrah9vzj/U3ENv+3uxyAhxJRp0E2VJclHJiHbABbpr3NSOEiXysJyN/OrPMBxI5IZC3f3qteooSO/3w3M+6z4gXkAr+iUog0WpzBVk2DIx+6VU0hbPo+DlMbQFYq4V5yzBCmmYlAgmYp4ojSwXiyyJydXC/EySd3XyyQwxfJCpsKO68qFcf4dSyPet7fgU4sFWAkqBPDczFwzq6jkzhRDFv4epGHcLw0dnC7NnWokjFxD8u02xN9tCIsdYivpzkUk3L4kEhRfnRpQptQfzJMGz8SSglFAWvdzIL38rwTSHgWkK0o6hADdPH4erFnLuUi2lyIO1UJqTN7UAzNnRQQqyVYCgvdVVhgxxG8qRbKtBJ80nsJrxkpccE7iDmyKLAQfBZ+MywevySYMfo/zjMI/QWCe9DAUVCJTn13pgiTrvFnKDgIwemz4vmNQaorT738oZ+/3DPXirm5fPBUxSBN0eThhrMC79kYcd9UhxlaM2LVcvDlTiP84Wola84RIQUgekVaOHxXALJEaLE7gPISMoyxegpOqcSwMiPDFqOo63AzlyBGez2A8YMFXTR3Ys5ILzcIP8ep6Ob7AowHLJJnPtpUh21GBEwv5DxQH9CWySVNcmmLKEnAyFuHQWgWO6KtwwlCDl8i0b6yTdBp7YY+ulOPJpa0AKUWmFWZvBaQ3BKRxI42PAdJLiL9FkDYjLEhnTC5o7j0A6Y9T/q0AACAASURBVL67bUi4rVjSpOE2hBtbY0mDtUliSQnSPJxcqUCSvlTZBdcefGX1TmiwSihWn49UfaFouVA+4SVXPY6Q7U5bIJIVDCBQeOk1faXwqW7XnsZ/dXZjEQ5R3KL12LD3XKRMH4SqUjYuRLASyXEMcjkFI4ncHYMxJ7rJ3LkdDhsalkfwubU6aMxn8RTJqUxV+GV3W8QgJS0lAyovLxWLLkmMsxS7HEWI0Z1H2tQppKyV4E+XL2HJppCizcOptKYFszdsdiZzY+hjc74EqKxd3QKQSqpNCqDciqhTMILOLptetxZfd3biyFoJkqY+lHNnJppxwFGFN+eKcGKtTHSDGCw6blBEqA9bKpFlKUOKoQgJ6/l4xdCgDFMjXjY24Ph6LQ6sViBrsQRpswWRg9TDtbsZpLWIH25H8q2riBtpCosd4ooea/yty9g30IK/nBgUB4XlgA9XHAW8mDF5oLlTh4ShTuwfugkFpFeQPNSOhNtXwo6tACkrNgQPXuA7a73Yt1SIE0vVSBTem3LkrJZjP6tPgoO0LRvDXC6CxV9YrMDbc8XIWcoD9V0oRvymrR471s4izVIKRvl+39SKBRtbvuxKEwC7DLjQnB6wDlV4e4lHrkJ+oKC7EQFEsWY0KL8vuPhoVSUzzN9Psiu48QPnEJJ1hXhx9YyUDb7va5NoM9NOaikItevZ1jI5lx2ePoucuXNIpZwE5RBRgyxvNTKmzyHTXoVdzlL8+/VLMJuNki4x8eZZ/cVKL1aCUfw3OCUbe9cWuLsibMV5ZrTGx3OqByucfH5Py2OBHaW2eyLo/MLiz3B4Pg/H/Y1IRT1emS0QxvkcbYHibVF0izXP5mr5eshchbctrXjd0IwTujocWqlC9lI5MpfKkMG2xS2xpBSFUFIwASegGalB/O1OJA1dQ9wwXdnw+Ekcvor4oevY23cBfzlxSwFpwKXU7gbXn4btMNMGbxCkXdg/1I29I5cF3clDnYgf4i959IgYpKL5sRmk/di3VIQTS3VIXKtG9krFxshZrURohOhb3l+tkeJrLnLm16RgQF8lXROf1p0GO/vZqlYSmFb681jLSW4gWzCHR75bp1uS/TRwHJwb5vmEvTAShEpUM0jxQSvNpLnHK24diyAm9St4Q1eF45YaIbVimWPqerE0BWToKfrLipvI+l2TrMXi5vNs/sZ6xYaI8EHqv1rL8Za5FtsXP8DOtbPY7irCbmsB/t/1LsBuA9nd5cNyQujZEqXBzYbfeoywiursSZ02hYdDGyN3AK9yhudmRjecUfZVuwE/0HdLZxBrrF9bKMV21EjxAjceKsTx+wcWi/HqWg3et7TiV5zX8LKuAcdX63BoqQr7FyuQuViOjOUKZOmqkbVWswWWlBBVLJ8C0jrE3epE0mAHYm9fCosd4irh1g1RWdvb14q/GL/9CJD6fQpIR+oRP3gTOYNd2DuigJJvFD9wLezYCpAykiq7sxv4tq5f2LzZ1Z6oq5dJ3UzmlL1cic3joKkaKcZy7DUVY5+1DMnOGuRYa5CpK0XqXB7+3jyohAF41uLZkIuBItx+90N1mnx/LjqCNOQCM3IZ8Yu/kL+cJXOkFw34RdP0y84upNuqEbWerzR6r1WJ9SQ37WfmyyWKnQD16Ga4oBGvxRsLxf07Zq7Ey2vleGmxCMfm8yVtcUxfhl0LH+B9ayPettYji/KG2jw8YzmPl+y1qHOMQxekXJXzeehwKlHuAETRLdIJCiqDsECEPcFk7ud5l+FHdt5wc+CGSUPLeVw1rOP3TFfwrLMER3QVSNPnIYuKdySwNlTjdX0d3llrxmdXm/H+SjMypkuRNVuOnKVqHFytw0FdPXJ0dcharUHGctUWgJQZAI8wLvrtgOZ2HeKGepA40IHYW1fDYofYovcaN9CJPT2XBaS8ffidiiUN7oIaCEj90Iw0In6wGzkDtKSKCU4a7ET8wI2wI3KQeiXdsQFS7SD2LpTi+EIjErT1yFjg7veAJ4YixptHvKkMR+0NeM3WhIyVYuyb+BCvzJTg71zDGCTczMAa3Qe2EjHQ6nJjzmEUlWll8w4qRfMfm4ZyLdIVyP6u4OHODdHrpChV2moxntSfw1POYrw+VSgdMeQ3IrH2e2OFOLxQKJVDrMRRA6Ha9WxDiaQoeG7n+ZzHAeq/8gx33FGLE5ZKxGnPgQGX101VYm1/dbUaJ4zl0Dh+gr9xD+G0Zxw9vjVFmZsPigHZQECZ00iniBVnVN4IZgQIVtZCS8WSg+AM8m06+GMP6ryvGmfwhq4Gb6wU4d31crxvacDn7RfwGctFvK5txOHZSmSNlyJprhyp85XChJm9Wo/9HMt1yFqoRub8FoDU7fo5kDYgbqgPif3diBmigQuPn4ShLsT238Seniv4i7ERyWQpIN1czOAPYNrwMEj3DF9B3OA1EKRx/TfCjo8HpOU4vtCEBG0jMhaqNkaIsoVfQ1xL702WImfsHBImz8hD+453GP3sy6cVdAZgIj9QMH23UXdLX83hFSJtcuNI3JurRHw4pXVOzmBbYUmZWoAXP8Ks1PIy/8tG7pP6GtFzZfM51bN5LiQ1JMv6Qr2ubGtTA6Ha9Zf0FaJenmIpQYqtDPvtlThkrUSGpUxEhdPWC0DXl2kqpqjSVnORsnIeB9eL8cvmBuya/ACfXaiS+mU21guaOE8kLPRGHt1lzlnOpezQoegyK7z4a+WZBcTD5jOisoFsokF2exFNNvnxFdc1/AdrK35dV493FipxdLYEWXOlSF2sQvJyNTLWmpCmbUDKYo20haXOVCJzpgr752pxcKE+ckv6ESCNHexVQDoYHjvEFg1jbF+3gPTPR4c/GqQUK502+fBMZyN29PUivqcH6devYV/fNcTQkvbdCDs0N6/i7JxB9G6EaILKZsHcmyx6tZ1WIX2Th8EF8L21AUTNl+LodJ1IMGbO1SLcyJqpQfKsAuRj05VSkhYIWkQmPCJ9SR0qfwl/Z8jd8/I865VzLKUbCH4Tz04BZVFZAj74mYg2Ad/DEv4QN3F0sQBxEz9F4sp5HDArFjJjQb1iisp2FO9NsVVIvSs7QzjSrRXY4y6XtATzgxwHjaU4YqnAIStVv4qwz5ALqhGkmUqQY6tAhqMCVGBnXvG4rhTvUZtUJQ/71nKFFBg8u3ZWRJf+F0axSJeEeVIXz9t0T+mzip8mkWweX9j7K0UdnLfg1BHb4jGFvrHxD+Vn/ll/BoCS9XE8PV+ErIk6pMw1IWu6CVlT9UJbEm7t8NrTU1XQutgtxM/L/Di9hOB+IMTYKp8qmCfl3sKFoOmvQ3zvTcR3X8Oe/gthsUNs7eq7isyuTjzNM+nIkKwxOtBSlhicHw1jUwpIm4Mg7dsAafRAB+J62sOOjwOk++ZKcHS6AbGz9WEByknOmqlTQDpfg48DpOJ2BUEf2sn5z5DhJe+vMBQED7KyJv3AfVjxh+Zr+Ly2Gq8vleDAgpIKyjaX4aijBidtNThpUm/FIss7a1vpCpNI7aSlFlSnk/K/6fN4Z7ZQ8oWZWqWR+rCNDdAVYEVN4uIZUfU+zrTVcgHSF88jaTVXihrYe3n4MbRMqCB2zFyNN2dLcOj+GaROnMa/WWtElX9WUQZg4zA3Qyra2R2wuanMrpRUSlkdL29S9ua8SakAI8NsPo/0FQTpp+cKBaTJs40C0szpxwPpU9NbA1I7b9KsgDS2txPx3Tewp781LHaILQWkXUGQ3toAqXiCD4M0gGc6N4H02g3s7b2O6P6biOvpDDu2HqSD2DdbhqNTTYglU+FsXdiRxVaf6WqkzxGk1Q9ZUq9inyNbBpwor1/p9PAqAS5+i8tL9FDZksWoBr8G41J/572DDEsV3rK1IPXeT5Azd17yuAdslcg0lyKDyXZdEY4+RoE9K2TY/EyqF7a88ezKtjpKLv7KZBl2m/ORzjSLpQKJa/nYtvAz7Jr5KU7OF+DfLdXhldVSnFwoxLHZPJxYLFRyi+YKZFBQWa/ezxq9cl5ax5ja4PtTuT11OR/vaqvxh8Y23IEB9xxa6H12JXrOyLndKUUaZO8TZyaIRdpaRmy5AKlkLhtgZE9HHkTJ2iQ+PVeEzPFaJM/SkjYjc6pRYbpUWT+Rg5R5UtLKhkDagNieLsR3dWBPX1tY7BBbu/rakXmzB0/3XcKfDz+wpAJSTphwHMGPKaMfT3c0Y3tPH+K6+5F29foGSGO7byLceBRIJRpH/0bt5SMGgq1TXuC7uiHsnSvHkYkWxEw3I507YpiROdWEpOCueXSyRqplZHOX3GvkZybZ7Vk25vNJQb0sLJbFOQhOBqP8sHkcUpTf7JnDG+vVIF3om/oabF9VKp9Y6cT+Rp77ElbPIX7uQ6QtnJX8pVqKhe4mCxtS3TVIdVYJtcuhZUXBjdQsrCCiO0vAnyQVzFopDpnKpRTwJJWpjWU4wmEoxcn1MqneOaEvQ6a5RFq81N7/PV2NVD89by9EtFVhNnxzuUK0SzXrHyJ69Cf4qW1YFipdYLPHvqGf4qQ+LAEaBCm/0I1zBXxyxpRzptr6ULvuB4p1U0GQ1gtIuSYyJhXivHBrh9ciBinb8TaDtLcRsT29iLt5E7t7r4TFDnG1s6cDGZ09+HTPFfz58O0HlpS+2kMgNQSCIO0PgrQde7pvIKqvCzE3b4YdEYPUr7CNy+fxAN/V3saemSocmbiEmOlWpE01hh2ZkxeROKmQOx2drH0IpFtB6qg3m5RKGC4WWWXMsTJ/yNI4YBR63MIa/sB+Bc+uKQXzrJDZtXQKLP7ONpfKyGCNqb4AydpcZJAwTV8ikVU1kJC9Ic5QhFRLuVCwvGOok9zvPn0BNOYzIIFZmXVUcr/Uzv5dfwc0rvPQOHJxwl6PHFcV0n3VSPZUIM1QiOzZs9g/fUaoTFhOqfb+x5z1OGSsBDeGAwsFwp7ARgdqdpJblwRhlMhgO2GzY1qa4Jfhgp0BO4NSAxvCKf/FghFaCQKVPEwRv4IgfWq2GBlj9UiaoRVtQUZwTaitn8hByvOjFzYGGU2AprcZMV19iOvsxe6eG2GxQ2zt7OlCRscAPt1zDV+5NSznKJ5J3UFiM86PhtM0qQc+faMF27r7EHtzAKlXbmBPdwei+roR3dkTdjwKpDyAP1bgiOKtPNfx5z3Ad1ZvYe90DQ6PtSF6Up2+JYNdBJPNSJtuwpGJOmmDCllSKj1G+mJ02MHeUJ6hghaBqU/ScEzChh/ivpzx6GK+pC1FvK0E0a5SHDdV4vBCPvabypBjpOhsCXL05D4qE5oPEmcdNalz+CTNnMHBlWIBCvtdSZNC4P6asQX/zdaj1MLzJvnZfCRDcKHROo3fW7+E+OV8pEx9iH3ac9hpL0ScnUJCxTi5RP2SQgkqqQWOKFdIWpO35krx5lI5GMgikRrB+cZcCbL9DXhtvRqJ8+fwhPZDfMnZhumAWTwMBzwi4sdmBYJSKroCAUnfBD9upI9H3Oki7TSemilVQDp9ARkTF5BO2h/S0arQ/2w5SHsI0gHEdvRhV1dHWOwQWzu6epHRcQtPdROkdwSk7E99BEgvYlv3AGJvDiL1Ci1pB/b1diGqvTfsiBykXiHQEpC6CdJh7JkiSK8ievIKUidawo6M8ctIGL+ItOmWDZD62LEh2avIQcrPxQQ7q49IDcJobjes+F++UfyJ4Ro01lP4nKEW7y2WYtfCz8AKn5d9jThoZ+liodTLHjEqdaUEJRsEctaLlaESWSWAXpkrFpEp1imLUPF6Kf6D4TIuO+eUCCsbUliAwaodtsjJ+diHOa8FrVjF70xU4OW5AkTpziPGWoTj9hq8a2uQOtjotVzV6C5pWQ7oy6U7J3k5TyQ6CFAWXRCwpEulcvsr9gYh+N4zdwpPrJ3CV1w3ZaGxBlfy1H63HGs2NrvghhcxSv0AQfqp6RKk329AIq3oQyANv34iBynzpF5Y2VtsBDQ9zYi+OYDY9n7s6roZFjvE1o6bA0i/cRtPdd3Al4fuiKEiSF3+TdKHfMCKJf3/IUgnrqlyxGSMXxWQpk4148h4g1jSEEjdrNOK8LWhphXMqV83z+GvFq/gxHwJXlw8gzep4G0qRIq9FC9bqnBCWwx25rAKhi1zdHnp/rIThefGrKU8ZC6TLbAUx5zqedADgSbRWEmfOos/mG9Ag21Seh2ViEyQaIzgdPsR8CnUkqzckfpgH3ANJvwXXx9yVgqwffYnSF/Jw2vmGrAQPcqsHjgikRrZ4w94G+RcTHqZhPVCIRkXwStDuTRrcxNJ1hcL0TcpOlMWcvGJ1Q8wAxtIYG7yuRReJYIzGBAOeSYRPSKCdHXmESANz89FiqAtB2n3BUR3DiG2fRC7urofE6QjeKqr49EgZWxnxmDGi63d2Nk+gH3ttxF74T52dLYh5totRF/vDTs+cekWcmfY265w7jKFxudgo+/6OHEbptsCTAS5xDJ8d/Uedt2vw/7hZkRN1CBl/ELYkTZWK0ROCXdbsH+kVsr6hJ6fH+IxdmtZM063NCCHrDndb/lFXExuhQ6yCxb8FW4j0VoGzcpPQQrQd431qpZIzZ1kEzubtHnuJEP7e2u1eGulUgoaGICKnT6DX9NfwHnfFOaY6eeH5N4TTPmoLnCqonkCaPMsSTld0kohYtmzaq5CNjuGVkqwX1eCFHMZ0t1MDdWBvE850+eF6kXt86td13hzpVSvzjKp5Eg3PRPSoEb6Ymw1XzeDJycbkH73ChImW5E+1oj0+y1IGbscdu1wbT0zXI15SRPxxOySXlnJfEiwPpgDCfMh6cJznfN45/aZ8emLdxF7uRcv3uxA4vWbYbFDbO3p7ETa5SE8efUmvtI7GjyTsmI5aBV4JiVIp/UmBaQ3hoIgHVNAenVY9U22BqRMbRCkAEG6YzQE0jokj14MO1LvE6QXEQKpnIXZ3fKYIGW0kbqm7GcUahQn6TCV3X45yAb4Y+ttHJ0rwI7xHwvFyhf1jUKEFu1ULwZQW8RkZX9FVwmy5CXbK5DiqES2vRq7bMXQWD/AWdcYLkOHRarG8XMxXuVWtE4oh6j6crNNzg/yRvEeG9xz+PXVJiTO5yJjsRBvGGpF0IryDeQWYsXTa/6LeM99EXsWImeOeJ/CXlO5yNaV4U883bjgW9oAa+SHEU6HfwOkaXcu/wJI1dbP07erIgKplyzzjwBpwtUuVfzs7uhAWtttfPJK1y+CVBbiBkgteOFCD3YGQRrTMort7ZcRfeU2oq71hR0Rg5RVeFJgHwLpKLbfq8f+2xexb7xeuIDJrP+okXq/HkljrUi4exE5w3Wyo/1TLKliPSlXz7IhhwQ8uHgI9jPucby0Wo535svw7myp8O7E2Eqx11kmqRB+Tw2EatcPeOpF1yRzvUQk/igfuGvmA3xt9TLWFSo0BYfc7flh/QEpo6NLS9CpvWb4A8QyidKCNDWEyY+tI3h3uRoaxynJw352ohivThfiLUMt9lqL8SnDWbxtjLzA/0srjchZLMKOtTxEmUrwxlotvmPqw4TP/HiBRZUbJEjztNP45EQ90u5cRfx4K9JGm5B2rxnJo22PXDeh9bSVIHV5Tfj0hfuIvdyPFzq7kHC1Jyx2iK3d7d1IvTSMT17uwZd7xh62pCGQckFO6xWQ7rh+C3uvDyOmZTwI0mHsuzIYdmwFSJ0MKgQt6XdW7mP7vQbk3GrFvrFm4QImH/CjRuq9ZiFyih9pQ87thk0gVcL/Ks9YsZrB2l6QklOpw8eE14TPzVbKgqUruN+kFBMwN0mFNlb8KFoykbWSfcbahDfXqoXKklScVMy+tj4hcvP2gFvOmRtegT8AEQuimK0UWajdnVIIL06bAJWSgApBNi3rmN+Mb3mHkLRwHtunf4ocbbHwIr26Uo5fXq3DHi3LFiO7v3jmdq01eMPUIDo9T8/+TPiW/tF4a4tACuSuzOCJ8QakjlxF3NhFcE2k3mlB0r3Lj1w3ofX0SJAyDqfY/LCT7A7QRVbidQTpUy2jiLk0gBc6upFwpT8sdoit3Td6kNp6F0+09eDL3eOPBunUuhXPt/RAAekIopvHsO3GFURfuYO9l4fCjq0H6Ri23WlGztAV7Bu9KDSjpBp91Ei5e0GInOJHLiPndtMDkPp9j+MMKg8g5DXSnCrpT9x167Fz4md4w3sBWb56sZ4k9jo2nY/Xp4sk4hnjJQdRZItYhI1m/xFHZvNR4ZyQjnwqfM/AIgEit9cjZ3a2bjGvyH9LnysLKWzBrTbcMpISWp/8Lv40b9XmcSlgp+NgNuM+TPgN7zVo9B8K0TY1a8h5+0UtLWlk95e+XoZocymSTeU4wub9uUIcWy7Dt+2DWFa2yHCfXvUa7+f88iw+MdaIlOEriB1tRcrdJqSMtIDsl49aN6HvRwpSicIGQer0mPFUyxhiWm/h+fY+xLeFxw6xtet6P1Jb7+OJtj78WdcDS+rl4SZkSamXNLVmw/Mtfdh+lZZ0BNFNEwLSqMsj2NM2FHZsBUgdfscDS7o8jm13LiB78Br23m9DAs8ZYUbKnTYk3L2OuNtXkH2reRNIPSwnVX/5AhJ1FJkEs1L2xwe/Ahee1+dh19IZUTf7JVMTPmtqFGIrarkwV0kaFzV3Vu26xleI7/mHYXXb4Xe7oIVbal+lgN3BTh6izCe5RVpEej7kACabHfOPai+R/wtSnZCHR+Ld/CUWDywuB8D3YFOEz4/rrgUhCX/aeB77LVUiD6n2+dWus4Mm3liKF02FyForE4U4NmV/z3lrSzThmL4+tzQDzWiDUJbE3L+E5DvNSB5uDrtuQmvqkSB9zMCRx0+ycUXLWEDaPIHoi7fx/I0BxLfdDosdYmvXtVtIuTCGJy4N4c+6JuR3MVT5CyCd1NGSEqTD2HPtDqIax/Hi9SuIaruL3a23wo4tBakX+PbSBF4cuYDsgRvYe+8yaCHDjeSRy0i4246429cEpHK2ZOCISmwhCxluJXsCYlmsTodUEQl5M899AS+2mYtweL1c+H4zZ84jZz5fAMuCc7Io8ByptkjVrrf7VzAeMIF9vSGmdyMozkvpOwKIpp0pFoWhj7Ak0JTOm3A3plzTr61LWkoCao4AoDVLOkTYPIU7ixuBD9BbAIdTKoU+NN3CMV25lAGqfX61669rq5Flq0GmoQInlsuRuFqIHdpc/JWhU3HZ1W8h7E+wGefs4iw09xqRNHQFD0B6Iey6Ca2pSEHqZs3yBkit+FTTOKIvjuC560OIax0Jix1ia+eVYaRcmMAnWgnSqQ2QSiHOZks6qbPjuebeTSCd3ATSYexuffTYUpB6giAdbkX2QAf23ruKeHLAhBnJw1eQcKcTcbdvIHuoRQkA/ZNAqpBaE5TEBYsVyHtkt9rw1MppHDZUCN8vCZspKrR/tVgBKpP5FLV9jIKEcD/z+t3zOOO8p1hPrx8BW7BQnWJL8AkgaUGFsYDsDrSs7B55UAAVdhGLfxvkcaIBFUvKSLaX5FnUsvEr783kJYvjA37o4UGrdwH/t6494vs7oK9ErLUcaStFeHOyGDnzhdixch5/pr+mFDeE//SqVx8G6TVEk3B6pBlJt1sUkIZZO1xXWwlSh9uCTzVNIvrC3SBIaeQejR1eU0A6JSD905uTck6nJX0IpAzYzKzb8HzDXbx4YQw7W+9gX+0Ytl9uR8zFOey5eDfs0NTfQ96YDgj13kknCBeAssOozbJsFk4PnOAAfjA9imf76xE9eBmJQ5eQeOta2BE/dBExt68ievAqMgeapGdY/Fz6uo9hSSWtIVKdtFSKpifBuoAAds8VYzN1y0f9PWelSniX9mvJ71qMA2tFOKgvxCFDkYxwAOW1pwKliNLl4XeXGtHqmhPQ0JV1+lyAzSnWTVxfrkYBlg8rQZZBUG7wY35NGPX4ffsNvOgsxIvrH+Kz1lq8pq8QWpbs5UIcWM/DgfWgYJKuRMjiZE5WapCzUidUN5kr1ciZVRqt41arkLpcjm/r+5Si/Ig/vx/5i7P4xEgzEnrasXfoOhIG2pA8cBVJtzrDrh2urac6WrEqxyIWMSqpN3LSw2sXJ+axPp6yt8EMO7ZV38OzF/uxo+0W9raMhMUOsfXixREkNExB03wLf9IxtQFS4bAOHtc0IZA+V3/nF0AafWFW9U0eBmlISPafD9LvT47h2f5GAV0igaoG0sFWxNy6vgFSxd0Nztq/AEizl6uhALVcigIIVLIahIYaSF++dw6fWauVxu5nV07hS+tNuM02AfZnwo9lWjgXE3F8YjyH+uE0GAErT6aPc+h+rGX2yB/SkXLUYkWreRw51hJo3GeRs5SrfGZ7Lfav5SuKZroi5KyWCrMj54Pzkr1c+5EgTVkqw7fWex8jdvrIj7XpwkeB9Mq/MkgHsf3SEPa23FHFzy+AlAF4oV8Tvhi5Tw1JlGbW7QiBdMfFO9hbM4ptbe0gSHe33As7PhaQ9jUjeuA6EgevImHwetgRP9iGmFvtiOq/hoz+ZogsLq0oz3hbANLN/Eof9XfyLSkLUmEypEVlBU/IqqqB9ORCsbR9UcbxoKFCCtWTpk7jr81dwqrPcyopRigs5HY76ZsrJYBBd3jTav14/qqkr6U+dWJtFn+n71QaBJyNeHWtTtI2TN0QoNkrZUGSuCC9zWLQki7XIme2BjmztYhdrkbKUgW+td6/RSAF8hfn8YmRC0jo7sTewRtIGLiCpP5rSLp1M+za4draSktqgg3bqkfxTMsQtreOYG9zeOwQWwRpfL1iSf+4fUoig0rgaFPtLkE6rXPg2bq7eKFlHApIxwSkUS1z2NV8N+zYGpA6N9zd709O4JneFkT1X0cC+ZXIExNu9NPV7ZSfz+i/sAmkUr2qunDF3fXxvP7R7m7GfA3CjRDvEjmXFMtRrfAE0/XTFammMJI81ZL24JmXuddjpKScLMCR+UKwNvaHlkHMBiyKJXX6pW9VD7fQlgRYVP8xv/gOPKOKJpuTfFAeXLZM4+9Nd2XODQAAIABJREFUw9itLdmgW31wFKiCzMlCLTIXaoU0LoNzMxMCaQ1SlqoEpI9TNfo4t5e3MAfNcIvSaD3Qjvi+qwLSRDLxhVs7gze2AKSKMj1tggkOvFh1H8+03MK2iyPY0zQWFjvE1gsX7iggbboNAamTlpTZjodA6lVAWnsPL7RMYPuFu9hTPY4XWzsQ1byAXc33w46tBCl5Yv77xCSe6WlFVF8nEvo6EdvfEXaQzCl6sAf7ejuQ0dcqUU85k/rc0nCh9pDVQVqLjPlHj3Qy0QmQ65G50ICsxXrFsq6UIUerrj/KCPEJq9JpQmn69OUCKTnMtFZCs/hj7HaW4s90bRgxLihdLyIW5ZVG863gcFKbH7nu8WEJDszCJO42J9ln90Ozkq8AkqV/HAucJ25qynyRLYObV8ZSnYA0e7oOMUvVSF6sxN/q+pUz4GN9gPA/lLcwD83wRcR33cSeIEgTe+mJkYkv/PqJ3JI+AKkRdrxYOYanm29j24X72NM4GRY7xNYLF+4hvm4GmsYR/NGNaYns8Uz8c4EjP6a0Tjxbew/PN49je8v9IEhvCkh3No0i3IgUpFIN43CIJRWQjk/h6e5L0iYX39sN8sWojah+gvQm0nsfBilpJ9VeaoGj9Lk6IbR61Ne02SqkzdYifbYJGbMXkTnfgsyFOmQtl4tWqJq7e1BXinRdkfDsUlWM7V+a9VN40ZyPzzouSEvYs+Y8UGnsy+br6PNpFW4hBpIsH78l5YbuC3iFSR56BgOViiXmX59YLELGfP3GCM0R5yM0CN70xTpkTdUie7oBMUu1SF6oxt/qBrcMpLlzC9DcalXYEPo7ENd7DYm9dHvV10/kIFWyAuzJMMKJFyrG8XTTXWxrmcDu+pmw2CGunm+5i7jaWWgahvFH12eFLVEB6aZiBlI/EKTP1NzH802T2NZ8D3uqJvFi603sa1rEjsb7YcfWgNQuIGWs8ntj03i6+zL29fQIc2FM902EG+STiervE1ALSIlLnkklTxo5SNNm6hFukCIydbpO+lnTp9uQMXtJFi2Z0jOX1VvBDpoqRcmcql8pplK8aqrFb2gbpeSQujD71vIEqGS01+hPI9pYhG/Z+zDnNQUtq9o2FNl1sseTs0jyU2vM3VLqETBQQUxbJJsTNyiOtBkyZNTLfHBOUmdqxLqGQEoGv+jFGiTNV+H/0Q7Arf541D98APhFkF7fAGm4tcNrWw/SCXy68R5ebCZI58Jih9h6vvl+EKQjCkhFJ8ujKAcF92ANT25TWvcvgPSFi53/yiDtQ3xPX1iAcpJje7oR1T8goE7vbYNlA6ROhaZR5TGrWVJl4Sn0LB/199SZKmVRTl1A2tQVCFDnyBdcgUwyIKjkUY8uKT2YPJNmrZUInxDpO2lR35+vUIopdCVS3H94uVhIwCin8Vve6/jh1mh1h58hUqo7GbwiQD0iciW5Vj3w3Eg+0mcuCCsGmTE4P6nTDRsgTZlSzqUKSOuFZjN6oQ5J89VbBlLuxxsg7ezG7r6biOu9joQexjR6VdfPVoLUAAdeqAiBdAq76+f/SSD9j9fmpLODakEPMTOwiHhGb8KThdN4ofk+XqxcQ0z1JJ6tvo3dFfPYVTsRdmgqZpA7YoLPF5SKYIUZyF/6gIE73CqQzdTNIigpscf3x2bwqWstiO7pQXR7u7gwJHV61IjtbENUZw/2tQ8gs+uqUhbIbGnA+1gVR/T+uf7E7ZbUKsOZXsx6gW2j5FdqCDsSJy4IO93BqWYcHL2Ao1PtSBupx0v6FpwwlkobGlW3Gb1lY/TLxhqRQyAg9+rUmRHUQP5b+guoD1ALLUhgbLbB63FJvlXSN9QTNTHnqmzL9FZYuOF0U5/6MVI4XkUKUXxT2QBZEiGJZVGHT52sR7iRNtmKlMkGZI7XY//UJUTPtCFmtB5/s9gjKi/h1sbjXONHOj+7CE3vJcRf7hNWhMSuXsR1dGJvmHUTWk9PXe3AiuzUZoVQPbQW/j/23gO6zuu68/1IggBBFBYQBKvYuyiKpGRJdmwrTuLEaTPz1kySt9abtd68N5kkkxd7UmbsOJk4sS3LVpdIgg29d7D33jvYG4hebu/9Xlz83trnuyApW/wuHECWs6zrdUQa3yXud893fmefs8/e/x2LDCPoUu7wiSKijyhZ1Q8Y33iD7F33mbGjy5AdYStr5z1m17Sh7bjGX57vVBFHMeUefGq5+wTSTgVpVr31Y5BObX6IURNIi24/Ban63T8npNGnIe1i/ImDzLxwmZmnzjLn7AXDNvvMUWacvaxDeu4kfkX96EG66NFujJoMwqUPd7P0wU6WtR5gVf95ZrfuYbltJwvNhczqKeQ3HlXxm5ZmloabUcoGjkrluX3VnVyZIRmkv+7byxxrGf/ZtI+OiFOPGgpGGHBI0XvdqSEZLz2S6SbBD46YHgAssHpUEKQxCwlIJW1SHWlJ1sdTkC5s3YVR+4VBevEQc49e/VlIk4yfUYFUTV4Svxsls+oh4xtvkr3zIXnNXYbsCFdPIL3OX57rehakcdptHlIqhiC1M6upXVnSnDr5kEeG7dOANOWYQHqVmafOM/vMRcM26/QxZpy9Qt7pFpaePfEEUhEQUcAaj8FkljSZkNWyR0eVts7CO43Mb9vPYvsFprfvZ4V1N6u6i3mtu5opgSqVTP16Tx1Sjm+JCFibqlnRVZp0OZwM0kxLAa9JScjQDpZHd/IT31V8Kn1K1OtitIoJlLhfv86YitmVqHTx0ikLYtw/wqP8m2dC+nAPCw3aooeHWfho72NLOqP9MLPu7+Efey8j1RNG+pJHXNTRh3bhiA7p2RaeO3dRWVJRPUg2fkYO6ROBgSeQ3iZrRyt5TT2G7Ahb8r5Z1WJJb3wMUpUCN7QnlSWPQDquvIvMPffJqrczs7GN9Mab5NT1MLmp3bCNFqQJpzNv3Osm5dhhZpxrYcaJi8w6fcm4nTqlAJU82KVnn7KkPw+kov0ro+UTlruig2PU5nccZdGD3Sy624wsfRf2nWXu3X38oeUkf2U7jEYVXzTXK0W9+cEGZA/6amuZUuB7tV+yaEaWCvabXXVK9mSFt0GV/hMv8B+GjqgQQxWkL4QFI9hDvsfLN/muwztF1o3mJ0IaA+1+nWHfSL8JpAta9yglv5WPjjCj/Sgz7+3lH3qujDqkcw5fY8aZazx39jKzTp8j98x547Fz+hKjCamcJWdWPSKl/g5ZzW3kNZkM2RG2MpvamFXVhdZ0k/9+tvuxJVX6XE8ghTarNwHpAzJr7cxs6CC98RZTa3qY1NBh2EYHUjkV0mN337jXw7ijR5hxTlQhriaVn5h58gx5p26pFLslp0/hU9ssMRPDG4bKkhpAuuDBfoxabtcRZUGXPdjLwgeHWPDgOCsv7OQN8y0uxk1ssF7iSxxW2khr20pZaapUkUWv2htZ6hVJz5FBuiTUxPrWEqVJ9IKtllc6Ksjr3IaUp/jTyFkeeixSi1dlwqgAequXuD+kUt6GFfn7LEuagNSob+TawgcC6T6W3t/DytZj5D069hSkamockTEVS1rY1o92/gg6pNeZe+YKs05fUKoHyTS6Rg6pXvtItgICaUZFGyn198hs6mB6g8WQHWErs7GLmZU9aI13+e9ne9XqRvakYUmB+zikPsaWdpOx+z6ZtU5m1HcwoeGmDmldJ5MM2mhBGlJRNPDDu72MO3KMvDO3yTsmQmhXjNuJCwpQSbFbcvrME0gHQ8OJClSTg5jRZ1nS+fcOYtRyu46xsPUgqx7sY9H9g8y5fYgXT+6gytIp6klKAKXH0se/OM+zLLaTeZ4aleI211Ot1PWSLWeTXX+uo0BpIr3i38UScwXTzcV8ubuGr3bXogWKVC7nG4EWepAe1mt94gwo9f3hrHaTLXeHZEie9aeIgc1/sF9tCVY8PKognXFnL9/tEks6CpAOCqQmtPPHmHP4utLoUpCePJ+A1Hj8jAqkYhhUlYkoGRXtpNTfJ7Oxh+n1DkN2hKuMhm5mVvShNdzlL073JYO0h4zdD8moceiQ1t9mak0f2bVdhm3kkOpJxzKEJN3xh3f6GXfkOHln7pCnNJauKosqVvUT23GB9A65x++y5PS5xPm+OI5GB9J5dw9h2NqPs+z2Plbd3MPc+wfJeXiUJed3UGLv1NfPYUkL0tPArgdNfCNyGC1QonRs/2PvyDWEXu+oZqWrjmnsYPHgLrW0XmqqUOp/v+fYwzJzNVl9Bay11FMSaVWpfAKnUnnwDcOWPsuSRmW525BUnuQJpHtZ8VAs6QmeQDoM73ISOyt+BwXpuaPMPqQL6c05fYVZJy+Sc/LCJ4+Zp8bSyCENPxZO9zDAxPIOxtU+ILOxl9w6pyE7wlZGfR8zKyxoDff5i9P9z4b0kdnP2NKnIe1iQv1tplT3kl3bbdhGCqnS5ouF1Tw/BOnYwyfIO32PvKO3kmrEzDh2iekn7pF7/D6LT539hUO68uFpVl3dy4orzcxsPUhmz0lmXt/DO45HuMQxMqCnnfUTwEYYbyzIKV8nf+I6xDjrthE7jiTNbVVPOV/prOaL1gaWB5uUqoIIWEvu6wveHax3SKZOtQL2P3iPUDPYhZrChsFoMks6pBX0rD8X3j+u1ByX3NMhnd56nBl39vPdrmuMRlijQFrwqB/t7HFmH7qutj5PQ5pMo2u0IJV5+AmkrWQ29JNb6zJkR9gSSGeUm38G0lDc92S5KxElak9a2MfEukdMLPaRV9ZHatVDsiutZFf1GbbU0l5Kb6gqlfq5m5x0D0QIyNMdxmpGVb+LSqk8v8onfeN2H2MPnFYKEXmHLqolryx7n9mOtDD12CUmHb7IgoPt+GX3JRO0cgIlmYaVg1M/J1V+xojEX0kQOXRGIfXaTiSp3KjNv3GURTcOsfDmYebcPcmia2dJubePsr523esim6bE/ciSSDR9RShaBKNFODotqMuwfLW3TjmT5tjKkeiil5yNqolq/UJntTqyEclPcT4tDTSyxtukzlyTLYeX9ZYg1dxWxHcqBfvcri281F3OtwYvUix6gxHJT43QrRafEl0Ug4CuAiGuJjnSGpS0haBP/x6ySMGvYqS1loOGfaP67dZp5t08woKWfSy+cZSc28eZfmMf/9B5PfnDGdY7YhQ9MqGJ1dx1n6mHbzLr2CVmHrlKztG7zx43iTE1Zt8t+qNyrBRUlRrlfF0JkEk45HAGcOL5Dsbl2DFGWkEnKdXdTKjoYGpVtyE7wtaEmm6ml/aj1d3lz08NLXfFU/LUOakOqY+xBb1MrGv/zCH9gYL0bALSy4YiaCLklHfkOlOOXnwMqU+0/hNQJBR0DR+1RHfIsxgNSGffPpWAdP8TSOXT5UGqh6kXp/LGI6r0gpRgkBz8vwydI920jZntW5GKZWv8zcrxIyUGRb5lvaNBqcRLStj8vhKe6ytRahFSAiIZpC+bq3nF28T68E6W+uuYaypiUWcBr/RW8nvWHXw/cAWL16GybGSK8hLHNRhS1dHE0STGVgmextS0q85YBVKZi1MvHvi5IZ166xi5Lfv5bkeL4XMZ/kVjSJMK6X0ipKKAIZAO44goAWl8IKogTd3eQUpVLxMqupha1Tt8SGvv/xSkiRxBEcf+aUjTC8WSmhKW1E5WZb9hGy1LGsKnHvwPbpsYs/+sWr5OP3iF6UevG7fDN5hy5CrZBy+x4GAnow2pWErjdpyFLYdZePMoOqTnSLm3X6kFyGwhDjrFaKJQkSieR+Ki3jeg5Evs8YAKu+uPefnjiCj2bWd6bwHr+vUQQbGwsnSVKmYCrJRCFKfQqr6KYUUsSW1SqUv6oqVKr0PjqmGxvYLZfQXkduTz25Yd/LZ7L42hR+o+RFfJn5jlvCGfkj8SKIVOtToOiO6vQ8Xd5oj6QZL+WXDrLPNuHmVBywEW3zjGE0hvDJ9Dw3cKpBa0ExcfW9KZRy4zU0S+jt4zHjtHr/PJlnQEkG7rZFxlH2ll3Uyp7DNkR9hKq+4jt9iMVvuQPz9lSuxJEweSQ95dMfRqT1rQT3pNBwLptFIz4ytayaqwkVlhMmwjhlQeQEy8oD51vv79W2bG7DvPtGP3mX6ghdzDNwzb9EN3mHLkGtkHrzL/QBe+p5a7w7akKp9U1r4/u9x97sYxjNq868cUpAtuHGHWrdMsvHqWcXcOUNrTgeR7ioNGymhIuT8BVPQWFLQJePHECcdFIVD0jOIcGOzlN1y7mdFfxBf6a1jpa1SAijNoZW85Er8rImFSjnC1dxiSopZypaSwsqeYF0zlql6p1EpdEq5nbrCaTEexquQtuav/PnCYezGHgjUYFiTjetBDzAcBrx77EBJcPWpCzbp4yLBvpN/m3zzDczeOMP/afhZdP8rUWyfIbTnAdztu6LOXIYDDuRinsNWKdvyCkv2ZcvAWAumMw9eYevi+4diRsTWakEpxiNRt3YwT+Mp6mVJhMWRH2EqrMpNbbEWrecifnTA/hvRj56Q6pEHGbNMhnVDgT0D6iKwKBxllFsM2WpAG8eqQ3rSg7b3EtKOPyN0nIk63Ddv0g/eZfOgGWfuvMX9/N96nlrsDQ7pLBs9aLXcNIJ3bchyjJvIuC64dZsGNowlIzycg7VIynFIoV5pe70YHVN1OglRdWUeKFEcJhMRi6ZZsW+Qei1u3M9ZTpJQbJHJJqn7PDtQyOVKjAvGlFGGyc9bF4XqWBepY5apmjbVSgfqCyLt461gdauSLzmYy7EVM91eTF65T0H7LegxrwKVS1BSZMT+4nPo2QuR/8Kvkeu14g2HfSL/Nv3lOgTz/6kEWtRxnys2TTLu2n79vGy1ISUB6ibwdumjBjMNXmHGoRUGabPyMDqRxBmK66Mn4rT2MLbeQWtLP5DKbITvCVmqlhWmFDrTqR/zZCavaTkgUu3h11IJGX+5CqymgIJ1Q3cGEgqAyvynlrWSWOZlYajVsowmpCMj/yw0r2p7LTDvSSe6+W+QcuG3Ycg88YPKh22Ttv868fV14JYhN7UkHhxXAnWxPOvfaMYyaSHAsuHpUl5O8dZYFly8w9vZBSrq7lCKnVAaXSuZiSSW8IrGCSexRJaY2jjPkBbsHwrquUW/Mw92wlU78/D/e40i17QW9Jcw2lajjlrXeZnXWmttbkHRPKuUOF/prWemvV2UYV/WXsbKnhBdMFaoq+OKuYn49fAApdyExwJJeN9Vewgu+JraG7vCACA6luSMDR5cbFAUrySfVLuw27Bvpt3nXzymQ5105yMJrJxKQHuTv226NkiWFggc2tGOXFaSTD9xSVjTv4HWmHHpgOHZkbI0YUhlscR1SUV/UIbWRWmJlcpnLkB1hK7XCwbQCN1pVB//tuE3thQXS8KD/pyENoW01MaG66ylI23RIS+xMNGijA2kUsaRPIL1KzuFOcvfeY+r+O4Ytd38bkw6I9MsN5u3rwfN4uTtIbBilD5NCevUEcw2aQDr/yhEF6cwbQ5Aefgypkt+U8hAqtEF3eIsR1R1JstSXaCvxbsfx+TwEA/KodVjFcSNL4Ga6+feOfSx+VMDzd7YpBf217kZmDzYnhXRxfwlLLeUsl7KE0myVStZljbWKdZZqlZ0jqn+/Y93Jb3r3qnS59T2VSDK6Finiv7rO8hEtXEKPXJJ1biQi2MKEG8cM+0b67achnXz9JDlXDvGdRzfV8bHBImfYl4Ygnd6sK4vIUncI0mTjZ7QglcwjH3FSNvcytsxOarGNyaVuQ3aEq9RyN9MKvGiVXcOHNG1bSK2RU8p1SNOLbRi10YI0IIKIypLa0XZfSUD6wBBQeQC5+9uVVEXm3pufCqRzrhzHqCWHNFFoST+QUdboY9Y0IsVnwqDKP8ouWp+ZZXZWaoBhPQVNVPs20Mo63w7G929hZl8Rv25pSgrpb9ia+KK1juclQdtRyWJ3Ncu9tao+6mprFRKeKBXVZlvLmNtbrPJWpWjwSketOnfNMJXycn8R3+nYw9GAXZ9llGWF1PP7DPtG+m3e9QtPWdJTfDqQ2pUlHYI079DVBKStScfPpwHpmFIb44vsTCrxGLIjXI0vc5Gz3adDesz+yZZUjjK7bVG0Tb1kVvWSvjXKpHyzWlOnb3WTUWQzbGkf2tl0S1zV+mCS9EVlJZRKi7IZhjOiWkJF5AhEloVRftTSzpjm20zd38fkvReYuveuYcvdfZfMPdeYtP8ms3a2I0Is+nI3MZ4MPz3xngG/En+Sf6erBYQxxWD8qSM8d+W0YZt17SpzL51Tmq8zL55j/plzSsqjqLvrydI2yT0YXQ5EEq546agYdEQ9bPbe4nctu5nZXcTXXM2scFSy0FrKcms5K5wSwFDHi84alvUVM99fw4pAAy8Gmng+2MgCXw3z3ZWssOuWNNkRzjrHPtb0FpLi2Yw2WMd/cRwj5uhV9Vy160cN+0b6bvaFU8y5cpJFl06w5PJ5Jl05S86Fg3y39fqoLHcH8FN8J4QmyvF1oi5yk0l728jZ9Yhpu68bjh0ZW1r9HSwSRRMPi+yyfl4qkc0R6W6V3m70eB6fpIomnPh3MraYSCmxMragn4kFJkN2hK0p27rRKsykbPHyrf3ikJO4cz9xlVwjfwfNCNIJW71MLLQatk8L0in7+pm0RyA11ljK3X2fjN1DkHY+gXSoUpphFyeHdO6lMxg1gXTOxbMK0rxL55l/+kIC0p7HDzDJLRhelsCHuJSbkAelUkEHuYabEjr4PnfQolt52V3P75saec1czZdsdTxvKmO+uZgveZt5KbSTl92SGlfJyr5SFptKWWgvZ7GzkmX25MoReZY6XrSW8qq/jpXB/azrreH/7qrhn+NtLDhz0rBvpN9mXzjD7MsnWHTpFEsuX2TSlXMJSG+OGqRFt4MJSB88gXRnOzm7WpKOHyNI9ZQPw8fz+Bk/gdRMSolNQZq+3WzIjrA1ZWsPWoU1Aan3MaSimSQluuT1CZAOMGmTlfHFfeiQ2phY+Ow2ckh1Qe0nlrQTrfEOU/aambTnElN2PzBsuRJvvPs6k/bfZtbOTgLyxcRxpKoYPl5YPrOnZexjYEnFShq1mVevMOfieSUnOV0sqUDacpDCru7HD/CZHz6MCy51NJOoKSE3K8FAiVowUp/0QLCNLwZ2kuEuYkFvEUu6i/iyZwdf9+9lev921tprWNtXwdquUuTM9FV7Peu9jazw1fGcOzmkixw7WeYo4UuWCn6nfx/LbLVo7g9YEDrIsn2HDPtG+m3W+bPMvnyShRdPsfjSJbIvn2fquUP8/cPRcRzJIZeCdE8rM+sE0ttM2tvB1B1iTa8bjh0ZWyOFdCjcYQjSiZvFkjoYs81M+jaLITvC1ZStfWjlVlI2+/nWfjnhkKMvv4iDfBzSLmsMbWMfGZV9TNgSI3ujjfHFJtK2+Ejf7jRsowWphGJJyNwb17rQGkX8zMak3deYvOuBYZu285Eu7L33DjObuwjIomPEkAYfL3cFQKM28+q1J5BeuMC8UxfRrh2isKt3VCCVJZSsdNV0I7sH+YuMDPlhWMTtA+D2ssF6gVn+KnJiNeTYi8jq3cyrrkaWuyUAv5rnndW8bK/l1+z1fNHVwBpfPYtVpXLjVLmvWQ8y211Ernkzr7Y38FXfPiYPljAttp/cE4cM+0b6bebZs8y6eIYF50+z6MIlsi5eUFXkv3P/tv6chjFRGb1FlqRFt8Noe1qZUfOQjD23yN7TztQdHUzdecNw7MjYGi1I47FBtdyduNnCuCInY7ZZSd/mMGRH2Jq82YxW5mRcfoBv7pVYAVliD0Gq6jHolrTLMoC20URGhYkJm+MK0pQis4J0wjYXRm3kkKoacypeUkF6tQet/gGTd9vJ3nmdSTseGrZpOzqVHGn23gfMbO7WA9YSkEbUSDZ6xM9a7j6BdPb58xi1GZdb1PU5586Se/48805dRrt6WEEq9Y9G/Eps68WIPoZVxMH8EXAFVThfICYRBnFCPi//1X2cnGgdImb2XNs2FbSwYKCBudE6Fonl7C5mbWcxL0rdmqAUnDKG9NX2Jhb4y5kZKWd5bx2vW3bwkruc1d5DTLt4wrBvpN9mnDnHzPNnmX/uDAvPXybzwkVVoPrb9+6MGqSFtyJou4cgvUP27k6mNLcrSJONn5FCOqQTNQRp+iYr44rcaFvsTNhizI5wNTnfhlbqYtymMN/cG9BXglL6UKWpJiCVSbnTHEPb0M/E8n7S8gfI2mBHIE3d7Cdtq8u4jdhxpAfOhgejRGNxfnilF62+lcm73GTvvEl2c6thy2nuZuKO+2TtfsCMph78hMVRqpa7/3pInziOZp27hFHTIb2ohNJyz1/kuZOXFKQFHX0qx3rEkErZw0SygFhVmWcFVpnQIqHE2aVfVDeDdMf9atbp9Tn5C/NRljjrWNi6hRnmQqYGKpgVqlFnpa/2V7PWrB/JJHMcLTY1sspTwbpgHYs7q3ihVyqcl/BK3x6mH95v2DfSb3mnzzPj3FnmnTnHgrPXyDh3WdW+/fa9u4kZcmQ9JAdYCtJdbeRVtzJx112ydgmksuS9ZTh2ZGyNFqQDKkkE0jfZGStHKpvdTNjsM2Znq0DqQivxMnZjhG/uDf0UpKpoCpoOaRztIxMTy02k5Q/qkBZaSM0PkrrZbdhGbkmjavkmkEaiAwlI25i000NW8x2ym9sMW05TL+lNrWTJTNrY91OQyrA2fiXbk848cxmjNuPydWadu/AE0hNiSY8ikIq00IhfUp80MekMrXbl/0qTQxohtougUgdU9EbiSg1QgD3g6+C/Pmjkq11VzLGXquXwutAOXvfvZr2zjrmW5GqFq937WGopZL2rkhXtUjWtlhcCFbxg2cPU/bsN+0b6Le/URfLOnmPemQssONvCxLOXmHTqOP/rzr1Rg7TgRgRt5yPyqh89gbSpiynNMskbj5+RQ6pGEAKpTKATNgqkfrTNXtLy/YbsCFuTNrrQiv2M3Rjjr3YP5YL5iarqhEZj4gQlAAAgAElEQVSQfuRgXIE5AamX1M3PbqMPaR9arUDqJav5LlmNbYYtp6k/AWmbglTC9IcsqWSpJnuNFNK8Sy3Kmsw+c55p5y7x3GNITaMDqZCp6FR5biq+mKieSiY/bx/06T+Tku0JJ7CeuaJ7g2/g54cDLSrAflLPZhZay1RWzGp3HTPsySH9Sv9e5vRtZkW4hvX23bxkbWRpsIwloUPk3DibFNLpJy+Sd+YCz50+z/wz15h49grZJ07wP2/fZ3DI65LsIRlcl5SuT4J0cqNY09uGY0fG1kghFeMir5+BNN9DmjJyz2ZHuJq00YNWHGTshoEnkA76Pg6pLJ2OeiD926cYmx9G2xolsyRK+mYb4z/sR/swgLYpgrZlEG3zIGM2REl538+E91xkve8i/S0v+ddkWhcPZExlTai7Ft3bYezJwmIT1JmUPhh/fLkfrfIB2Q0OsutuMqm+3bBl1dwls+ERGQ2d5Fb1SUCVroQwzHxSZexiUiBHl79UKm246Q/D+COXmHXqsmGbeOUuc09eYu3Jiyw7f4v0Yy3MPniWHz5qw0MMkdNU9lw+SP4i+ZieMEEJF5SOkv8k9tDq7/JAEqm4LnVB9ea//j9WqeQd5yRW/kv4LIvsNcw2l7PS2cCLoT0sslepMheLrLr20pdtTaztqWSRuZzl/kYV1LDGU8dKazMvuIpYbatnrbOO9e4Cph1/YNg3et+J6uM9njvRwnOnzzLh9CWyjt3kf93t1vNU//XfLPEvo+TfDJFS08qkhi7y6trQRKWvtI9J9Y8Mx46MLa28G2dUFBUT6YqqWIQ8g5gK60x2e2r8KL+BygAl5V0H2oYAY/L9pG2ykboBxm8cYGy+nTEbuxizoZ20DVayN0SZuhFmbXrAlArQ3rDzJ3tCuIX5sNT98dKb+HCNUC/3YjAv3432EWhvOcnOt5O9xU3Kthhpstzd4GDcexbVxn/gYMLGAGmbIqRtiiUglX3TJ0Cqbt74ayrlnacgffNSH1rlQ7LrnWTX3UrayVk198mob2VifYeCVOqzqdnhFwRp3oX7zDp6jkXHTjP/wi0yzt5m6omL/KcHlykZfKhqMohzwaJaGGtcJSqqQdET9hAeEP+khAWKIpIc7kq0v37z+kLKuP+SXRWr2ksUp1ogw/WIjT9znWS2qYzM3u38mrmBxaKy765XkUfP+et4hSN8JXaQyd1bWWGv4QV3LSssTR+DdK2ngJxj94cF6YyTd5l7/BpzT50h7dTFpyDVHSPJvoPx9SibbgQVpNn1nUyvffRLAGlIh3SjndS3H5L2oYW0zWHG5Q8yLh9SN8VI+8BJyltd6n3plZDyjps/PxDSNbqiVoj7MSdWGhqBDvq88Ef1TjI2hdE2w8RCSPkoiPauhymFfqZsdZGTb2b6Zit5291kbw2ifRRBeyf4KUBqQpM0uTqRnrhDdm2HYcusEkjbmFjfxbRKSaOWiCP9MHEYc4Q+dA0saTIhtMWnWpl+6DSTjxwh90ILU88/JPPkBZ67s59f8+3m/+s7wj2vRbeYiRvqJsxDqeXi142rLMoFJvlTwByIijMtsXY1HqFJr7aLNRZLLTwkdLHlNFmilr5h34tm3cJXTQ283l2rEslfiO4mK1JNmnU7X+9p+BlIn7fWKUs6BGmy/pHreSfuMPfYdeaeOqcgzTxyi/95p0spPCT9AknfEGPT9TApNW1k13czvbYNrbEvYUnbDceOjK1RsaQy3nQtBca97VRsjNkUUsYtu8yK9nYH2vf6mfg2TNkAKR+AtsHPmOIg2o/CaG+6WPROG0W3h1ZdohT4RO1Ss/Tpshj2AfiT7S1o33mgLGrqVsj8sRntPR/ae25S3reS/ZGJyRstTJTN7kcBtA9DowBpWK0zlNUYhDcvWtDK28iq9SFWMrO207hVPWJibScT63oTkEZ0SONPpYUZPOhky90Zx1swakuO67VcU08cJedsC3OO3WPaoQtk32hmkrdcFWGabynn3ZDsDhPxuKE4MmXalSc6YfIT/iFZEau+UMcso7Bpk+WzbFclUyOoO9JER1eyWPqCbj4cvIcE2E/q2sJz9gomO0pYb6rhD/p3MLe/RIUPiiVdbm5ktbMQgfRFRy0vurcrS2rUN+raiavknbjHnKM3mHPyLKknL5Fx+BZ/d1uWu3pEjcHjSX5pMKogHVf1FKQNvUwp6Se7rs147NR2jhhSJf/zMUhdaB9G0DaGSf3Ig7Z1kJQiyN4YIuP7/Ux+y8X0YtAKQXszQvq7Xl7e2scPD/ZhFmfRIIR9EVSWZWK7qMnDGlD7IB8W3wDv34D5H1nR/r6LaRuiaFtA2wpaPmgf+NDetjLmHQtpG7xkb4uMGFJ1eKsrmKhV6o8uyOFuO5k1AbKqW8ms6TFsIqE4sbaH9No+cipMoliqarmIANhoWNJnaislNHLmHLmrLGfq+VPknrzKwp23WNB8lrkte5kdamSmqZBVkWbGRstY4Kpkl/c+8QHZOUtiZgykMK+cd9r84A2plDaxqGryCKv/Jh+oSd6hlAHl4E2Yl2c9EH8caij5rA8I8iexU4wzbWGFuZIvuJuVptLXnLtU1sxqV81jSMW7OwTp1KP3kmoIiRDY9GP3mX3kOrNPnGP88ctMPHSTv73VM0qQDrCxJYJAmlXbTW5NO1pDP1OKTcqKJhs/I7WkClIJD0pY0rFvOdE+iKNtiDH+Qx/aj1FGL60IssphwtYgY9+2MeFNJ1PeDvO/Tw5yvC8xMQ+IBdWlCgYGwe9T0zWaTAIJX8UQrdz3w9+chJkbwoz/aIBxG0GTJnvW9yNqGTz+PTuZ71tGAVKpeanfpDiafnTBilbaRWZ1SKmBS9C/Ucso72ZiTR/ptSZyyi0E5dtIp40SpMnkWySpOFucIVLd7XgLCxpvsLjpAqtuHGV9SMpOVDDdUcJLHsk2qUGzbOKr3p2cGNSPi5wCmMwmourtiaqlrix9lc0bziyTBFCX/HJhXfTF1LJaSlKHwRtL7FLjuvBWJM69gIXfs+5imr2Upf4G8vzVKnVtCNLnHQXqCGaNvYY1rm0IpMn6RyDNPXqPWYeuM+vYeVKOXSL9wC3+5ma3Koec5PaTXh4ciLOxJcbYynayanvJre5EqzcxuaifrJpOw7Ej42qkkMoJmW7ldMfR2LfcaO8Pon04yPgPQuS+GUJ7Q1ajcbWV1N6xMulHd/nTOgcH28AmD1r9DlEHdMGATKk6D8HEQkMjItGh0D8kxhXqhZCJ7jDsDcJvbXnEqnfaSP+XbrTvu9HeHlSwjhcP70/6RgxpQDZLCUhlwnjjvEDaQ2Z1hMzKDhWqKOGKz2oTy3pIrzYzodpMTrlVDwtUkCo3TNKHrGyVwZ50+pGbGLVpB26Rc/wy08+KtGgLeftuM/vQVZbePspaxw4W+apV4LvIlyxwlqsMlQW2UiVj8jdcZgduHskTkAeVeGBeOTOWOx+GdzzpF7TrothSvkkCHnwBv6rtouZon6iui/dXKuBKYUzpjTjl3juqGtxsTzXLrFUqpHCZqYGfhnTKkbuGfaP67WgL047cY+bBFmYePce4ozqkf31d9An15XfS72DwBoF0w7WoglSs5rSqjgSkZgXps8bN0M9HG9IxP/agvQ/ahzD+gwjjfmBm2lbI2DiA9o8PWfrufd5vAZM8W2kx8T3ECAaDhKMitBolFg0SkxTGxCSt4exU1Xh8g7rjQkSlGXDAgA/CQe5HYONleHWzCe17FrQ3xJRD2sZB0t/1fDqQlnSTUSWQdj0TzqFOnljWl4DUwtQyiw6pLO0GRgfS3MO3MGoz9t1i5uFLzDxxgWknb5B18iFZ52+Rd+cgC3sqeLmvgqXuKpb4alhhq2BNbymv2mpZ6a1lvKeA17vqed/dglncRsLqQBxnJPC4DJ/B+BzeJQW/JDHoy38FpzjiBweVo0ryVwOJpHP5u3iancS5OmCl0HL1ZyBdaa5hyJIKpEZ9I9dErU+H9MZjSCfsv83oQ9qptkWfCaQxOfbT49uehjTlvUhi72ln+bt9/OAI3HVAUObFgSDBqCgxyPGf7iOQciB++X8RF0jurqqSBVqyJx2PS15kGPMAbDg+wKs/6WP8P3nQ3tP3qov+1032tun7HGL9sm7DEYsh1kB3KRp/glLsHTqCicP3T/WjScmLEi/ZJQ/IKO83bFklPUwo7yOltFftQ0ThYMgE6St6489Xs7lKH5RdeyyhvRqmPxpjzL475B68adhyjtxC1CFmHLjPrMMtTN9/i9xDD1l48yxr3WVJk7LHx6uZ1l/If+poYn+gXUUOCTRqMeoXGYRE4IJavsdxM4AncT3gH0bpQuOvn/RqOz6+az1CVqCBPN9W1tuamdtbytr+rUw+3WXYN9J3IiY3bf9DZuy9q6xpyqGbTNz/gL+73oc+TSS9hSRviJLfElW1jEQzSBxGWoWDSdtcZFeZDMeOjC2tyI4jqMePq6UrflVJQbZLEnKY7OVVe33Rf/Jw0wZf29qP9r8DujV9C2b94z3+c4OHgyZZtchLZFG8aqwlDGWyj0gOqZjcSFSP8Bcn0ykP/EWzleU/aGfaPzr45xPQKaskWWLK+Q5R7LFBfMrjpYc1Gd3FEKTKj/kxSP1kl7QysbTfsGWV9D0FqUXJkPzrIJXZ8JMgvU3uwWe3n4X09s8F6bobW/lt1x7WxfYqz+rvmnZwPmpSZ72izOAgwmBAIiASk08wgstiwRZ0q323Ud+OxjWvkhwN0IiF162lpJiKmRKt53f99WTuuGXYN6rf9l9n2r5HzNh7nxkHriGQpu8dRUgHY+S3DDCurIeJpeaPQZpVaTYcOzK2RgqpeMoZENEwXUGxtgte29jHjO+08PLb7Ry0wa0IiO9BV+z3Mxj1KN2r4RgR+fVJLank60VjAaIRXfFAXMSeKLQ64JopTqt4oeQ3xcUcudTc4xCwZUyFZSdk/FKOnqFojzj8y0kTWkkvE4sE0keq46Xzn9WySvpJKzWRUioePQu6lr58eMJjZvzx+r5IWdJPhnTagdsYNVFMl0GYt/+BshQinjbtQCsLbpzjRVfy+qNfc+9moa1SyZessFazsK+UJd0lfNt5BsnpwRtHpFO6RTtCsl3kaMYbB38c06hsWpN0kEgEeL34Q4P4Bh1soovFoR2stxSRu/OeYd9Iv+UmIM3bc48ZB66TcvC2gvRvW3qJD47GEYwOqRQckzEiDiOtwsWkrR50SJ89duT9I4XUrOATA2mCmIidgtQueBhIVEgXEiWiSZ6dJEAoQmKI1fYPk9KkkIYQ/6Ceoxm1BohbvPqHxsWu9usOjsEBBkMuYnFdQFluRU38/n8FpCcsaMUmJhaFySrqIL3EYtgyiyyklVoYVyIePate4yQxeIfTB0+Wu58Mac6+Oxg10XnN2fuI6ft0SzFtz21y9j9i/vWzrHEKpMapYAtizSwLNPK8RxwzdazpKmf93UKeby9RZ6zvu69iCXt0qykKDSF939gv33FAn4ySYDaiy1YpHiIavPJRMb28xKWona3Wk2gN5wz7RvpNZFmlf/IkS+nAdcYduMWEPQ/525Z+4qpq+IhuTw20TVcHVC0jUd9TkJa5VcRcVoXx2JGx9TSkyln3cy53ZYQr52PcQ8D06PE+kmAAwk4ImiAo5TxkVal71OX9stSNiOEbxisppN5EFJuukizLWSsDYTvRQEz5mIh5iXrMxMIeBexQ5Iy6C5lBkrwC4r6I6MdAMhD++bgVrchMekGErMIeJhRZDVtmoa7MNq7YyuRCO0E1mmREyZ5CdZ/hHSSH9B45+57dREJy6u42cvc+IG9/Czm7bzF1XyvzWs7ygl32pMaQLjSVsd7bzBp3I3N6ilgkjiXvThU3O9ayVZWU+H3nXk7bHz0uBREYjDDolao3yb+f4ZcfzsVglBgxpWnkwakHWoTBF7OjNVw17Bvpt2l7b+iT2K775O2/wbgDdxKQmhmQ1ddIX4NxBNIxJd1K9GtSoQlNQeohs9xsOHZkbI0UUsEsIon3YSlvIuXU9cleOX0G/OpIRbZRyn+XiCrTn5q8Ty2Wk/ZAUkjlF3oDUbxh8UJJMRs9JUc/c5NpRI5Q/ErZTmaixwfxclfDmOh/FlIbWqGF9IIBsgr7SSu0GraMAhepxS7GFtmYVPAEUlGPHw1Ip+55iFETAbQpux6Ru6eV6fuuM3XXbabsbeW5q+dYbUu+3H3RUa/qu7zQWcY3zDv4gm8nGeEqcoLVvO7dwyJXDXO7C9V+9d/FjnMtYtZDBsWqBn8BkIYk/DhErxRx8gfVHkJWSh3YyDzRZdg30m/T9t5Uk9j0XQ8VpGP332XCnkf8zTXTKEEKG6/EGVPSm4DUglbmIXuLQGo8dmRsPQ3pv8ZxJD6YUNCrAlRkwMsxl8PjVYkmwoM0mYqECyl+5Q5BQCK/1NJ3lCBFFOFV+DeEIqqyO5IV5YsHsAX7dRD1tEbCg4OJjo/qYWhJ5wg5YNeDGeTf6pZUILUxYVuczO0mUrfbDFvGdg+pRR7GFjqYVOAkoOasuCrxEFUhNsY3kcySTtn9EKMm2kpTdrUzbffDj0E698pZVtvKk3p3l1oqecXWwMveHWrZ+5Ktnm901vOSuZbUcAUv9lYiS+LZkQamWIpUhbV/jFylRzyEv4DlrhKBkX2DeD4CQfWHdOvAoA/tYIth30i/5ey5wdTdHUzf1cr0vTcRSNN2tfE3V81Ktd/46QzjalyHVCvqY4JM1IUWtFI3WZu9ZJQZjx0ZWyOGNBp8bCUFRpk2xeEncDoTFeTVVCpGK9FEMF3ORP1SGWAYr6SWVE0DyiLKmlqWu7JVduiOIvFch1DQyg36w2q+gEE/ochwsjnF6aQHMwxB+r2jdrQCBxO2QeZ2C6nbHYYtY7s3Aanr45CqMC3pKuPXSCHN3neLyTvbmLa7ldy9LUzZeYfJux8hkD5vTX4E85qjSe1Fl9qq1JnkEo8uffK8pZovPyxHLK0Ub1pp0tPHFnYVsbKrlH/vO8Q/c9f4y43GVX03IgFKainXM7QHCweZUngtOaSy/N/dQe7Ohz8DaSyW/Pkk/QoDAikMQZq9XYJhvE9Bajx+RgqpiJnL2Beb6IyJnREk5SeyTZBXEKJSOtIDQZlY9SAFIWV4dnQY3t2knTTCN6gYVvkd/qgKLv7OKQsTiz1o2waYu8lG2lanYUsX4adtFsZuNZO91a6fcelb0mHt2KQ7xWOqDxefLnkShf6ID62ujZwdDwzbtMNt5O23MLWpg6yqFqY2tpLZ2Mqq+7d5yVnJfH8d83y1Kh1srbmGV0y1rLPXs9xTzwKf1HKpHlH7g95mamJtKiBBHfKGZUOin6VKCQsk/lf0kERkOxGw4pYSh4NRXdkh6fOLMyDpdeJQlmElVnRAH4xa1X3DvpG+E0nWrMYOpta0MbPpAeN3PCK1oZ2/vtyf0PRPegPGbxgM85MWmPihg/FbQmTLpL7Ny5jNAdI2G48dGVui7meTbYN8Lz+EQgEkqECt68PDs3TGNzjyq8kt6cg/w/A3hAgTFUVqmWAG4e+O9aFtNKNtCjH1I4shoNLJE/KtjNtmY+xW66cC6dTm+xi1nF0PyNtpYnpjN1kNt8jY1c6YpgfMu9fCKlsJLzsaec1Sr8o2zPVUM99bywu2Wp631SBhdyOF9NXAbub3FPNH/bu5LR53ybAJx/BL0d9ByVNFCm9IuWDckSD4BVp9DNpCyc+xFY4GkBr1jbr2U5CmNLcqSP/HZfPoQvqBi5TNQbK3uX4uSMdsctHuiih/j5qpB8MqQ0jNSsNwfBoO7lG6+JlDKuUAQ0Mz2SB857gF7SMz2sYI497vJ3WL07BNyLczdqvesrc6CSSsqMz8w3GrJLOkU5sfYtREPWJ6fQ95AmnzXVL3dShJ0qV3rvNrthrlrV3irFHlBb9ka2SxrYpMX7mqwfKNHildODJQcy3FKmF7hbeB5131fNt/Aae4Kfz6cY0kfEuon1p76YE1qF2U9JN4/5K+jC2pUd+oa3sektnQyZTqR8xovE9Kcxvj69vQIVX7qKR3YPiGwTA/vgYTE5BmbXUqSDVRRtjsTioEJoojDz0Qkr6QVceAR0UGid6WdNsvw+szh1SWYKoaemKT/YMzTtI3OdC2SWKslfH5LsM2YZOLsVtcjNlsJ2uz6ylIn6pgZtDTySCd3NSKUZtQd4Optd3k1XaT3XiH9J3tTKh5yB/e7uCfvKeZFqhWVnSdpVYtexd6avlSby2v9+g1RpMd0SS7/mVLI1JlbZG3jmnmImaZS/jD4GEa6NGjr2TwBaO4AnqRZlnWi/9CDgWGtyM0htSob+SaCFArSKvamdHwMAFpB9+6ZNFr3Rg8m2FdikcVpOnvu0nZHCJrq5vxW31o+QFS8106qALrM9q4zdCVSC6JB7wQE182+PxhfeszrJv4dN/02UMqcCqnhJ5a+dZJK1nv9qPlDzJmu4+UTV7DJnmtY/JlD+Ika7P7Y5Dqp1PGHZgM0kmNbRi1cTvvkl3bpbIvsmpuK5WIeaVtvHHbx+2YmTLnTf5j5Liq/TnPXMYrfTW87GpCHESLLRVJz1GTQbrS08CC7mIV/CBSKOJwmtq7XTmh/ih2klt+i1rqStyoSvx2eMEXUoZVpckZd486RzPakxr1jVwTD29GXReTKzvIq29lXGM7KbVDkCb98ORviMd48yoIpKJdm7nFxfgtossVJHWTh/RNfsM2/kdOJVMi4yAa8UPEpvomFIwRSH7Mn/z+RuEdnzmkMU9EzVii8OMPBig452Tmj7rQ3guQXhxk3AafYUtLiD5pmzxk5rvUlkutcwcSQepJOikppEmE0Mbtvs+kuh5yK7vIrL3NhLpWFhd1UHpHHDUx7DE/HW4zpe5bfD18iEnhanXmKcJfskQd6XI3p2sr61yNfCGyF9EnEvC/0lPL8/2VaNZ8lliq+Xb0GvfFPogJDcUI+PxEIkozMknvyGVjS5pMKG7yzlYy6rqfgrRTQfrNC1Z1O8O4AeO3CKRXYMJ7ngSkYlH9CtLxG71Kj0s0uZ7VFr7RidMrcbeJvNoBn6pWKUvdiATP/xK8PnNICeopPlFRzA27uWiC3yiNMf69IKn5DsZt8Bu21A+DjNkkM6ePzHyPHg8pm9GB2GMnuFE/J4M0mcZS+o6HTKvpZWZNLxN3PERrfsTk4lbyb0sxD5H9i6ois6IzejXYz98Ez7M03Kw8u6+bR74n/a2OWhaFGsljNysHdqsjmwXmcuRI56u2ZmY7qpjWuZ1Xe+v4aPChUi8UOuKRKI5heS+NIU3WP0OQTirvUEp+Yxs6GFfTyTcv2JR2ndGzGda1gfhjSEVgOnOzVzmQRL5EIE3fEDRsf7tf9EpsiANTZakMJVmo85NRiC0e1pcwftNnD2lc90B6ohYGB9xqafZ3FyBPZFt+3MnYj3yGLfXDMNrGoA7pJt8vHNLs+vvMquxnXr2FtP3taPva0Mru8k+3vLgJYWdAhe8pyVARFwtFOefq4I9t+9EcW0dsScV6yn73y901vGiuYbG7FnFUrbJWs8pcxQuuJp53NbLYXMWyvkr+D89hSulEpfoP64Rh5JCKvI1AKkp+Yxs6Rx3SH12GCe/qKvAZ+R4d0g2hYUF6VoXU9uDFpQI1JJDLJf0int34cE8yjSEb6dXPHNLEdlRJUIR8brUEkj662BvhjZozaN+LkvreAFPfczPhzX7GvutHNvtjNsbQ3nEoWZcJG8KMEZW2rYDrltr4BwcktUUOHoxfcVF8Eqkh5ckTxR/9eMIZiaGVWsmu7jJsU+q7yCm2oin5lk6yKntJqWhny02x0fL7EoJo4iCLRgkPDuiOCeJ0OSxqeSpHMbmROuYEpcxgLV/treNlewOLIskreSdbLq/tKFGlD1+I7mSup5Jp3Vt4oa+cP+MiG2VKdEm4WlzF5ipnr3RAwqMkRzdOOa+RIsfy8wGf7uxJZD5phX2GfSN9N7mik7QKCxkVZnLqehhf2UVacTt/fdaq9n7GT2cYVyMhProcJDvfiVYKWrGHcdt6SPvAzZifiNyPg9Qft5P5Tg/jN4TQ3o0xZ4OL9y/Id/m38frMIfWFB/TOkmVG0IuUNZfhLQPkrgf2tYb5dyVdpL7tR9ue0Fr6oUPtQSaLQNpbPqZuDJL2phnt+zJ6OhQE+jhTi1nDJ5Ec0h6yq5/dBNKpRRa0Ggs55Z1kVvQpSDffEB9hGG8woEt0ymwkTUkZhTATVWDIXmhT7C6vWOpZ2l6ELIG/7t+POIQm9Yzc0r5kruZlbxNrIztZ6q9jrqmIJZ0FfLG7kt+37uDPucbDqEvPn0jc30A4QlCix2ISFSMH2HFEGEsS+lWBIlkhAmO39Br2jfSbDqntMaQpAu1oQjoABZcg7wdmtJ/EmPCBj0nvmEn9oY8xP4Ls92UrBNq7MOUnVr63qw2PZI0MguWXY8tpOD7l4mcOqUhJqOev9m8hogGP2qvIIFCrsQG32iv85HyUyd97gPb9ABMKYNImmPwjK9r3nczYEmeW7Evf02d7wSMkUiRR+ZvxKxmkYhmN2uTa7qcg7X4KUpkm9BQ/kZZyq/SEBKhKunEQpVAfjeOO+Cnw3eIlTzPj+jeT8yifNf1VvBbeO+Ll8EpLBcutFUqaU4TQnpelsLlCgbrgfj5fdeziK/79VMXadWupl4vV/+4K4I6LQJY44eTlwzUYUoWiZHxL1pFR38g1WeamVQikVnVUpUPayf84YxkVSyoJk++cgcl/ayXlnyD3I5j0ThTtDQ8iS5vyFkz4Zye/XxbghES1yopJyZM4h3eQbjx8fiFXP3NIZSjrAchyeCyauTKDhxiIRVSVNbnusfcLcdiBvzsUZtL/bkf7JxdZ74gl1fVLx/2Lmex3g3g9QbySRB4WxcCRW1KxjEZNh9SGVm1lalkXmRUmxpV3sPmG3HmUtrhXH4zKSg1iI6LHbMooN0UwhTqAguUAABV9SURBVN18N3SZ2a5KpvYXsNbdyBfjB3kxsINVHVKrxTjVLdn1RY5yFptLWNpXzGpzOeudtazzN7IqUM9ibzWLu4r5dUuT2sv+ZuwwFyXeZjCOR9KvxLMrUUlefbk7OOBCEhIlQFy+3cStJsO+kX6bVN5FapmdieUWptb0kFLRTWpRB//jtH7UMdJR3gl8cBemv+dS2ltaCWjv2dH+2aIm8q9usdN8PzE5ui1YXQG191QjIywj6pf/9ZlDKhbP5w+i9HpEeEm0kaTFQsRCfgJRfRaXI4Oow6S8tnec8Cf1MbTvh0ktAu2HYXLecvLHx6HPGSckcaqhRGBzkmeQzJIm01iaVNPNlEI7WrWdqaU9SlNnXHmX0t0RSAMujxIXU7chWSuJpWIrfhrt95jpKOfL/fV8zdrMc8F6JvjLVA7pa321vO7eNWJIBcbV3jrWOKp50VKpQF3prGJZoI6l0UZVaHiytUBpAi/z1DDdXMhf2Y7waMBBr6Aoz0IkBITZqFtf7iZWOdp795NqCGWXdeuQltmYUt2rZE5Si7r41in7qFjSCP1sv2JlzvdNuu7WBtD+oY3Fb5/jH69JaKQ+AOQPMQbiwPMNRNQqbVh+syTj5xdx+TOHVGqShiMxNTvraxH9fFEdXwzG1N7HL1ZR5CckAjrgU7Kx98LQ0Akz3nWQ8w/X+c1tPTRa9Zw99WAk20DEhpO8kkH6LNmWoZ9PqunVIa2yMaWkl4wyE2PLOpXujvoOMrhl0lC1ckTuNsxefwf/l/8kM6NNrGktVjG8c6ONal/6+sMKXZXBUsEKZ+2Il7vL7JU876plrbteqfwtN5WxqL9E6QEvSUD5anwfS+M7mGMt4fmeUmZaiviCq4Ey3y1u4lDWU984+PTCVvFBJZimbel8pqzNUP8IpONL7aSXWh9DOr5g9CAleEntl98+ADP/m5kpf9HHP50G0caTQzgG+tVkIEHzstpVZbIGrTBowx/UQ+mTDJHP/PJnDqkOpj7hyWwnq8KEwVGsqRBw2a9G7CpVSmY/cSqFZCk7YKZVHExxeBTVnRlq4oz6lY5pUPRkk7ySQ2pFZDme1QTSydvtaJV2BakMTtHb2XRNzkmlUJMsu3WP6e2ogz91nmBafzEZliKWehtZHGzkK6YGfqejjpf6a1S+6DJ7tYocUscoI4ztXdZbwgpzudqTLndUKUX6FbZKVlureNFWzUJXBUsspfyap4mXo7uY7a3gpZ4yvtxTSYZjO//ZfZAtoTtcleR/fATEXx0IqwIR40ttz+yXof7KLu1NQGpnSnW/kjnRIU2oPCR5Pkkvq8EAgYTYl2Ani9iITI4esAUldnnIioI3GNJXbVGPCgFM+vt/Cd7wmUMajwQZjMeUoZFkGNnrSBO8RGlRrKGAJ30uP49HnBDthbiVWMQKqhiSE2JOcEiJ96DKepf3DueUKxmkyTSWlAfTAFIZzY8I851YC6utdSywVvFSaC/rfLuY21XMGnsdyx01qgThQmc1i331LAk1sda/g19z7hixJX3N3aQKLIlFXeysZKm7mjXOWl621PBKXxVfstWxzlbN4v5ilnUWKJ3g5e5q5gSqWOqvJcW0iS+2VfD3/S2c8dxW9WyG5h0tv9tQf0r6TiRXx5c6SS+1M7mq7zGk3zzpUM94pAwI6vI/pSkUChHz21VJRUnWE9ec7D2ViF7AAQrMsJrNwyLZo2b0kd7Bp//vP3NIP/2vaPwJAXnAkqyrjK4HEYmRIsT2UJyUbS4yimyGLX1LP2klbsZVOtGKe8ja6GTVez7euwN3cPKH9l38pr2Zl+11ypotcFSw0FnJCmc1q13Jl7PLLVUs6i9jeWcJL3VWsN5ax7JgEwuDDSxz1rLQW8Uqdw0rPDWstlexwlzGQmspy+0VLPFWq2OXpc4qlqif6/VolrtrkKOZL3eLU8o4C2d55ADr2/KZ21vM2Fgx/8lzCkfEhomIytnMLLZj1LIKbIwvdCutIREvH1voUllN3zoh4RS/JGkmxkPkM7/6OaRJIJ1YaMWopW7oJn27m/RKNymVFtK2e8h4x8Tvn+ngHzxH+W1bM1+xNbDeXossN5U1c0rphhpl4ZJBkhet5zVbI79lauJFV4Pywr5oqlZqDQtc1XzhfgFLTCW8YKlggb+apb4aXrLVsNiv1xV90VXHeqcER+glC6XCt+xRX7BVs9acHNLn7A2s7dvOlz27eCHcwNreRv60t5nvhS6RszFiOIHJBJe13ZGA1KYqDIwtdOuQHpdDKeXX/8wh+GW/gc8hTQqpjYmFz25pG3uYuM1NZqmH9CoHKeUhtA09TD91hdWmAr5oreMlWy2r7dUKUrFqcl4p1bJfdtYntWTf6G5QS+Ap0VoESkkWlwwaURf8bcsOlkQaWWWtJM1dyCxzEUttFSwJ1PE7PXV8ua+GVb2lKsJofX8l6/orWWOu5HmbWN9anvcnD/B/2bqbJfbtrLbX8jVHPav7G8m2bGKpt5aMdzxkFNkNm0CaUiCWVCC1oSDd7OZbCtJ/I+vNz5jizyFNAmn6didGbUKpgwkFXiZut5NRaCWjJIq23caUG3dZGKpkjZS5t1WywiFL3CpWuWRPWMPLzjpedYh8ivE56GtdVSw1VTDZV8HkSA0veBr5jf5GFa87xVvB/Eg9EvL35/37+QPPXlaHmtQyek6kjq+bG1nuqGSZq0r9KUvh1QKtqZzVnlpWRZqSfv7vWQ4yx72d7P7tvNJfzuuew0yPljMrUov2oZuJBS7DlrnNqSBNK7AzpdTKmO0elR/8zWMevbL5ZwzAv4WP/xzSJJBO2ObCqI2vD5BS4iNtk4WsjX3kbA2TssXNouvtvBhpZLm1XO0PBVIBVMoICqTrHPqyNBmkOe5yVjpq+aKzWTVRERQB7QX9pWS7SvkD005uOboTyoFxvhO6hBYsIqevgDXeJgXiosEm5g02sjTSwDp3Ha9Ya3jRVqUKSSX7fLGcywJlSGrdur5SXnHvZ2GggjX+RrIkw0SW+gZNIB233YOCtMSucoTH53sQSHUJzX8LmHy29/g5pEkgTdvqMpTg0Go8jC3ykZpvJ2tjPzmbQqS8Z2HBiVus7S9l2dMhebIXdNfxgkOcPHLMUpl0uSvL2/XuJl63NPFaewW5PduZ5Kvg/wyfYI/rgaoCpKJnJCoocdTj8/n4C+8ZprdtY11nKfMsJUz2lTEzXKPg+pKzkRdNlSzoLUr6+VO8Daz3V/LrPXWs7yxivrOJmb5iXrHWkvM9kV51G7bMbW7GbfMpxcfJxY5EIr+bvzrq/RzSYbL/OaRJIE3d7MaojS9ykrLVR9pmB+lbTKRvCaK9a2LW8ZtqabnCrjuJBM41nnoFqTiLllrKWWROLp4te8Ff76xBlr3PeWt4YWAPPwhfo0MdRcVVap86Z5AzKpFIDkrtmBjugTB9hPh22z6+0VnLnP5CptgKWeaq5jVHAy9aqpjbV5gU0sWBPTzvKmFdZzkv9pWw2LWDuYEy1rnqGft9E2lbPIYtY8vHIdW2+ZXSxl8d8ev1goY5UH+V3/Y5pEkh9ZK6+dktY7Od9HwvqVscSlZUKwihbbIy48pD1gZlz6efS0rEzzpPg4JUwF1gKVUZKcm8u4tN5WS4SpgRrOUvI+e5EZe6laKyNoBLau3EB9UZsgR5SF1RZzRIKCQpzPq5cjsBtgze4zd8u5nrKEPOS19y1ClLPltEzJIcwXy9ezfzHNvI8VexJtzAa/a9LLcVszq2E60iTNoWn2ETSMdu9ZO63YVY0s8h/fmnm195SFXGqRTVCQeRA24578ZnQmKytffNaFsH0CQ+WNLk3u0n683rzHzvFpM39KB96FIAj/swROpHfgXruI+ijNsSZMbxFl5yljPPUa6s1wueelb661nol7PNahWi9yVzLetMFSyRs9NADStDDcqhs8xWjjTZwy5oLeD/tR/jEGZd3E9FeUhsskpXTf7EhdawhMRFeDN0gzX2BqaYiplnq2KNu5k8RzmivTTfUs5yVx1fcjTzSk8iYTy0k2WeSlXp+3lTCc+b97HSX8YSR6X6bmPeh/QPusna5iW1IIb2UQTtwwjaFjljjjBuo0uVoZ/wfoxpb/mZuiXE2O02Jn7Qwl8f6sP++QlM8uf3y5CqNqy7/BTfJFFlSAxnNCj63HqUYsjC3Shk/Pg+Yz60MmWLlTklXrJK4iqxXOUn5oeYIULMm708hnSTn5+G9Pm+Ml4ySWRPPa94m3g+3MzScCPL/fXKC7vEVckr7gYV9TO7Zxvzu7fzmrlaeX7n2kqop4cWFY6XuDdVAkbEZgb1VL4kfSOrYCmRKKeSEsraHXDx9+4LKvIp1bRdJZjPclcpOZe1tjqW+Op5iaN8afAQszu3PwPSiseQZhaGySyMMmajD+0tC9o7FtLz3Uze4mTihz2klsGY77eR9cPbaO9aVP+Nr4D/ecwyFEGS5Bt8fvlX3pIqp4vUUR0IqrxVNblHzJgj8Mf1NrR3w6R+aGfae61kvfWQ1PwgKRWgUqI+CJG62c/YD4KI1pIo0437KMbYzQFmHL+hFOxXumrU/u8LvZUKVnEYyVnpYksZS3qLVXDDHHMxK/rL+IK1lnm2Mp5zlvPdgStIMpeENyqHUGL9KtlAjsGwKkipJpgkY1hlekhgj0i3JH6XqAbWRtr5RvwEmnsbv9fdyB+01bHIU8sSdpPrqyKrbxtfNNcnhVT7MMjY/DAZW/xkb7SRs8nCzAInM7e7mJpvQfteN3PKA0wqdaJtj6G9GSY330tjt2iL/ttIFUvSxZ/65V95SKVAuRR/FWkCWemGJVRNVdqG0xZYVeZlwvs2tPf95JXD3EI/aT+8j/ajPsaXwvh8H2PfDzP+A12RbuyHUcbmB8k7dp31jiryqGeer4ql5lJW9hSz0lzGKmsFa82VfKGvgoXuKnXOOT/awExvBX/qOsKjsBWiksMRwRcJEQ1KKS4JNo0hYuJqIlHJy8MYHzbJBNET6CUDR/aw8pUFXmm1kUcqdjjDvJ3Vpipmm0qUgPeXbU0s6CxMAmkc7V0f4zcFmbwtwNRNDia+24f2Vp8ubfN+gGVbo2jvOtDKQPtJF+s+amfXQwl81+Ozh/ENfuXf8jmkwqciNawGbViG8IBLnTtK9Ti5vPF6gHkFQTRJMs+H7AKYtdFK3o/vM35TgDHvCaQhJRs59oMBxmwKkXfshoJ0pl9ArGSlXT8nXR6oY3m4gTWhJl4JNKtInhn2Mn7Xd4DTcZNeIt0dJOzVq6bJsjac0EkSuOR+5E/1H1/y2FeJ6ZEkbfV+MctSfk/WvVIx3Cdb2zguovz34Fk05zbmO6vUcY9k4Kzz7UgKacbmMOkbfaR94GT8e060dz1o70d1yZLtMPmdQca87Sb9vTa+cxUeifEUwd+wVOj7POJoODPQrzyk4iiVjajouUdUPoX8QPZvccJu+bNDqcbd88N/OxRWqnTamzG0d0PkvtNPykYd0pT3w0zYGGTM+3EF6fQjN9U+c11HCa/2ValjDwnDm+WvIsdbxhxnuUobe629iiY57xTyBuTYU2U86nvjoTEst5SQmRHrJxY/uTCM/vhFuUCYVP9oUOcjEh8AVxCcUvxWrxwu+YH9Hht/0rubbE8Z8yKNKgzxkx1HT/ak2Rt9jPmJHe1NB9oHEsihT2TaR6KQMMD0DfA7FR6OO/QJRt1LGGJmu/IDDGeQ/qq/51ceUkkLjw4mwJRcyUF9CyjGNep2qT3hoLcfQp0qBe6CC/5oZ4iMt2xoPwkkII0ikKZ9FFKQiubrEKSvdJXzJUsdX/A0qjSxGeZCtRf9fVMT33QeU3CKZXMyJMgmC+84HsmXHYI0NghSWT0Qxh8NKyeQOISURU02ggMxBbRAHXP7iQSCej6u/Du3fK6US5O0n+DjqKWdrvt83awrRSSDNPU97//f3vmExlHFcXzAUPQgXsRGEfUgYk5CxXN79OLVoyD04NGzlWqlxdqtUhUVIVhjFTxYaxHtolbpRbEgIu6liSZp1yTd3WQnuzvZ+bMz8ynf35vk4CWFSTQhM7CQ3fB237w33/f7vd/v975fvNoArxbjnQGvFjB2oskDtRkOfDDH2XmYVcZIbknYZzRcpRv03a39B/qqmw3Pbvj/ngepn7uH2FgU0oSw79gKDQC5c4EFCDFI5KsL5grr/YfT8OTZ0EDqvRkz9lb8L5A2OND53NItj0fnLaL7kNzepXM817nEl9msFR2MZNUKfZYkdUB0LGruDK08ww33Vu7qMCGVUrT2qLej9J1LrU77UP2h9JKdw7P3OjCv42I9pNIqUy2PIrMzo9cynwutPzdxd8E7vebAKUa+t8E70WLi3escvZpz1e5sGvKBeQJxJH2eHhHLLJO4QozdgJL/uY97HqRlx//VmVUmTva58yW4exK8d0Z4Z2IeuTLLwfYkjw4vMN75lIebUzzbrnM+nrP0iZnozdldynavdPthv8XJoM6++XN40THuGdR5aniFQ4P38I4IpCnKl3qvD7i31uL5b2N+7hVOQCLB6eoqOwIVSEuOoPaQcyM4Uh+x/5Uf8Y7/4wJMX83zWHaJu5Ymebr1NR93G9wI5djm5n5qX6nXTr9WLMbs893iAoejLxhfush9f3/CE51TjGlROpWz79h1nvlojm9mc0tjybPtRrvj/nb6+Kt/FUjLzlJ0k2yla9VAv6Rw8P0Z7nh5hfHLbe6/Mckb7V/5IWy6aqHC4+xlsSlt74aCG+2BjTlbEauszVS/yaF+nYmF4+w/usSDrzU43XAkX2K4x5+GQLwNxWdlx7dqX4G07DOQZtqhQpLGiIpFRFhTv8OLl3/jMxp2SkXbPe0tW+sBoUASGOubzbI92N72TsQoKwSHA0sB/TXscDH4iRe+h0URgCmbk1AotYmSVUGviLhfFStsxexUlrTkKLaI6EjkR77rUKFhx1qvGI3LuboEz1AUo2Hi5ByE67R47kv+/rY3T916IjpMse4S5OArVrzMNd1k3DR1bJHGqQJKi9GqFqDIh2pPuiXTU4G05DDOB38QxIU2gx7OsO2EokTGP4AZVGebusSmXMZCYkK5Sgk47fjLV/bYgc+iw+LKJiRQ6YcCX2HXWU7BdhDTk0UtotV+t7KkWzG/FUjLjqKlFxJyRUusMELAixiEiYmRyV20dKee9NwVK1gwRrqla5ZcKduDbW2fColaXCSuBpY2scJCs7DJRgVUtk5GLleXzPjAzaJua+/2xpdXIC07z5KuGSpmK8WxhHawhh8NSO0E9qKznOYqZhvBIxlWBY1up0C+bPfKtu9mN+0AuX2P8BfnRHFAKOmJkc9KkBh/rS1ElmstxJNFaK5XdZUegVtawk35m6/H2gAAAABJRU5ErkJggg==;" vertex="1" parent="1">
          <mxGeometry x="629.01" y="1290" width="81.98" height="76" as="geometry" />
        </mxCell>
      </root>
    </mxGraphModel>
  </diagram>
</mxfile>
